<svg width="791" height="484" viewBox="0 0 791 484" fill="none" xmlns="http://www.w3.org/2000/svg">
<path d="M751.771 17.1552H37.2365C33.0007 17.1552 29.5669 20.6824 29.5669 25.0335V476.089C29.5669 480.44 33.0007 483.967 37.2365 483.967H751.771C756.007 483.967 759.441 480.44 759.441 476.089V25.0335C759.441 20.6824 756.007 17.1552 751.771 17.1552Z" fill="#E6E6E6"/>
<path d="M744.109 24.9177H46.424C42.1882 24.9177 38.7544 28.4449 38.7544 32.7959V468.327C38.7544 472.678 42.1882 476.205 46.424 476.205H744.109C748.345 476.205 751.779 472.678 751.779 468.327V32.7959C751.779 28.4449 748.345 24.9177 744.109 24.9177Z" fill="white"/>
<path d="M7.63028 0H783.041C785.065 0 787.006 0.825771 788.437 2.29565C789.868 3.76554 790.672 5.75912 790.672 7.83785V16.6547C790.672 18.7335 789.868 20.7271 788.437 22.1969C787.006 23.6668 785.065 24.4926 783.041 24.4926H7.63028C5.6066 24.4926 3.66581 23.6668 2.23486 22.1969C0.803902 20.7271 0 18.7335 0 16.6547V7.83785C0 5.75912 0.803902 3.76554 2.23486 2.29565C3.66581 0.825771 5.6066 0 7.63028 0Z" fill="#E6E6E6"/>
</svg>
