<svg width="203" height="594" viewBox="0 0 203 594" fill="none" xmlns="http://www.w3.org/2000/svg">
<path d="M54.7446 324.266C50.4013 343.428 33.1092 314.466 29.1741 307.516L28.3715 306.078L30.2531 297.271L40.1671 293.216C41.7342 294.035 43.2193 295.002 44.6021 296.105C50.0205 300.351 58.1006 309.439 54.7446 324.266Z" fill="#ED9DA0"/>
<path d="M188.9 292.926C188.888 293.071 188.852 293.213 188.795 293.347L188.65 293.822C186.966 299.796 176.872 333.467 167.147 324.157C156.487 313.91 161.672 290.355 161.672 290.355H161.737L184.11 288.06L188.545 292.623L188.9 292.926Z" fill="#ED9DA0"/>
<path d="M175.925 458.56C167.713 537.4 168.436 550.392 168.436 550.392L139.483 551.538C139.483 551.538 137.47 533.497 137.47 500.447C137.47 500.447 116.426 368.47 110.531 348.436C110.689 349.306 106.069 385.944 106.069 385.944L106.924 443.42L107.504 482.695L107.796 545.933H76.6475L71.7779 516.273C71.7779 516.273 70.0662 459.933 67.3282 447.8C65.6897 440.61 58.6173 392.302 58.6173 392.302L51.9187 346.67C52.1076 337.888 50.9886 329.126 48.5988 320.675C44.651 307.685 38.9524 290.645 38.9524 290.645L45.4536 291.226L78.3544 294.153C78.3544 294.153 158.172 288.771 161.752 293.243C162.507 294.701 163.014 296.274 163.251 297.899C166.831 314.045 171.569 364.58 171.569 364.58L175.925 458.56Z" fill="#090814"/>
<path d="M108.452 570.346C108.228 573.92 104.24 574.131 104.24 574.131C92.5668 575.977 90.0817 580.527 90.0817 580.527C86.289 583.945 81.8417 586.552 77.0108 588.192C72.1799 589.831 67.0665 590.467 61.9822 590.062C47.6283 588.743 49.0324 586.106 49.756 581.353C49.9048 580.48 49.9842 579.597 49.9933 578.711C49.9933 572.21 54.9547 570.376 62.7458 565.522C70.5369 560.669 70.2997 556.527 73.5503 552.967C76.8009 549.406 77.1163 542.416 77.1163 542.416C80.7878 536.019 90.0788 543.379 90.0788 543.379C90.5133 545.647 104.345 545.331 104.345 545.331C104.345 545.331 106.187 552.691 107.122 553.125C107.754 553.419 108.215 559.192 108.438 564.15C108.505 566.675 108.53 569.023 108.452 570.346Z" fill="#090814"/>
<path d="M196.407 589.547C195.635 590.965 194.349 592.032 192.815 592.528H192.538C187.788 593.491 169.402 593.491 169.402 593.491C169.402 593.491 150.82 579.106 145.201 578.773C143.46 578.588 141.782 578.019 140.287 577.107C138.792 576.195 137.517 574.962 136.554 573.497C136.554 573.497 136.66 570.148 137.028 566.256C137.462 561.64 138.225 556.286 139.581 554.874C142.068 552.232 142.608 548.703 148.228 550.918C148.228 550.918 156.216 536.819 165.609 547.713L175.347 562.511C175.347 562.511 177.176 568.683 189.505 575.291C194.44 577.933 196.678 581.054 197.257 583.902C197.709 585.824 197.403 587.846 196.401 589.546L196.407 589.547Z" fill="#090814"/>
<path d="M117.836 85.6432L91.2388 113.801C91.2388 113.801 59.0353 111.427 64.6548 101.931C67.5236 97.0776 67.9747 86.9095 67.7209 78.0732C67.4836 69.553 66.6018 62.2472 66.6018 62.2472C66.6018 62.2472 111.781 39.721 108.32 60.7304C107.58 64.693 107.536 68.7544 108.188 72.7323C110.193 83.3348 117.836 85.6432 117.836 85.6432Z" fill="#ED9DA0"/>
<path d="M117.835 47.5287C117.835 54.1256 115.883 60.5744 112.226 66.0595C108.569 71.5446 103.37 75.8197 97.2885 78.344C91.2066 80.8683 84.5144 81.5285 78.058 80.2412C71.6017 78.9538 65.6714 75.7767 61.0169 71.1116C56.3625 66.4465 53.193 60.503 51.9093 54.0327C50.6257 47.5623 51.2855 40.8559 53.8053 34.7614C56.3251 28.6668 60.5918 23.458 66.0657 19.7937C71.5396 16.1293 77.975 14.174 84.5578 14.1749C93.3829 14.1801 101.845 17.696 108.085 23.95C114.324 30.2041 117.832 38.6848 117.835 47.5287Z" fill="#ED9DA0"/>
<path d="M101.53 315.452L96.3446 314.912C64.6284 319.396 50.9677 306.88 46.1548 300.405C45.2944 299.29 44.5535 298.088 43.9441 296.817L56.8021 224.281L59.8291 117.454L64.4751 98.7264L65.5413 89.7317V89.626H65.6595L68.9365 91.037C68.9365 91.037 78.08 101.634 88.5633 99.5435C99.0465 97.4533 110.857 82.6754 110.857 82.6754L111.173 82.4248L112.292 81.5941L114.135 83.0717L118.714 86.751L133.415 181.853C133.415 181.853 158.906 255.076 163.685 284.631C163.87 285.805 164.027 286.899 164.146 287.941C167.239 314.951 101.53 315.452 101.53 315.452Z" fill="#6C63FF"/>
<path d="M20.5931 154.302L12.3811 159.221L4.89268 192.575C4.89268 192.575 -4.4813 220.877 2.72105 241.082C9.92339 261.287 14.1046 272.854 14.1046 272.854C14.1046 272.854 16.9871 295.814 21.3167 297.687C25.6463 299.56 27.5152 300.576 27.5152 300.576L28.3706 306.063C28.3706 306.063 40.0969 302.107 44.2546 295.05C48.4124 287.994 41.2012 270.546 41.2012 270.546C41.2012 270.546 35.0027 255.673 36.5816 248.746C38.1606 241.82 33.4228 223.689 33.4228 223.187C33.4228 222.685 32.9883 213.072 36.4361 205.646C39.884 198.221 37.5942 195.03 37.5942 195.03L35.4362 173.796L20.5931 154.302Z" fill="#D6D6E3"/>
<path d="M165.699 120.895L181.597 129.204C181.597 129.204 194.758 163.494 196.955 178.278C196.955 178.278 206.759 217.725 199.982 233.957C193.204 250.19 193.796 282.386 193.796 282.386C193.796 282.386 189.848 288.307 188.308 286.712C186.768 285.117 188.887 292.924 188.887 292.924C188.887 292.924 161.742 296.537 161.619 291.196C161.496 285.854 167.844 260.295 167.844 260.295C167.844 260.295 169.568 199.496 167.12 189.974C164.672 180.451 165.699 120.895 165.699 120.895Z" fill="#D6D6E3"/>
<path d="M67.59 89.1249L67.1555 88.9008C66.5256 88.5876 65.8196 88.461 65.1203 88.5357C64.4211 88.6104 63.7576 88.8833 63.2077 89.3225L20.4496 124.087C20.4496 124.087 11.1587 136.973 12.4486 159.217L37.5581 195.024C37.5581 195.024 40.4406 182.89 43.9051 185.199C43.9051 185.199 48.8011 247.29 43.9051 256.241C39.0091 265.192 36.8746 298.655 36.8746 298.655L53.4431 300.528C53.4431 300.528 55.1803 277.857 59.0626 269.772C62.945 261.688 65.0766 233.913 65.0766 233.913C65.0766 233.913 68.5772 193.53 67.9982 176.2C67.4192 158.87 62.3787 121.626 62.3787 121.626C62.3787 121.626 63.7867 99.8341 67.59 89.1249Z" fill="#D6D6E3"/>
<path opacity="0.1" d="M109.61 82.1743C109.737 82.1502 109.868 82.152 109.994 82.1794C110.121 82.2069 110.241 82.2594 110.347 82.3342L109.61 82.1743Z" fill="black"/>
<path d="M111.334 80.4472L158.487 90.6241C158.487 90.6241 171.45 93.5127 180.86 126.145C190.27 158.778 168.042 198.761 168.042 198.761L163.133 194.594L165.594 289.893C165.594 289.893 143.827 298.123 136.917 290.909C130.008 283.695 130.719 249.893 130.719 249.893C130.719 249.893 124.138 187.512 119.914 177.265C115.69 167.017 117.835 93.0822 117.835 93.0822C117.835 93.0822 113.967 79.8669 111.334 80.4472Z" fill="#D6D6E3"/>
<path d="M74.2719 63.2965L79.0195 60.083C79.0195 60.083 74.856 36.4083 84.9476 35.6921C95.0392 34.9759 119.494 29.0206 115.692 18.5498C111.889 8.07912 87.1911 10.0397 73.7813 13.0898C60.3715 16.14 40.4256 31.1837 48.8614 50.3363C53.1213 60.0083 59.2767 70.6477 64.3395 76.4705C65.5175 77.5707 67.0031 78.2835 68.5969 78.5134L69.1077 73.6254L74.2719 63.2965Z" fill="#090814"/>
</svg>
