<svg width="229" height="570" viewBox="0 0 229 570" fill="none" xmlns="http://www.w3.org/2000/svg">
<path d="M199.192 558.236H178.307L173.278 493.975L199.188 488.819L199.192 558.236Z" fill="#9F616A"/>
<path d="M127.638 557.79C126.989 558.82 126.645 562.141 126.645 563.338C126.645 565.105 127.392 566.8 128.722 568.049C130.051 569.298 131.854 570 133.734 570H198.411C199.694 570 200.924 569.521 201.831 568.669C202.737 567.817 203.247 566.661 203.247 565.456V562.925C203.247 562.925 206.446 555.32 199.859 545.947C199.859 545.947 191.667 553.286 179.435 541.791L175.827 535.649L149.716 553.595L135.24 555.27C132.073 555.636 129.266 555.213 127.637 557.791L127.638 557.79Z" fill="#090814"/>
<path d="M88.7607 558.236H67.8756L64.123 495.511L94.1371 476.412L88.7607 558.236Z" fill="#9F616A"/>
<path d="M17.2065 557.79C16.5568 558.82 16.2134 562.141 16.2134 563.338C16.2134 565.105 16.9602 566.8 18.2897 568.049C19.6191 569.298 21.4222 570 23.3022 570H87.9795C89.2619 570 90.4918 569.521 91.3987 568.669C92.3055 567.817 92.8149 566.661 92.8149 565.456V562.925C92.8149 562.925 96.0143 555.32 89.4271 545.947C89.4271 545.947 81.2351 553.286 69.0033 541.791L65.3955 535.649L39.2844 553.595L24.8082 555.27C21.6414 555.636 18.8337 555.213 17.2054 557.791L17.2065 557.79Z" fill="#090814"/>
<path d="M112.464 74.4171H144.138L150.122 107.893H112.464V74.4171Z" fill="#9F616A"/>
<path d="M19.5451 4.21234C18.4696 5.47274 17.7013 6.93941 17.2943 8.50903C16.8873 10.0787 16.8515 11.713 17.1894 13.2971C17.5273 14.8811 18.2307 16.3763 19.25 17.6772C20.2692 18.9782 21.5797 20.0533 23.089 20.8269L16.2122 59.5617L36.0603 51.2834L39.5469 15.7703C40.7604 13.3017 40.9684 10.5008 40.1316 7.89776C39.2949 5.29476 37.4714 3.07049 35.0065 1.64619C32.5417 0.221884 29.6066 -0.303563 26.7571 0.169365C23.9076 0.642294 21.3417 2.08076 19.5451 4.21234Z" fill="#9E616A"/>
<path d="M82.4406 265.588L76.3718 273.088C76.3718 273.088 75.8231 276.589 66.6211 305.115L62.7339 530.379L92.7053 534.763L132.921 347.973L175.279 522.968L201.748 524.436L200.504 325.535C200.504 325.535 203.847 284.618 191.996 277.016C180.146 269.414 82.4406 265.588 82.4406 265.588Z" fill="#090814"/>
<path d="M123.388 87.9007C141.083 87.9007 155.428 74.4201 155.428 57.791C155.428 41.1619 141.083 27.6814 123.388 27.6814C105.692 27.6814 91.3469 41.1619 91.3469 57.791C91.3469 74.4201 105.692 87.9007 123.388 87.9007Z" fill="#9E616A"/>
<path d="M155.624 62.5039L155.094 61.5094C154.276 59.9719 147.501 47.1865 146.651 43.8984L138.122 44.8411H115.918L119.003 40.4921L110.846 41.4919C107.864 41.8324 105.013 42.8423 102.534 44.4362C101.013 45.3857 99.7272 46.6316 98.7636 48.0892C95.8459 52.7777 91.3987 60.4475 91.3571 60.5245L90.9319 61.2627L87.2287 55.4152C87.1804 55.1884 82.5962 32.718 97.9387 25.0967C98.7299 23.5866 105.473 11.7039 121.409 12.5085C123.161 10.6315 125.629 9.47862 128.278 9.29948C131.917 9.12126 135.696 10.9182 139.49 14.6619C144.53 19.6352 151.432 26.4444 155.607 34.0056L156.758 35.5495C158.394 37.759 159.204 40.4159 159.062 43.1043C159.948 47.3948 159.633 51.8282 158.147 55.9699L155.624 62.5039Z" fill="#090814"/>
<path d="M147.802 91.0759L165.533 100.284L200.358 109.448L189.964 195.094L191.855 279.458C191.855 279.458 132.904 317.409 76.3816 273.088V166.897L79.7257 109.448C79.7257 109.448 93.2525 105.838 100.064 112.067L112.982 96.2981L147.802 91.0759Z" fill="#6C63FF"/>
<path d="M87.5305 117.34L79.719 109.45L36.673 104.867L40.7129 42.7373L17.2435 27.0034L0 114.47L79.6494 166.897L87.5305 117.34Z" fill="#6C63FF"/>
<path d="M174.786 307.335C174.465 305.747 174.517 304.113 174.941 302.547C175.364 300.981 176.148 299.521 177.237 298.27C178.326 297.019 179.693 296.008 181.243 295.308C182.793 294.608 184.487 294.236 186.207 294.218L199.46 256.975L212.861 273.033L198.221 305.935C198.061 308.651 196.848 311.217 194.81 313.148C192.772 315.079 190.051 316.241 187.162 316.412C184.274 316.584 181.419 315.755 179.138 314.081C176.857 312.406 175.308 310.004 174.786 307.329V307.335Z" fill="#9E616A"/>
<path d="M187.272 119.252L200.355 109.444C200.355 109.444 213.734 116.379 217.804 128.812C221.874 141.245 229 212.023 229 212.023L209.663 302.885L188.037 288.794L198.468 216.808L180.148 164.204L187.272 119.252Z" fill="#6C63FF"/>
</svg>
