<svg width="407" height="720" viewBox="0 0 407 720" fill="none" xmlns="http://www.w3.org/2000/svg">
<g clip-path="url(#clip0_55_312)">
<path d="M342.86 0H65.3501C32.9373 0 6.6615 26.2934 6.6615 58.728V661.272C6.6615 693.707 32.9373 720 65.3501 720H342.86C375.273 720 401.549 693.707 401.549 661.272V58.728C401.549 26.2934 375.273 0 342.86 0Z" fill="#3F3D56"/>
<path d="M394.886 71.1909V648.815C394.864 665.92 388.064 682.318 375.977 694.412C363.889 706.507 347.502 713.311 330.408 713.332H77.8018C60.7077 713.311 44.3197 706.507 32.2323 694.411C20.1449 682.316 13.345 665.917 13.3241 648.811V71.1909C13.345 54.0853 20.1449 37.6863 32.2323 25.5908C44.3197 13.4953 60.7077 6.69083 77.8018 6.66992H110.839V18.0879C110.839 23.257 112.891 28.2143 116.544 31.8695C120.196 35.5247 125.15 37.5784 130.316 37.5789H277.899C283.064 37.5787 288.018 35.5252 291.671 31.8702C295.324 28.2152 297.376 23.258 297.377 18.0889V6.66992H330.409C347.504 6.69083 363.892 13.4953 375.979 25.5908C388.066 37.6863 394.865 54.0853 394.886 71.1909Z" fill="white"/>
<path d="M4.84477 146.06C3.56018 146.059 2.32854 145.548 1.4201 144.639C0.511659 143.73 0.000610637 142.497 -0.000976562 141.212V131.512C-0.000976562 130.226 0.509662 128.992 1.4186 128.083C2.32755 127.173 3.56031 126.662 4.84575 126.662C6.13119 126.662 7.36398 127.173 8.27292 128.083C9.18186 128.992 9.6925 130.226 9.6925 131.512V141.212C9.69092 142.498 9.17957 143.73 8.2707 144.639C7.36183 145.548 6.12971 146.059 4.84477 146.06Z" fill="#3F3D56"/>
<path d="M4.84477 195.783C3.56018 195.781 2.32866 195.27 1.4204 194.361C0.512152 193.452 0.00132225 192.22 0 190.934V164.242C0 162.956 0.510638 161.722 1.41958 160.813C2.32852 159.903 3.56132 159.392 4.84676 159.392C6.13219 159.392 7.36499 159.903 8.27393 160.813C9.18287 161.722 9.69351 162.956 9.69351 164.242V190.935C9.69192 192.22 9.18099 193.453 8.27277 194.361C7.36455 195.27 6.13319 195.781 4.84877 195.783H4.84477Z" fill="#3F3D56"/>
<path d="M4.84477 235.754C3.56018 235.752 2.32866 235.241 1.4204 234.332C0.512152 233.423 0.00132225 232.19 0 230.905V204.216C0 202.93 0.510638 201.696 1.41958 200.786C2.32852 199.877 3.56132 199.366 4.84676 199.366C6.13219 199.366 7.36499 199.877 8.27393 200.786C9.18287 201.696 9.69351 202.93 9.69351 204.216V230.909C9.69192 232.194 9.18099 233.426 8.27277 234.335C7.36455 235.244 6.13319 235.755 4.84877 235.757L4.84477 235.754Z" fill="#3F3D56"/>
<path d="M402.154 213.939C400.87 213.937 399.638 213.426 398.73 212.517C397.822 211.608 397.311 210.376 397.309 209.091V143.959C397.309 142.673 397.82 141.439 398.729 140.53C399.638 139.62 400.871 139.109 402.156 139.109C403.441 139.109 404.674 139.62 405.583 140.53C406.492 141.439 407.003 142.673 407.003 143.959V209.09C407.001 210.375 406.49 211.608 405.582 212.517C404.673 213.426 403.442 213.937 402.157 213.938L402.154 213.939Z" fill="#3F3D56"/>
<path d="M214.513 22.237H176.963C176.16 22.237 175.39 21.9177 174.822 21.3494C174.254 20.7811 173.935 20.0103 173.935 19.2065C173.935 18.4028 174.254 17.632 174.822 17.0636C175.39 16.4953 176.16 16.176 176.963 16.176H214.514C215.317 16.176 216.088 16.4953 216.656 17.0636C217.223 17.632 217.543 18.4028 217.543 19.2065C217.543 20.0103 217.223 20.7811 216.656 21.3494C216.088 21.9177 215.316 22.237 214.513 22.237Z" fill="white"/>
<path d="M233.893 21.631C235.231 21.631 236.315 20.5457 236.315 19.207C236.315 17.8682 235.231 16.783 233.893 16.783C232.555 16.783 231.471 17.8682 231.471 19.207C231.471 20.5457 232.555 21.631 233.893 21.631Z" fill="white"/>
<path d="M96.4023 35.2399H63.6973C62.1045 35.2194 60.5839 34.5719 59.4647 33.4376C58.3456 32.3032 57.7181 30.7734 57.7181 29.1794C57.7181 27.5854 58.3456 26.0556 59.4647 24.9212C60.5839 23.7869 62.1045 23.1394 63.6973 23.1189H96.4023C97.2042 23.1086 98.0002 23.2577 98.744 23.5577C99.4878 23.8576 100.165 24.3024 100.735 24.8662C101.306 25.43 101.759 26.1016 102.069 26.842C102.378 27.5824 102.537 28.3769 102.537 29.1794C102.537 29.9819 102.378 30.7764 102.069 31.5168C101.759 32.2572 101.306 32.9288 100.735 33.4926C100.165 34.0564 99.4878 34.5012 98.744 34.8011C98.0002 35.1011 97.2042 35.2502 96.4023 35.2399Z" fill="#E6E6E6"/>
<path d="M311.306 34.635C314.317 34.635 316.758 32.1927 316.758 29.18C316.758 26.1673 314.317 23.725 311.306 23.725C308.296 23.725 305.855 26.1673 305.855 29.18C305.855 32.1927 308.296 34.635 311.306 34.635Z" fill="#E6E6E6"/>
<path d="M328.265 34.635C331.276 34.635 333.716 32.1927 333.716 29.18C333.716 26.1673 331.276 23.725 328.265 23.725C325.254 23.725 322.813 26.1673 322.813 29.18C322.813 32.1927 325.254 34.635 328.265 34.635Z" fill="#E6E6E6"/>
<path d="M345.222 34.635C348.233 34.635 350.674 32.1927 350.674 29.18C350.674 26.1673 348.233 23.725 345.222 23.725C342.212 23.725 339.771 26.1673 339.771 29.18C339.771 32.1927 342.212 34.635 345.222 34.635Z" fill="#E6E6E6"/>
<rect x="57.9612" y="110" width="298.8" height="29" rx="8" fill="#BCFB89"/>
<rect x="57.9612" y="146" width="298.8" height="506" fill="#05C274"/>
<rect x="66.9551" y="229" width="283.81" height="59" rx="10" fill="white"/>
<rect x="66.9551" y="301" width="283.81" height="59" rx="10" fill="white"/>
<rect x="66.9551" y="371" width="283.81" height="59" rx="10" fill="white"/>
<rect x="66.9551" y="441" width="283.81" height="59" rx="10" fill="white"/>
<rect x="66.9551" y="159" width="283.81" height="59" rx="10" fill="white"/>
<rect x="66.9551" y="511" width="283.81" height="59" rx="10" fill="white"/>
<rect x="65.9558" y="581" width="283.81" height="59" rx="10" fill="white"/>
<rect x="60.9591" y="61" width="123.917" height="34" rx="12" fill="#05C274"/>
<path d="M67.367 68.4545H70.8116L74.1284 74.7188H74.2704L77.5872 68.4545H81.0318L75.7264 77.858V83H72.6724V77.858L67.367 68.4545ZM85.2985 83.2131C84.1953 83.2131 83.2412 82.9787 82.4363 82.5099C81.6361 82.0365 81.0182 81.3783 80.5826 80.5355C80.147 79.688 79.9292 78.7055 79.9292 77.5881C79.9292 76.4612 80.147 75.4763 80.5826 74.6335C81.0182 73.786 81.6361 73.1278 82.4363 72.6591C83.2412 72.1856 84.1953 71.9489 85.2985 71.9489C86.4017 71.9489 87.3534 72.1856 88.1536 72.6591C88.9585 73.1278 89.5788 73.786 90.0144 74.6335C90.45 75.4763 90.6678 76.4612 90.6678 77.5881C90.6678 78.7055 90.45 79.688 90.0144 80.5355C89.5788 81.3783 88.9585 82.0365 88.1536 82.5099C87.3534 82.9787 86.4017 83.2131 85.2985 83.2131ZM85.3127 80.8693C85.8146 80.8693 86.2336 80.7273 86.5698 80.4432C86.906 80.1544 87.1593 79.7614 87.3297 79.2642C87.5049 78.767 87.5925 78.2012 87.5925 77.5668C87.5925 76.9323 87.5049 76.3665 87.3297 75.8693C87.1593 75.3722 86.906 74.9792 86.5698 74.6903C86.2336 74.4015 85.8146 74.2571 85.3127 74.2571C84.806 74.2571 84.3799 74.4015 84.0343 74.6903C83.6934 74.9792 83.4353 75.3722 83.2601 75.8693C83.0897 76.3665 83.0044 76.9323 83.0044 77.5668C83.0044 78.2012 83.0897 78.767 83.2601 79.2642C83.4353 79.7614 83.6934 80.1544 84.0343 80.4432C84.3799 80.7273 84.806 80.8693 85.3127 80.8693ZM99.6309 78.3551V72.0909H102.656V83H99.7516V81.0185H99.638C99.3917 81.6577 98.9822 82.1714 98.4093 82.5597C97.8411 82.9479 97.1474 83.142 96.3283 83.142C95.5991 83.142 94.9576 82.9763 94.4036 82.6449C93.8496 82.3134 93.4164 81.8423 93.1039 81.2315C92.7961 80.6207 92.6399 79.8892 92.6351 79.0369V72.0909H95.6607V78.4972C95.6654 79.1411 95.8382 79.6501 96.1792 80.0241C96.5201 80.3982 96.977 80.5852 97.5499 80.5852C97.9145 80.5852 98.2554 80.5024 98.5726 80.3366C98.8899 80.1662 99.1455 79.9152 99.3397 79.5838C99.5385 79.2524 99.6356 78.8428 99.6309 78.3551ZM105.077 83V72.0909H108.01V73.9943H108.123C108.322 73.3172 108.656 72.8059 109.125 72.4602C109.594 72.1098 110.133 71.9347 110.744 71.9347C110.896 71.9347 111.059 71.9441 111.234 71.9631C111.409 71.982 111.563 72.008 111.696 72.0412V74.7259C111.554 74.6832 111.357 74.6454 111.106 74.6122C110.855 74.5791 110.626 74.5625 110.417 74.5625C109.972 74.5625 109.575 74.6596 109.224 74.8537C108.879 75.0431 108.604 75.3082 108.4 75.6491C108.202 75.9901 108.102 76.383 108.102 76.8281V83H105.077ZM130.78 73.5469H127.669C127.612 73.1444 127.496 72.7869 127.321 72.4744C127.146 72.1572 126.921 71.8873 126.646 71.6648C126.372 71.4422 126.054 71.2718 125.694 71.1534C125.339 71.035 124.953 70.9759 124.537 70.9759C123.784 70.9759 123.128 71.1629 122.569 71.5369C122.011 71.9062 121.577 72.446 121.27 73.1562C120.962 73.8617 120.808 74.7187 120.808 75.7273C120.808 76.7642 120.962 77.6354 121.27 78.3409C121.582 79.0464 122.018 79.5791 122.577 79.9389C123.135 80.2988 123.782 80.4787 124.515 80.4787C124.927 80.4787 125.309 80.4242 125.659 80.3153C126.014 80.2064 126.329 80.0478 126.604 79.8395C126.878 79.6264 127.105 79.3684 127.285 79.0653C127.47 78.7623 127.598 78.4167 127.669 78.0284L130.78 78.0426C130.699 78.7102 130.498 79.3542 130.176 79.9744C129.859 80.59 129.43 81.1416 128.89 81.6293C128.355 82.1122 127.716 82.4957 126.973 82.7798C126.234 83.0592 125.398 83.1989 124.466 83.1989C123.168 83.1989 122.008 82.9053 120.986 82.3182C119.968 81.7311 119.163 80.8812 118.571 79.7685C117.984 78.6558 117.69 77.3087 117.69 75.7273C117.69 74.1411 117.988 72.7917 118.585 71.679C119.182 70.5663 119.991 69.7187 121.014 69.1364C122.037 68.5492 123.187 68.2557 124.466 68.2557C125.309 68.2557 126.09 68.3741 126.809 68.6108C127.534 68.8475 128.175 69.1932 128.734 69.6477C129.293 70.0975 129.747 70.6491 130.098 71.3026C130.453 71.956 130.68 72.7041 130.78 73.5469ZM135.954 76.6932V83H132.928V68.4545H135.868V74.0156H135.996C136.242 73.3717 136.64 72.8674 137.189 72.5028C137.739 72.1335 138.428 71.9489 139.256 71.9489C140.014 71.9489 140.674 72.1146 141.238 72.446C141.806 72.7727 142.246 73.2438 142.559 73.8594C142.876 74.4702 143.032 75.2017 143.028 76.054V83H140.002V76.5938C140.007 75.9214 139.836 75.3982 139.491 75.0241C139.15 74.6501 138.671 74.4631 138.056 74.4631C137.644 74.4631 137.279 74.5507 136.962 74.7259C136.65 74.901 136.403 75.1567 136.224 75.4929C136.048 75.8243 135.958 76.2244 135.954 76.6932ZM148.519 83.206C147.823 83.206 147.203 83.0852 146.659 82.8438C146.114 82.5975 145.683 82.2353 145.366 81.7571C145.053 81.2741 144.897 80.6728 144.897 79.9531C144.897 79.3471 145.008 78.8381 145.231 78.4261C145.454 78.0142 145.757 77.6828 146.14 77.4318C146.524 77.1809 146.959 76.9915 147.447 76.8636C147.939 76.7358 148.455 76.6458 148.995 76.5938C149.63 76.5275 150.141 76.4659 150.529 76.4091C150.918 76.3475 151.199 76.2576 151.374 76.1392C151.55 76.0208 151.637 75.8456 151.637 75.6136V75.571C151.637 75.1212 151.495 74.7732 151.211 74.527C150.932 74.2808 150.534 74.1577 150.018 74.1577C149.473 74.1577 149.04 74.2784 148.718 74.5199C148.396 74.7566 148.183 75.0549 148.079 75.4148L145.281 75.1875C145.423 74.5246 145.702 73.9517 146.119 73.4688C146.535 72.9811 147.073 72.607 147.731 72.3466C148.394 72.0814 149.161 71.9489 150.032 71.9489C150.638 71.9489 151.218 72.0199 151.772 72.1619C152.331 72.304 152.826 72.5241 153.257 72.8224C153.692 73.1207 154.035 73.5043 154.286 73.973C154.537 74.437 154.663 74.9934 154.663 75.642V83H151.794V81.4872H151.708C151.533 81.8281 151.299 82.1288 151.005 82.3892C150.712 82.6449 150.359 82.8461 149.947 82.9929C149.535 83.1349 149.059 83.206 148.519 83.206ZM149.386 81.1179C149.831 81.1179 150.224 81.0303 150.565 80.8551C150.906 80.6752 151.173 80.4337 151.367 80.1307C151.561 79.8277 151.659 79.4844 151.659 79.1009V77.9432C151.564 78.0047 151.434 78.0616 151.268 78.1136C151.107 78.161 150.925 78.206 150.721 78.2486C150.517 78.2865 150.314 78.322 150.11 78.3551C149.907 78.3835 149.722 78.4096 149.556 78.4332C149.201 78.4853 148.891 78.5682 148.626 78.6818C148.361 78.7955 148.155 78.9493 148.008 79.1435C147.861 79.3329 147.788 79.5696 147.788 79.8537C147.788 80.2656 147.937 80.5805 148.235 80.7983C148.538 81.0114 148.922 81.1179 149.386 81.1179ZM162.813 72.0909V74.3636H156.243V72.0909H162.813ZM157.735 69.4773H160.76V79.6477C160.76 79.9271 160.803 80.1449 160.888 80.3011C160.973 80.4527 161.092 80.5592 161.243 80.6207C161.399 80.6823 161.579 80.7131 161.783 80.7131C161.925 80.7131 162.067 80.7012 162.209 80.6776C162.351 80.6491 162.46 80.6278 162.536 80.6136L163.012 82.8651C162.86 82.9124 162.647 82.9669 162.372 83.0284C162.098 83.0947 161.764 83.1349 161.371 83.1491C160.642 83.1776 160.003 83.0805 159.453 82.858C158.909 82.6354 158.485 82.2898 158.182 81.821C157.879 81.3523 157.73 80.7604 157.735 80.0455V69.4773ZM173.724 75.2017L170.954 75.3722C170.906 75.1354 170.805 74.9223 170.648 74.733C170.492 74.5388 170.286 74.3849 170.03 74.2713C169.779 74.1529 169.479 74.0938 169.128 74.0938C168.66 74.0938 168.264 74.1932 167.942 74.392C167.62 74.5862 167.459 74.8466 167.459 75.1733C167.459 75.4337 167.564 75.6539 167.772 75.8338C167.98 76.0137 168.338 76.1581 168.844 76.267L170.819 76.6648C171.879 76.8826 172.67 77.233 173.191 77.7159C173.712 78.1989 173.972 78.8333 173.972 79.6193C173.972 80.3343 173.761 80.9616 173.34 81.5014C172.923 82.0412 172.35 82.4626 171.621 82.7656C170.897 83.0639 170.061 83.2131 169.114 83.2131C167.67 83.2131 166.519 82.9124 165.662 82.3111C164.81 81.705 164.311 80.8812 164.164 79.8395L167.14 79.6832C167.23 80.1236 167.448 80.4598 167.793 80.6918C168.139 80.919 168.581 81.0327 169.121 81.0327C169.652 81.0327 170.078 80.9309 170.4 80.7273C170.726 80.5189 170.892 80.2514 170.897 79.9247C170.892 79.6501 170.776 79.4252 170.549 79.25C170.322 79.0701 169.971 78.9328 169.498 78.8381L167.608 78.4616C166.543 78.2486 165.75 77.8793 165.229 77.3537C164.713 76.8281 164.455 76.1581 164.455 75.3438C164.455 74.643 164.644 74.0393 165.023 73.5327C165.407 73.026 165.944 72.6354 166.635 72.3608C167.331 72.0862 168.146 71.9489 169.079 71.9489C170.456 71.9489 171.541 72.2401 172.331 72.8224C173.127 73.4048 173.591 74.1979 173.724 75.2017Z" fill="black"/>
<path d="M66.9551 130.12H82.9551V114.12H66.9551V130.12ZM93.9821 120.71C93.9366 120.252 93.7415 119.896 93.3968 119.642C93.0521 119.388 92.5843 119.261 91.9934 119.261C91.5919 119.261 91.2529 119.318 90.9764 119.432C90.6999 119.542 90.4877 119.695 90.34 119.892C90.1961 120.089 90.1241 120.312 90.1241 120.562C90.1165 120.771 90.1601 120.953 90.2548 121.108C90.3533 121.263 90.4877 121.398 90.6582 121.511C90.8287 121.621 91.0256 121.718 91.2491 121.801C91.4726 121.881 91.7112 121.949 91.965 122.006L93.0105 122.256C93.5181 122.369 93.984 122.521 94.4082 122.71C94.8324 122.9 95.1999 123.133 95.5105 123.409C95.8211 123.686 96.0616 124.011 96.2321 124.386C96.4063 124.761 96.4953 125.191 96.4991 125.676C96.4953 126.388 96.3135 127.006 95.9537 127.528C95.5976 128.047 95.0824 128.451 94.4082 128.739C93.7377 129.023 92.929 129.165 91.9821 129.165C91.0427 129.165 90.2245 129.021 89.5275 128.733C88.8343 128.445 88.2927 128.019 87.9025 127.455C87.5162 126.886 87.3135 126.184 87.2946 125.347H89.6752C89.7018 125.737 89.8135 126.062 90.0105 126.324C90.2112 126.581 90.4783 126.777 90.8116 126.909C91.1487 127.038 91.5294 127.102 91.9537 127.102C92.3703 127.102 92.7321 127.042 93.0389 126.92C93.3495 126.799 93.59 126.631 93.7605 126.415C93.9309 126.199 94.0162 125.951 94.0162 125.67C94.0162 125.409 93.9385 125.189 93.7832 125.011C93.6317 124.833 93.4082 124.682 93.1127 124.557C92.8211 124.432 92.4631 124.318 92.0389 124.216L90.7718 123.898C89.7908 123.659 89.0162 123.286 88.448 122.778C87.8798 122.271 87.5976 121.587 87.6014 120.727C87.5976 120.023 87.7851 119.407 88.1639 118.881C88.5465 118.354 89.0711 117.943 89.7377 117.648C90.4044 117.352 91.162 117.205 92.0105 117.205C92.8741 117.205 93.6279 117.352 94.2718 117.648C94.9196 117.943 95.4234 118.354 95.7832 118.881C96.1431 119.407 96.3287 120.017 96.34 120.71H93.9821ZM102.086 129.17C101.188 129.17 100.415 128.989 99.7676 128.625C99.1236 128.258 98.6274 127.739 98.2789 127.068C97.9305 126.394 97.7562 125.597 97.7562 124.676C97.7562 123.778 97.9305 122.991 98.2789 122.312C98.6274 121.634 99.118 121.106 99.7505 120.727C100.387 120.348 101.133 120.159 101.989 120.159C102.565 120.159 103.101 120.252 103.597 120.438C104.097 120.619 104.533 120.894 104.904 121.261C105.279 121.629 105.571 122.091 105.779 122.648C105.987 123.201 106.091 123.848 106.091 124.591V125.256H98.7221V123.756H103.813C103.813 123.407 103.737 123.098 103.586 122.83C103.434 122.561 103.224 122.35 102.955 122.199C102.69 122.044 102.381 121.966 102.029 121.966C101.662 121.966 101.336 122.051 101.052 122.222C100.771 122.388 100.552 122.614 100.393 122.898C100.233 123.178 100.152 123.491 100.148 123.835V125.261C100.148 125.693 100.228 126.066 100.387 126.381C100.55 126.695 100.779 126.938 101.074 127.108C101.37 127.278 101.72 127.364 102.126 127.364C102.394 127.364 102.641 127.326 102.864 127.25C103.088 127.174 103.279 127.061 103.438 126.909C103.597 126.758 103.718 126.572 103.802 126.352L106.04 126.5C105.927 127.038 105.694 127.508 105.341 127.909C104.993 128.307 104.542 128.617 103.989 128.841C103.44 129.061 102.805 129.17 102.086 129.17ZM110.16 129.165C109.603 129.165 109.107 129.068 108.671 128.875C108.235 128.678 107.891 128.388 107.637 128.006C107.387 127.619 107.262 127.138 107.262 126.562C107.262 126.078 107.351 125.67 107.529 125.341C107.707 125.011 107.949 124.746 108.256 124.545C108.563 124.345 108.912 124.193 109.302 124.091C109.696 123.989 110.108 123.917 110.54 123.875C111.048 123.822 111.457 123.773 111.768 123.727C112.078 123.678 112.304 123.606 112.444 123.511C112.584 123.417 112.654 123.277 112.654 123.091V123.057C112.654 122.697 112.54 122.419 112.313 122.222C112.09 122.025 111.771 121.926 111.358 121.926C110.923 121.926 110.576 122.023 110.319 122.216C110.061 122.405 109.891 122.644 109.807 122.932L107.569 122.75C107.682 122.22 107.906 121.761 108.239 121.375C108.573 120.985 109.002 120.686 109.529 120.477C110.059 120.265 110.673 120.159 111.37 120.159C111.855 120.159 112.319 120.216 112.762 120.33C113.209 120.443 113.605 120.619 113.949 120.858C114.298 121.097 114.573 121.403 114.773 121.778C114.974 122.15 115.074 122.595 115.074 123.114V129H112.779V127.79H112.711C112.571 128.062 112.383 128.303 112.148 128.511C111.913 128.716 111.631 128.877 111.302 128.994C110.972 129.108 110.591 129.165 110.16 129.165ZM110.853 127.494C111.209 127.494 111.523 127.424 111.796 127.284C112.069 127.14 112.283 126.947 112.438 126.705C112.593 126.462 112.671 126.187 112.671 125.881V124.955C112.595 125.004 112.491 125.049 112.358 125.091C112.23 125.129 112.084 125.165 111.921 125.199C111.758 125.229 111.595 125.258 111.432 125.284C111.269 125.307 111.122 125.328 110.989 125.347C110.705 125.388 110.457 125.455 110.245 125.545C110.033 125.636 109.868 125.759 109.751 125.915C109.633 126.066 109.574 126.256 109.574 126.483C109.574 126.812 109.694 127.064 109.932 127.239C110.175 127.409 110.482 127.494 110.853 127.494ZM116.952 129V120.273H119.299V121.795H119.39C119.549 121.254 119.816 120.845 120.191 120.568C120.566 120.288 120.998 120.148 121.486 120.148C121.608 120.148 121.738 120.155 121.878 120.17C122.019 120.186 122.142 120.206 122.248 120.233V122.381C122.134 122.347 121.977 122.316 121.776 122.29C121.575 122.263 121.392 122.25 121.225 122.25C120.869 122.25 120.551 122.328 120.27 122.483C119.994 122.634 119.774 122.847 119.611 123.119C119.452 123.392 119.373 123.706 119.373 124.062V129H116.952ZM127.036 129.17C126.142 129.17 125.373 128.981 124.729 128.602C124.089 128.22 123.597 127.689 123.252 127.011C122.911 126.333 122.741 125.553 122.741 124.67C122.741 123.777 122.913 122.992 123.258 122.318C123.606 121.64 124.1 121.112 124.741 120.733C125.381 120.35 126.142 120.159 127.025 120.159C127.786 120.159 128.453 120.297 129.025 120.574C129.597 120.85 130.049 121.239 130.383 121.739C130.716 122.239 130.9 122.826 130.934 123.5H128.65C128.585 123.064 128.415 122.714 128.138 122.449C127.866 122.18 127.508 122.045 127.064 122.045C126.689 122.045 126.362 122.148 126.081 122.352C125.805 122.553 125.589 122.847 125.434 123.233C125.278 123.619 125.201 124.087 125.201 124.636C125.201 125.193 125.277 125.667 125.428 126.057C125.583 126.447 125.801 126.744 126.081 126.949C126.362 127.153 126.689 127.256 127.064 127.256C127.341 127.256 127.589 127.199 127.809 127.085C128.032 126.972 128.216 126.807 128.36 126.591C128.508 126.371 128.604 126.108 128.65 125.801H130.934C130.896 126.468 130.714 127.055 130.388 127.562C130.066 128.066 129.621 128.46 129.053 128.744C128.485 129.028 127.813 129.17 127.036 129.17ZM134.904 123.955V129H132.483V117.364H134.836V121.812H134.938C135.135 121.297 135.453 120.894 135.893 120.602C136.332 120.307 136.883 120.159 137.546 120.159C138.152 120.159 138.68 120.292 139.131 120.557C139.586 120.818 139.938 121.195 140.188 121.688C140.442 122.176 140.567 122.761 140.563 123.443V129H138.143V123.875C138.146 123.337 138.01 122.919 137.733 122.619C137.461 122.32 137.078 122.17 136.586 122.17C136.256 122.17 135.965 122.241 135.711 122.381C135.461 122.521 135.264 122.725 135.12 122.994C134.98 123.259 134.908 123.58 134.904 123.955ZM150.114 129.17C149.22 129.17 148.451 128.981 147.807 128.602C147.167 128.22 146.675 127.689 146.33 127.011C145.989 126.333 145.819 125.553 145.819 124.67C145.819 123.777 145.991 122.992 146.336 122.318C146.684 121.64 147.179 121.112 147.819 120.733C148.459 120.35 149.22 120.159 150.103 120.159C150.864 120.159 151.531 120.297 152.103 120.574C152.675 120.85 153.127 121.239 153.461 121.739C153.794 122.239 153.978 122.826 154.012 123.5H151.728C151.663 123.064 151.493 122.714 151.216 122.449C150.944 122.18 150.586 122.045 150.143 122.045C149.768 122.045 149.44 122.148 149.16 122.352C148.883 122.553 148.667 122.847 148.512 123.233C148.357 123.619 148.279 124.087 148.279 124.636C148.279 125.193 148.355 125.667 148.506 126.057C148.662 126.447 148.879 126.744 149.16 126.949C149.44 127.153 149.768 127.256 150.143 127.256C150.419 127.256 150.667 127.199 150.887 127.085C151.11 126.972 151.294 126.807 151.438 126.591C151.586 126.371 151.682 126.108 151.728 125.801H154.012C153.974 126.468 153.792 127.055 153.466 127.562C153.144 128.066 152.699 128.46 152.131 128.744C151.563 129.028 150.891 129.17 150.114 129.17ZM157.982 123.955V129H155.562V117.364H157.914V121.812H158.016C158.213 121.297 158.531 120.894 158.971 120.602C159.41 120.307 159.961 120.159 160.624 120.159C161.23 120.159 161.759 120.292 162.209 120.557C162.664 120.818 163.016 121.195 163.266 121.688C163.52 122.176 163.645 122.761 163.641 123.443V129H161.221V123.875C161.224 123.337 161.088 122.919 160.812 122.619C160.539 122.32 160.156 122.17 159.664 122.17C159.334 122.17 159.043 122.241 158.789 122.381C158.539 122.521 158.342 122.725 158.198 122.994C158.058 123.259 157.986 123.58 157.982 123.955ZM168.035 129.165C167.478 129.165 166.982 129.068 166.546 128.875C166.11 128.678 165.766 128.388 165.512 128.006C165.262 127.619 165.137 127.138 165.137 126.562C165.137 126.078 165.226 125.67 165.404 125.341C165.582 125.011 165.824 124.746 166.131 124.545C166.438 124.345 166.787 124.193 167.177 124.091C167.571 123.989 167.983 123.917 168.415 123.875C168.923 123.822 169.332 123.773 169.643 123.727C169.953 123.678 170.179 123.606 170.319 123.511C170.459 123.417 170.529 123.277 170.529 123.091V123.057C170.529 122.697 170.415 122.419 170.188 122.222C169.965 122.025 169.646 121.926 169.233 121.926C168.798 121.926 168.451 122.023 168.194 122.216C167.936 122.405 167.766 122.644 167.682 122.932L165.444 122.75C165.557 122.22 165.781 121.761 166.114 121.375C166.448 120.985 166.877 120.686 167.404 120.477C167.934 120.265 168.548 120.159 169.245 120.159C169.73 120.159 170.194 120.216 170.637 120.33C171.084 120.443 171.48 120.619 171.824 120.858C172.173 121.097 172.448 121.403 172.648 121.778C172.849 122.15 172.949 122.595 172.949 123.114V129H170.654V127.79H170.586C170.446 128.062 170.258 128.303 170.023 128.511C169.788 128.716 169.506 128.877 169.177 128.994C168.847 129.108 168.466 129.165 168.035 129.165ZM168.728 127.494C169.084 127.494 169.398 127.424 169.671 127.284C169.944 127.14 170.158 126.947 170.313 126.705C170.468 126.462 170.546 126.187 170.546 125.881V124.955C170.47 125.004 170.366 125.049 170.233 125.091C170.105 125.129 169.959 125.165 169.796 125.199C169.633 125.229 169.47 125.258 169.307 125.284C169.144 125.307 168.997 125.328 168.864 125.347C168.58 125.388 168.332 125.455 168.12 125.545C167.908 125.636 167.743 125.759 167.626 125.915C167.508 126.066 167.449 126.256 167.449 126.483C167.449 126.812 167.569 127.064 167.807 127.239C168.05 127.409 168.357 127.494 168.728 127.494ZM179.469 120.273V122.091H174.214V120.273H179.469ZM175.407 118.182H177.827V126.318C177.827 126.542 177.861 126.716 177.93 126.841C177.998 126.962 178.092 127.047 178.214 127.097C178.339 127.146 178.483 127.17 178.645 127.17C178.759 127.17 178.873 127.161 178.986 127.142C179.1 127.119 179.187 127.102 179.248 127.091L179.628 128.892C179.507 128.93 179.337 128.973 179.117 129.023C178.897 129.076 178.63 129.108 178.316 129.119C177.733 129.142 177.221 129.064 176.782 128.886C176.346 128.708 176.007 128.432 175.765 128.057C175.522 127.682 175.403 127.208 175.407 126.636V118.182ZM188.198 122.761L185.982 122.898C185.944 122.708 185.863 122.538 185.738 122.386C185.613 122.231 185.448 122.108 185.243 122.017C185.043 121.922 184.802 121.875 184.522 121.875C184.147 121.875 183.831 121.955 183.573 122.114C183.315 122.269 183.187 122.477 183.187 122.739C183.187 122.947 183.27 123.123 183.437 123.267C183.603 123.411 183.889 123.527 184.295 123.614L185.874 123.932C186.723 124.106 187.355 124.386 187.772 124.773C188.189 125.159 188.397 125.667 188.397 126.295C188.397 126.867 188.228 127.369 187.891 127.801C187.558 128.233 187.099 128.57 186.516 128.812C185.937 129.051 185.268 129.17 184.51 129.17C183.355 129.17 182.435 128.93 181.749 128.449C181.067 127.964 180.668 127.305 180.55 126.472L182.931 126.347C183.003 126.699 183.177 126.968 183.454 127.153C183.73 127.335 184.084 127.426 184.516 127.426C184.94 127.426 185.281 127.345 185.539 127.182C185.8 127.015 185.933 126.801 185.937 126.54C185.933 126.32 185.84 126.14 185.658 126C185.476 125.856 185.196 125.746 184.817 125.67L183.306 125.369C182.454 125.199 181.819 124.903 181.403 124.483C180.99 124.062 180.783 123.527 180.783 122.875C180.783 122.314 180.935 121.831 181.238 121.426C181.545 121.021 181.974 120.708 182.528 120.489C183.084 120.269 183.736 120.159 184.482 120.159C185.584 120.159 186.452 120.392 187.084 120.858C187.721 121.324 188.092 121.958 188.198 122.761Z" fill="#090814"/>
<ellipse cx="100.433" cy="189" rx="22.4849" ry="22" fill="#D9D9D9"/>
<path d="M131.924 192V180.364H136.583C137.439 180.364 138.153 180.491 138.725 180.744C139.297 180.998 139.727 181.35 140.015 181.801C140.302 182.248 140.446 182.763 140.446 183.347C140.446 183.801 140.355 184.201 140.174 184.545C139.992 184.886 139.742 185.167 139.424 185.386C139.109 185.602 138.749 185.756 138.344 185.847V185.96C138.787 185.979 139.202 186.104 139.588 186.335C139.979 186.566 140.295 186.89 140.537 187.307C140.78 187.72 140.901 188.212 140.901 188.784C140.901 189.402 140.747 189.953 140.441 190.438C140.138 190.919 139.689 191.299 139.094 191.58C138.499 191.86 137.766 192 136.895 192H131.924ZM134.384 189.989H136.39C137.075 189.989 137.575 189.858 137.89 189.597C138.204 189.331 138.361 188.979 138.361 188.54C138.361 188.218 138.283 187.934 138.128 187.688C137.973 187.441 137.751 187.248 137.463 187.108C137.179 186.968 136.84 186.898 136.446 186.898H134.384V189.989ZM134.384 185.233H136.208C136.545 185.233 136.844 185.174 137.105 185.057C137.371 184.936 137.579 184.765 137.73 184.545C137.886 184.326 137.963 184.062 137.963 183.756C137.963 183.335 137.814 182.996 137.515 182.739C137.219 182.481 136.799 182.352 136.253 182.352H134.384V185.233ZM144.877 180.364V192H142.456V180.364H144.877ZM152.412 188.284V183.273H154.833V192H152.509V190.415H152.418C152.221 190.926 151.893 191.337 151.435 191.648C150.98 191.958 150.425 192.114 149.77 192.114C149.187 192.114 148.674 191.981 148.23 191.716C147.787 191.451 147.441 191.074 147.191 190.585C146.944 190.097 146.819 189.511 146.816 188.83V183.273H149.236V188.398C149.24 188.913 149.378 189.32 149.651 189.619C149.924 189.919 150.289 190.068 150.747 190.068C151.039 190.068 151.312 190.002 151.566 189.869C151.819 189.733 152.024 189.532 152.179 189.267C152.338 189.002 152.416 188.674 152.412 188.284ZM160.746 192.17C159.848 192.17 159.076 191.989 158.428 191.625C157.784 191.258 157.288 190.739 156.939 190.068C156.591 189.394 156.416 188.597 156.416 187.676C156.416 186.778 156.591 185.991 156.939 185.312C157.288 184.634 157.778 184.106 158.411 183.727C159.047 183.348 159.793 183.159 160.649 183.159C161.225 183.159 161.761 183.252 162.257 183.438C162.757 183.619 163.193 183.894 163.564 184.261C163.939 184.629 164.231 185.091 164.439 185.648C164.648 186.201 164.752 186.848 164.752 187.591V188.256H157.382V186.756H162.473C162.473 186.407 162.398 186.098 162.246 185.83C162.095 185.561 161.884 185.35 161.615 185.199C161.35 185.044 161.041 184.966 160.689 184.966C160.322 184.966 159.996 185.051 159.712 185.222C159.432 185.388 159.212 185.614 159.053 185.898C158.894 186.178 158.812 186.491 158.809 186.835V188.261C158.809 188.693 158.888 189.066 159.047 189.381C159.21 189.695 159.439 189.938 159.735 190.108C160.03 190.278 160.381 190.364 160.786 190.364C161.055 190.364 161.301 190.326 161.524 190.25C161.748 190.174 161.939 190.061 162.098 189.909C162.257 189.758 162.379 189.572 162.462 189.352L164.701 189.5C164.587 190.038 164.354 190.508 164.002 190.909C163.653 191.307 163.202 191.617 162.649 191.841C162.1 192.061 161.466 192.17 160.746 192.17ZM166.377 192V180.364H174.081V182.392H168.837V185.165H173.57V187.193H168.837V192H166.377ZM175.691 192V183.273H178.111V192H175.691ZM176.907 182.148C176.547 182.148 176.238 182.028 175.98 181.79C175.727 181.547 175.6 181.258 175.6 180.92C175.6 180.587 175.727 180.301 175.98 180.062C176.238 179.82 176.547 179.699 176.907 179.699C177.266 179.699 177.573 179.82 177.827 180.062C178.085 180.301 178.213 180.587 178.213 180.92C178.213 181.258 178.085 181.547 177.827 181.79C177.573 182.028 177.266 182.148 176.907 182.148ZM182.47 186.955V192H180.05V183.273H182.357V184.812H182.459C182.652 184.305 182.976 183.903 183.431 183.608C183.885 183.309 184.436 183.159 185.084 183.159C185.69 183.159 186.219 183.292 186.669 183.557C187.12 183.822 187.47 184.201 187.72 184.693C187.97 185.182 188.095 185.765 188.095 186.443V192H185.675V186.875C185.679 186.341 185.542 185.924 185.266 185.625C184.989 185.322 184.609 185.17 184.124 185.17C183.798 185.17 183.51 185.241 183.26 185.381C183.014 185.521 182.821 185.725 182.681 185.994C182.544 186.259 182.474 186.58 182.47 186.955ZM197.265 185.761L195.049 185.898C195.011 185.708 194.929 185.538 194.804 185.386C194.679 185.231 194.515 185.108 194.31 185.017C194.109 184.922 193.869 184.875 193.588 184.875C193.213 184.875 192.897 184.955 192.64 185.114C192.382 185.269 192.253 185.477 192.253 185.739C192.253 185.947 192.336 186.123 192.503 186.267C192.67 186.411 192.956 186.527 193.361 186.614L194.941 186.932C195.789 187.106 196.422 187.386 196.838 187.773C197.255 188.159 197.463 188.667 197.463 189.295C197.463 189.867 197.295 190.369 196.958 190.801C196.624 191.233 196.166 191.57 195.583 191.812C195.003 192.051 194.335 192.17 193.577 192.17C192.422 192.17 191.501 191.93 190.816 191.449C190.134 190.964 189.734 190.305 189.617 189.472L191.997 189.347C192.069 189.699 192.244 189.968 192.52 190.153C192.797 190.335 193.151 190.426 193.583 190.426C194.007 190.426 194.348 190.345 194.605 190.182C194.867 190.015 194.999 189.801 195.003 189.54C194.999 189.32 194.907 189.14 194.725 189C194.543 188.856 194.263 188.746 193.884 188.67L192.372 188.369C191.52 188.199 190.886 187.903 190.469 187.483C190.056 187.062 189.85 186.527 189.85 185.875C189.85 185.314 190.001 184.831 190.304 184.426C190.611 184.021 191.041 183.708 191.594 183.489C192.151 183.269 192.802 183.159 193.549 183.159C194.651 183.159 195.518 183.392 196.151 183.858C196.787 184.324 197.158 184.958 197.265 185.761Z" fill="black"/>
<ellipse cx="99.4333" cy="258" rx="22.4849" ry="22" fill="#D9D9D9"/>
<path d="M137.237 252.71C137.191 252.252 136.996 251.896 136.651 251.642C136.307 251.388 135.839 251.261 135.248 251.261C134.847 251.261 134.508 251.318 134.231 251.432C133.955 251.542 133.742 251.695 133.595 251.892C133.451 252.089 133.379 252.312 133.379 252.562C133.371 252.771 133.415 252.953 133.509 253.108C133.608 253.263 133.742 253.398 133.913 253.511C134.083 253.621 134.28 253.718 134.504 253.801C134.727 253.881 134.966 253.949 135.22 254.006L136.265 254.256C136.773 254.369 137.239 254.521 137.663 254.71C138.087 254.9 138.455 255.133 138.765 255.409C139.076 255.686 139.316 256.011 139.487 256.386C139.661 256.761 139.75 257.191 139.754 257.676C139.75 258.388 139.568 259.006 139.208 259.528C138.852 260.047 138.337 260.451 137.663 260.739C136.992 261.023 136.184 261.165 135.237 261.165C134.297 261.165 133.479 261.021 132.782 260.733C132.089 260.445 131.547 260.019 131.157 259.455C130.771 258.886 130.568 258.184 130.549 257.347H132.93C132.956 257.737 133.068 258.062 133.265 258.324C133.466 258.581 133.733 258.777 134.066 258.909C134.403 259.038 134.784 259.102 135.208 259.102C135.625 259.102 135.987 259.042 136.294 258.92C136.604 258.799 136.845 258.631 137.015 258.415C137.186 258.199 137.271 257.951 137.271 257.67C137.271 257.409 137.193 257.189 137.038 257.011C136.886 256.833 136.663 256.682 136.367 256.557C136.076 256.432 135.718 256.318 135.294 256.216L134.026 255.898C133.045 255.659 132.271 255.286 131.703 254.778C131.134 254.271 130.852 253.587 130.856 252.727C130.852 252.023 131.04 251.407 131.419 250.881C131.801 250.354 132.326 249.943 132.992 249.648C133.659 249.352 134.417 249.205 135.265 249.205C136.129 249.205 136.883 249.352 137.526 249.648C138.174 249.943 138.678 250.354 139.038 250.881C139.398 251.407 139.583 252.017 139.595 252.71H137.237ZM146.005 252.273V254.091H140.749V252.273H146.005ZM141.943 250.182H144.363V258.318C144.363 258.542 144.397 258.716 144.465 258.841C144.534 258.962 144.628 259.047 144.749 259.097C144.874 259.146 145.018 259.17 145.181 259.17C145.295 259.17 145.409 259.161 145.522 259.142C145.636 259.119 145.723 259.102 145.784 259.091L146.164 260.892C146.043 260.93 145.873 260.973 145.653 261.023C145.433 261.076 145.166 261.108 144.852 261.119C144.268 261.142 143.757 261.064 143.318 260.886C142.882 260.708 142.543 260.432 142.301 260.057C142.058 259.682 141.939 259.208 141.943 258.636V250.182ZM151.465 261.17C150.568 261.17 149.795 260.989 149.147 260.625C148.503 260.258 148.007 259.739 147.659 259.068C147.31 258.394 147.136 257.597 147.136 256.676C147.136 255.778 147.31 254.991 147.659 254.312C148.007 253.634 148.498 253.106 149.13 252.727C149.767 252.348 150.513 252.159 151.369 252.159C151.945 252.159 152.481 252.252 152.977 252.438C153.477 252.619 153.912 252.894 154.284 253.261C154.659 253.629 154.95 254.091 155.159 254.648C155.367 255.201 155.471 255.848 155.471 256.591V257.256H148.102V255.756H153.193C153.193 255.407 153.117 255.098 152.965 254.83C152.814 254.561 152.604 254.35 152.335 254.199C152.07 254.044 151.761 253.966 151.409 253.966C151.041 253.966 150.715 254.051 150.431 254.222C150.151 254.388 149.931 254.614 149.772 254.898C149.613 255.178 149.532 255.491 149.528 255.835V257.261C149.528 257.693 149.607 258.066 149.767 258.381C149.929 258.695 150.159 258.938 150.454 259.108C150.749 259.278 151.1 259.364 151.505 259.364C151.774 259.364 152.02 259.326 152.244 259.25C152.467 259.174 152.659 259.061 152.818 258.909C152.977 258.758 153.098 258.572 153.181 258.352L155.42 258.5C155.306 259.038 155.073 259.508 154.721 259.909C154.373 260.307 153.922 260.617 153.369 260.841C152.82 261.061 152.185 261.17 151.465 261.17ZM164.953 252.273L161.901 261H159.174L156.123 252.273H158.68L160.492 258.517H160.583L162.39 252.273H164.953ZM169.887 261.17C168.99 261.17 168.217 260.989 167.569 260.625C166.925 260.258 166.429 259.739 166.08 259.068C165.732 258.394 165.558 257.597 165.558 256.676C165.558 255.778 165.732 254.991 166.08 254.312C166.429 253.634 166.919 253.106 167.552 252.727C168.188 252.348 168.935 252.159 169.791 252.159C170.366 252.159 170.902 252.252 171.399 252.438C171.899 252.619 172.334 252.894 172.705 253.261C173.08 253.629 173.372 254.091 173.58 254.648C173.789 255.201 173.893 255.848 173.893 256.591V257.256H166.524V255.756H171.615C171.615 255.407 171.539 255.098 171.387 254.83C171.236 254.561 171.026 254.35 170.757 254.199C170.491 254.044 170.183 253.966 169.83 253.966C169.463 253.966 169.137 254.051 168.853 254.222C168.573 254.388 168.353 254.614 168.194 254.898C168.035 255.178 167.954 255.491 167.95 255.835V257.261C167.95 257.693 168.029 258.066 168.188 258.381C168.351 258.695 168.58 258.938 168.876 259.108C169.171 259.278 169.522 259.364 169.927 259.364C170.196 259.364 170.442 259.326 170.666 259.25C170.889 259.174 171.08 259.061 171.24 258.909C171.399 258.758 171.52 258.572 171.603 258.352L173.842 258.5C173.728 259.038 173.495 259.508 173.143 259.909C172.794 260.307 172.344 260.617 171.791 260.841C171.241 261.061 170.607 261.17 169.887 261.17Z" fill="black"/>
<ellipse cx="102.431" cy="331" rx="22.4849" ry="22" fill="#D9D9D9"/>
<path d="M138.581 322.364H141.013V330.477C141.013 331.227 140.845 331.879 140.507 332.432C140.174 332.985 139.71 333.411 139.115 333.71C138.521 334.009 137.829 334.159 137.042 334.159C136.341 334.159 135.704 334.036 135.132 333.79C134.564 333.54 134.114 333.161 133.78 332.653C133.447 332.142 133.282 331.5 133.286 330.727H135.735C135.742 331.034 135.805 331.297 135.922 331.517C136.043 331.733 136.208 331.9 136.417 332.017C136.629 332.131 136.879 332.188 137.167 332.188C137.47 332.188 137.725 332.123 137.934 331.994C138.146 331.862 138.307 331.669 138.417 331.415C138.526 331.161 138.581 330.848 138.581 330.477V322.364ZM145.422 328.955V334H143.002V322.364H145.354V326.812H145.456C145.653 326.297 145.971 325.894 146.411 325.602C146.85 325.307 147.401 325.159 148.064 325.159C148.67 325.159 149.199 325.292 149.65 325.557C150.104 325.818 150.456 326.195 150.706 326.688C150.96 327.176 151.085 327.761 151.081 328.443V334H148.661V328.875C148.665 328.337 148.528 327.919 148.252 327.619C147.979 327.32 147.596 327.17 147.104 327.17C146.775 327.17 146.483 327.241 146.229 327.381C145.979 327.521 145.782 327.725 145.638 327.994C145.498 328.259 145.426 328.58 145.422 328.955ZM156.929 334.17C156.047 334.17 155.284 333.983 154.64 333.608C153.999 333.229 153.505 332.703 153.157 332.028C152.808 331.35 152.634 330.564 152.634 329.67C152.634 328.769 152.808 327.981 153.157 327.307C153.505 326.629 153.999 326.102 154.64 325.727C155.284 325.348 156.047 325.159 156.929 325.159C157.812 325.159 158.573 325.348 159.213 325.727C159.857 326.102 160.354 326.629 160.702 327.307C161.051 327.981 161.225 328.769 161.225 329.67C161.225 330.564 161.051 331.35 160.702 332.028C160.354 332.703 159.857 333.229 159.213 333.608C158.573 333.983 157.812 334.17 156.929 334.17ZM156.941 332.295C157.342 332.295 157.677 332.182 157.946 331.955C158.215 331.723 158.418 331.409 158.554 331.011C158.695 330.614 158.765 330.161 158.765 329.653C158.765 329.146 158.695 328.693 158.554 328.295C158.418 327.898 158.215 327.583 157.946 327.352C157.677 327.121 157.342 327.006 156.941 327.006C156.535 327.006 156.195 327.121 155.918 327.352C155.645 327.583 155.439 327.898 155.299 328.295C155.162 328.693 155.094 329.146 155.094 329.653C155.094 330.161 155.162 330.614 155.299 331.011C155.439 331.409 155.645 331.723 155.918 331.955C156.195 332.182 156.535 332.295 156.941 332.295ZM165.219 328.955V334H162.799V325.273H165.105V326.812H165.208C165.401 326.305 165.725 325.903 166.179 325.608C166.634 325.309 167.185 325.159 167.833 325.159C168.439 325.159 168.967 325.292 169.418 325.557C169.869 325.822 170.219 326.201 170.469 326.693C170.719 327.182 170.844 327.765 170.844 328.443V334H168.424V328.875C168.427 328.341 168.291 327.924 168.015 327.625C167.738 327.322 167.357 327.17 166.873 327.17C166.547 327.17 166.259 327.241 166.009 327.381C165.763 327.521 165.57 327.725 165.429 327.994C165.293 328.259 165.223 328.58 165.219 328.955Z" fill="black"/>
<ellipse cx="100.433" cy="401" rx="22.4849" ry="22" fill="#D9D9D9"/>
<path d="M131.924 404V392.364H134.384V401.972H139.372V404H131.924ZM146.553 400.284V395.273H148.973V404H146.649V402.415H146.559C146.362 402.926 146.034 403.337 145.576 403.648C145.121 403.958 144.566 404.114 143.911 404.114C143.327 404.114 142.814 403.981 142.371 403.716C141.928 403.451 141.581 403.074 141.331 402.585C141.085 402.097 140.96 401.511 140.956 400.83V395.273H143.377V400.398C143.381 400.913 143.519 401.32 143.791 401.619C144.064 401.919 144.43 402.068 144.888 402.068C145.18 402.068 145.452 402.002 145.706 401.869C145.96 401.733 146.165 401.532 146.32 401.267C146.479 401.002 146.557 400.674 146.553 400.284ZM154.853 404.17C153.959 404.17 153.19 403.981 152.546 403.602C151.906 403.22 151.413 402.689 151.068 402.011C150.728 401.333 150.557 400.553 150.557 399.67C150.557 398.777 150.729 397.992 151.074 397.318C151.423 396.64 151.917 396.112 152.557 395.733C153.197 395.35 153.959 395.159 154.841 395.159C155.603 395.159 156.269 395.297 156.841 395.574C157.413 395.85 157.866 396.239 158.199 396.739C158.532 397.239 158.716 397.826 158.75 398.5H156.466C156.402 398.064 156.231 397.714 155.955 397.449C155.682 397.18 155.324 397.045 154.881 397.045C154.506 397.045 154.178 397.148 153.898 397.352C153.622 397.553 153.406 397.847 153.25 398.233C153.095 398.619 153.017 399.087 153.017 399.636C153.017 400.193 153.093 400.667 153.245 401.057C153.4 401.447 153.618 401.744 153.898 401.949C154.178 402.153 154.506 402.256 154.881 402.256C155.157 402.256 155.406 402.199 155.625 402.085C155.849 401.972 156.032 401.807 156.176 401.591C156.324 401.371 156.421 401.108 156.466 400.801H158.75C158.712 401.468 158.531 402.055 158.205 402.562C157.883 403.066 157.438 403.46 156.87 403.744C156.301 404.028 155.629 404.17 154.853 404.17ZM162.789 404.165C162.232 404.165 161.736 404.068 161.3 403.875C160.864 403.678 160.52 403.388 160.266 403.006C160.016 402.619 159.891 402.138 159.891 401.562C159.891 401.078 159.98 400.67 160.158 400.341C160.336 400.011 160.578 399.746 160.885 399.545C161.192 399.345 161.541 399.193 161.931 399.091C162.325 398.989 162.738 398.917 163.169 398.875C163.677 398.822 164.086 398.773 164.397 398.727C164.707 398.678 164.933 398.606 165.073 398.511C165.213 398.417 165.283 398.277 165.283 398.091V398.057C165.283 397.697 165.169 397.419 164.942 397.222C164.719 397.025 164.4 396.926 163.988 396.926C163.552 396.926 163.205 397.023 162.948 397.216C162.69 397.405 162.52 397.644 162.436 397.932L160.198 397.75C160.311 397.22 160.535 396.761 160.868 396.375C161.202 395.985 161.631 395.686 162.158 395.477C162.688 395.265 163.302 395.159 163.999 395.159C164.484 395.159 164.948 395.216 165.391 395.33C165.838 395.443 166.234 395.619 166.578 395.858C166.927 396.097 167.202 396.403 167.402 396.778C167.603 397.15 167.703 397.595 167.703 398.114V404H165.408V402.79H165.34C165.2 403.062 165.012 403.303 164.777 403.511C164.542 403.716 164.26 403.877 163.931 403.994C163.601 404.108 163.22 404.165 162.789 404.165ZM163.482 402.494C163.838 402.494 164.152 402.424 164.425 402.284C164.698 402.14 164.912 401.947 165.067 401.705C165.222 401.462 165.3 401.187 165.3 400.881V399.955C165.224 400.004 165.12 400.049 164.988 400.091C164.859 400.129 164.713 400.165 164.55 400.199C164.387 400.229 164.224 400.258 164.061 400.284C163.899 400.307 163.751 400.328 163.618 400.347C163.334 400.388 163.086 400.455 162.874 400.545C162.662 400.636 162.497 400.759 162.38 400.915C162.262 401.066 162.203 401.256 162.203 401.483C162.203 401.812 162.323 402.064 162.561 402.239C162.804 402.409 163.111 402.494 163.482 402.494ZM176.843 397.761L174.627 397.898C174.589 397.708 174.507 397.538 174.382 397.386C174.257 397.231 174.093 397.108 173.888 397.017C173.687 396.922 173.447 396.875 173.166 396.875C172.791 396.875 172.475 396.955 172.218 397.114C171.96 397.269 171.831 397.477 171.831 397.739C171.831 397.947 171.915 398.123 172.081 398.267C172.248 398.411 172.534 398.527 172.939 398.614L174.519 398.932C175.367 399.106 176 399.386 176.416 399.773C176.833 400.159 177.041 400.667 177.041 401.295C177.041 401.867 176.873 402.369 176.536 402.801C176.202 403.233 175.744 403.57 175.161 403.812C174.581 404.051 173.913 404.17 173.155 404.17C172 404.17 171.079 403.93 170.394 403.449C169.712 402.964 169.312 402.305 169.195 401.472L171.576 401.347C171.648 401.699 171.822 401.968 172.098 402.153C172.375 402.335 172.729 402.426 173.161 402.426C173.585 402.426 173.926 402.345 174.184 402.182C174.445 402.015 174.577 401.801 174.581 401.54C174.577 401.32 174.485 401.14 174.303 401C174.121 400.856 173.841 400.746 173.462 400.67L171.951 400.369C171.098 400.199 170.464 399.903 170.047 399.483C169.634 399.062 169.428 398.527 169.428 397.875C169.428 397.314 169.579 396.831 169.882 396.426C170.189 396.021 170.619 395.708 171.172 395.489C171.729 395.269 172.381 395.159 173.127 395.159C174.229 395.159 175.096 395.392 175.729 395.858C176.365 396.324 176.737 396.958 176.843 397.761Z" fill="black"/>
<ellipse cx="100.433" cy="471" rx="22.4849" ry="22" fill="#D9D9D9"/>
<path d="M131.924 462.364H134.958L138.162 470.182H138.299L141.503 462.364H144.537V474H142.151V466.426H142.054L139.043 473.943H137.418L134.407 466.398H134.31V474H131.924V462.364ZM150.496 474.17C149.598 474.17 148.826 473.989 148.178 473.625C147.534 473.258 147.038 472.739 146.689 472.068C146.341 471.394 146.166 470.597 146.166 469.676C146.166 468.778 146.341 467.991 146.689 467.312C147.038 466.634 147.528 466.106 148.161 465.727C148.797 465.348 149.543 465.159 150.399 465.159C150.975 465.159 151.511 465.252 152.007 465.438C152.507 465.619 152.943 465.894 153.314 466.261C153.689 466.629 153.981 467.091 154.189 467.648C154.398 468.201 154.502 468.848 154.502 469.591V470.256H147.132V468.756H152.223C152.223 468.407 152.148 468.098 151.996 467.83C151.845 467.561 151.634 467.35 151.365 467.199C151.1 467.044 150.791 466.966 150.439 466.966C150.072 466.966 149.746 467.051 149.462 467.222C149.182 467.388 148.962 467.614 148.803 467.898C148.644 468.178 148.562 468.491 148.559 468.835V470.261C148.559 470.693 148.638 471.066 148.797 471.381C148.96 471.695 149.189 471.938 149.485 472.108C149.78 472.278 150.131 472.364 150.536 472.364C150.805 472.364 151.051 472.326 151.274 472.25C151.498 472.174 151.689 472.061 151.848 471.909C152.007 471.758 152.129 471.572 152.212 471.352L154.451 471.5C154.337 472.038 154.104 472.508 153.752 472.909C153.403 473.307 152.952 473.617 152.399 473.841C151.85 474.061 151.216 474.17 150.496 474.17ZM158.502 462.364V474H156.081V462.364H158.502ZM162.861 462.364V474H160.441V462.364H162.861ZM172.061 467.761L169.845 467.898C169.808 467.708 169.726 467.538 169.601 467.386C169.476 467.231 169.311 467.108 169.107 467.017C168.906 466.922 168.666 466.875 168.385 466.875C168.01 466.875 167.694 466.955 167.436 467.114C167.179 467.269 167.05 467.477 167.05 467.739C167.05 467.947 167.133 468.123 167.3 468.267C167.467 468.411 167.753 468.527 168.158 468.614L169.738 468.932C170.586 469.106 171.219 469.386 171.635 469.773C172.052 470.159 172.26 470.667 172.26 471.295C172.26 471.867 172.092 472.369 171.755 472.801C171.421 473.233 170.963 473.57 170.38 473.812C169.8 474.051 169.131 474.17 168.374 474.17C167.219 474.17 166.298 473.93 165.613 473.449C164.931 472.964 164.531 472.305 164.414 471.472L166.794 471.347C166.866 471.699 167.041 471.968 167.317 472.153C167.594 472.335 167.948 472.426 168.38 472.426C168.804 472.426 169.145 472.345 169.402 472.182C169.664 472.015 169.796 471.801 169.8 471.54C169.796 471.32 169.703 471.14 169.522 471C169.34 470.856 169.059 470.746 168.681 470.67L167.169 470.369C166.317 470.199 165.683 469.903 165.266 469.483C164.853 469.062 164.647 468.527 164.647 467.875C164.647 467.314 164.798 466.831 165.101 466.426C165.408 466.021 165.838 465.708 166.391 465.489C166.948 465.269 167.599 465.159 168.345 465.159C169.448 465.159 170.315 465.392 170.948 465.858C171.584 466.324 171.955 466.958 172.061 467.761Z" fill="black"/>
<ellipse cx="102.431" cy="541" rx="22.4849" ry="22" fill="#D9D9D9"/>
<path d="M133.922 532.364H136.956L140.161 540.182H140.297L143.502 532.364H146.536V544H144.15V536.426H144.053L141.042 543.943H139.417L136.405 536.398H136.309V544H133.922V532.364ZM152.461 544.17C151.578 544.17 150.815 543.983 150.171 543.608C149.531 543.229 149.036 542.703 148.688 542.028C148.339 541.35 148.165 540.564 148.165 539.67C148.165 538.769 148.339 537.981 148.688 537.307C149.036 536.629 149.531 536.102 150.171 535.727C150.815 535.348 151.578 535.159 152.461 535.159C153.343 535.159 154.105 535.348 154.745 535.727C155.389 536.102 155.885 536.629 156.233 537.307C156.582 537.981 156.756 538.769 156.756 539.67C156.756 540.564 156.582 541.35 156.233 542.028C155.885 542.703 155.389 543.229 154.745 543.608C154.105 543.983 153.343 544.17 152.461 544.17ZM152.472 542.295C152.873 542.295 153.209 542.182 153.478 541.955C153.747 541.723 153.949 541.409 154.086 541.011C154.226 540.614 154.296 540.161 154.296 539.653C154.296 539.146 154.226 538.693 154.086 538.295C153.949 537.898 153.747 537.583 153.478 537.352C153.209 537.121 152.873 537.006 152.472 537.006C152.067 537.006 151.726 537.121 151.449 537.352C151.177 537.583 150.97 537.898 150.83 538.295C150.694 538.693 150.625 539.146 150.625 539.653C150.625 540.161 150.694 540.614 150.83 541.011C150.97 541.409 151.177 541.723 151.449 541.955C151.726 542.182 152.067 542.295 152.472 542.295ZM158.33 544V535.273H160.637V536.812H160.739C160.921 536.301 161.224 535.898 161.648 535.602C162.072 535.307 162.58 535.159 163.171 535.159C163.769 535.159 164.279 535.309 164.699 535.608C165.12 535.903 165.4 536.305 165.54 536.812H165.631C165.809 536.312 166.131 535.913 166.597 535.614C167.067 535.311 167.622 535.159 168.262 535.159C169.076 535.159 169.737 535.419 170.245 535.938C170.756 536.453 171.012 537.184 171.012 538.131V544H168.597V538.608C168.597 538.123 168.468 537.759 168.211 537.517C167.953 537.275 167.631 537.153 167.245 537.153C166.805 537.153 166.462 537.294 166.216 537.574C165.97 537.85 165.847 538.216 165.847 538.67V544H163.5V538.557C163.5 538.129 163.377 537.788 163.131 537.534C162.889 537.28 162.569 537.153 162.171 537.153C161.902 537.153 161.659 537.222 161.444 537.358C161.231 537.491 161.063 537.678 160.938 537.92C160.813 538.159 160.75 538.439 160.75 538.761V544H158.33Z" fill="black"/>
<ellipse cx="99.4333" cy="611" rx="22.4849" ry="22" fill="#D9D9D9"/>
<path d="M135.049 614H130.924V602.364H135.083C136.254 602.364 137.261 602.597 138.106 603.062C138.951 603.525 139.6 604.189 140.055 605.057C140.513 605.924 140.742 606.962 140.742 608.17C140.742 609.383 140.513 610.424 140.055 611.295C139.6 612.167 138.947 612.835 138.095 613.301C137.246 613.767 136.231 614 135.049 614ZM133.384 611.892H134.947C135.674 611.892 136.286 611.763 136.782 611.506C137.282 611.244 137.657 610.841 137.907 610.295C138.161 609.746 138.288 609.038 138.288 608.17C138.288 607.311 138.161 606.608 137.907 606.062C137.657 605.517 137.284 605.116 136.788 604.858C136.292 604.6 135.68 604.472 134.953 604.472H133.384V611.892ZM145.008 614.165C144.451 614.165 143.955 614.068 143.519 613.875C143.084 613.678 142.739 613.388 142.485 613.006C142.235 612.619 142.11 612.138 142.11 611.562C142.11 611.078 142.199 610.67 142.377 610.341C142.555 610.011 142.798 609.746 143.105 609.545C143.411 609.345 143.76 609.193 144.15 609.091C144.544 608.989 144.957 608.917 145.389 608.875C145.896 608.822 146.305 608.773 146.616 608.727C146.927 608.678 147.152 608.606 147.292 608.511C147.432 608.417 147.502 608.277 147.502 608.091V608.057C147.502 607.697 147.389 607.419 147.161 607.222C146.938 607.025 146.62 606.926 146.207 606.926C145.771 606.926 145.425 607.023 145.167 607.216C144.91 607.405 144.739 607.644 144.656 607.932L142.417 607.75C142.531 607.22 142.754 606.761 143.088 606.375C143.421 605.985 143.851 605.686 144.377 605.477C144.908 605.265 145.521 605.159 146.218 605.159C146.703 605.159 147.167 605.216 147.61 605.33C148.057 605.443 148.453 605.619 148.798 605.858C149.146 606.097 149.421 606.403 149.622 606.778C149.822 607.15 149.923 607.595 149.923 608.114V614H147.627V612.79H147.559C147.419 613.062 147.231 613.303 146.997 613.511C146.762 613.716 146.48 613.877 146.15 613.994C145.821 614.108 145.44 614.165 145.008 614.165ZM145.701 612.494C146.057 612.494 146.372 612.424 146.644 612.284C146.917 612.14 147.131 611.947 147.286 611.705C147.442 611.462 147.519 611.187 147.519 610.881V609.955C147.444 610.004 147.339 610.049 147.207 610.091C147.078 610.129 146.932 610.165 146.769 610.199C146.606 610.229 146.444 610.258 146.281 610.284C146.118 610.307 145.97 610.328 145.838 610.347C145.553 610.388 145.305 610.455 145.093 610.545C144.881 610.636 144.716 610.759 144.599 610.915C144.481 611.066 144.423 611.256 144.423 611.483C144.423 611.812 144.542 612.064 144.781 612.239C145.023 612.409 145.33 612.494 145.701 612.494ZM155.017 614.142C154.354 614.142 153.753 613.972 153.215 613.631C152.681 613.286 152.257 612.78 151.943 612.114C151.632 611.443 151.477 610.621 151.477 609.648C151.477 608.648 151.638 607.816 151.96 607.153C152.282 606.487 152.71 605.989 153.244 605.659C153.782 605.326 154.371 605.159 155.011 605.159C155.499 605.159 155.907 605.242 156.232 605.409C156.562 605.572 156.827 605.777 157.028 606.023C157.232 606.265 157.388 606.504 157.494 606.739H157.568V602.364H159.982V614H157.596V612.602H157.494C157.38 612.845 157.219 613.085 157.011 613.324C156.806 613.559 156.539 613.754 156.21 613.909C155.884 614.064 155.486 614.142 155.017 614.142ZM155.784 612.216C156.174 612.216 156.503 612.11 156.772 611.898C157.045 611.682 157.253 611.381 157.397 610.994C157.545 610.608 157.619 610.155 157.619 609.636C157.619 609.117 157.547 608.667 157.403 608.284C157.259 607.902 157.051 607.606 156.778 607.398C156.505 607.189 156.174 607.085 155.784 607.085C155.386 607.085 155.051 607.193 154.778 607.409C154.505 607.625 154.299 607.924 154.159 608.307C154.018 608.689 153.948 609.133 153.948 609.636C153.948 610.144 154.018 610.593 154.159 610.983C154.303 611.369 154.509 611.672 154.778 611.892C155.051 612.108 155.386 612.216 155.784 612.216Z" fill="black"/>
<path d="M95.3078 535.392C95.2538 535.291 95.1768 535.202 95.0822 535.132C94.9876 535.062 94.8776 535.013 94.76 534.987C94.6424 534.961 94.5201 534.959 94.4016 534.982C94.2831 535.005 94.1713 535.051 94.0741 535.119C93.8873 535.269 93.7482 535.465 93.6717 535.684C93.5952 535.903 93.5844 536.137 93.6403 536.361C93.7596 536.807 93.9669 537.228 94.2517 537.603C96.1868 540.511 98.8332 548.802 100.768 551.711C100.218 552.063 99.5824 552.279 98.9197 552.34C98.2571 552.401 97.5892 552.305 96.9782 552.06C96.6699 552.584 96.2097 553.016 95.6505 553.307C95.0914 553.598 94.4561 553.735 93.818 553.704C92.5157 553.639 91.3705 552.883 91.8374 553.713C90.2636 553.26 89.0119 552.143 89.5261 553.561C87.3937 552.39 85.624 544.626 86.288 542.193C86.3001 542.15 86.297 542.104 86.2792 542.063C86.2613 542.022 86.2297 541.988 86.189 541.965C86.1641 541.951 86.1423 541.933 86.1248 541.911C84.9481 540.442 85.3402 538.308 86.2665 536.678C87.2031 535.036 88.5952 533.641 89.4128 531.945C90.4934 529.693 90.5378 526.958 92.2905 525.108C93.4681 523.971 95.0388 523.261 96.7222 523.104C98.3918 522.955 100.074 522.991 101.733 523.211L101.612 522.964C103.019 521.957 105.105 522.203 106.589 523.098C108.007 524.092 109.192 525.346 110.071 526.785L112.76 530.561C113.637 531.795 117.059 537.23 117.399 538.678C117.607 539.395 117.601 540.152 117.384 540.868C117.166 541.584 116.744 542.232 116.163 542.742L115.63 540.43L115.783 540.548C114.798 544.204 115.22 551.502 113.982 550.517C115.056 552.808 113.866 552.466 105.257 552.952" fill="#090814"/>
<path d="M90.9941 537.638C90.8649 535.87 91.2631 534.102 92.1445 532.53C93.0258 530.958 94.3559 529.643 95.9868 528.732C97.6178 527.82 99.486 527.348 101.384 527.367C103.282 527.387 105.135 527.897 106.738 528.842C108.341 529.786 109.63 531.128 110.464 532.717C111.297 534.307 111.642 536.083 111.459 537.848C111.277 539.612 110.574 541.297 109.429 542.714C108.284 544.131 106.742 545.225 104.975 545.875L105.184 559.349L97.4638 553.991L93.2187 551.046C94.4708 549.263 95.4619 547.333 96.1654 545.307C94.6901 544.53 93.4455 543.422 92.543 542.084C91.6405 540.745 91.1083 539.218 90.9941 537.638L90.9941 537.638Z" fill="#ED9DA0"/>
<path d="M101.826 523.208C100.167 522.988 98.4847 522.952 96.8152 523.101C95.1317 523.258 93.5609 523.969 92.3835 525.106C90.63 526.954 90.5863 529.69 89.5019 531.941C88.6859 533.64 87.2885 535.032 86.3557 536.674C85.4294 538.306 85.0373 540.438 86.214 541.907C86.2314 541.928 86.2532 541.947 86.2782 541.961C86.3194 541.984 86.3514 542.019 86.3692 542.06C86.3869 542.102 86.3895 542.148 86.3765 542.191C86.0563 543.313 86.1293 544.499 86.585 545.577C87.0406 546.654 87.8548 547.565 88.9079 548.177L87.8367 545.313C88.3729 546.74 93.6534 553.395 93.6534 553.395C93.6534 553.395 96.1847 552.821 96.8136 551.752C97.4247 551.996 98.0925 552.093 98.7552 552.032C99.4178 551.971 100.054 551.754 100.604 551.403C98.6686 548.493 96.2806 540.512 94.3454 537.601C94.0607 537.227 93.8533 536.805 93.7341 536.359C93.6781 536.135 93.6889 535.901 93.7654 535.682C93.8419 535.463 93.981 535.268 94.1678 535.117C94.265 535.05 94.3768 535.003 94.4953 534.98C94.6138 534.957 94.7362 534.959 94.8537 534.985C94.9713 535.011 95.0813 535.061 95.1759 535.131C95.2705 535.201 95.3475 535.289 95.4015 535.39" fill="#090814"/>
<path d="M95.2808 535.357L104.878 527.835L112.15 538.773L111.987 531.769L103.687 524.648L97.1903 525.407L95.2808 535.357Z" fill="#090814"/>
<path d="M95.3078 465.392C95.2538 465.291 95.1768 465.202 95.0822 465.132C94.9876 465.062 94.8776 465.013 94.76 464.987C94.6424 464.961 94.5201 464.959 94.4016 464.982C94.2831 465.005 94.1713 465.051 94.0741 465.119C93.8873 465.269 93.7482 465.465 93.6717 465.684C93.5952 465.903 93.5844 466.137 93.6403 466.361C93.7596 466.807 93.9669 467.228 94.2517 467.603C96.1868 470.511 98.8332 478.802 100.768 481.711C100.218 482.063 99.5824 482.279 98.9197 482.34C98.2571 482.401 97.5892 482.305 96.9782 482.06C96.6699 482.584 96.2097 483.016 95.6505 483.307C95.0914 483.598 94.4561 483.735 93.818 483.704C92.5157 483.639 91.3705 482.883 91.8374 483.713C90.2636 483.26 89.0119 482.143 89.5261 483.561C87.3937 482.39 85.624 474.626 86.288 472.193C86.3001 472.15 86.297 472.104 86.2792 472.063C86.2613 472.022 86.2297 471.988 86.189 471.965C86.1641 471.951 86.1423 471.933 86.1248 471.911C84.9481 470.442 85.3402 468.308 86.2665 466.678C87.2031 465.036 88.5952 463.641 89.4128 461.945C90.4934 459.693 90.5378 456.958 92.2905 455.108C93.4681 453.971 95.0388 453.261 96.7222 453.104C98.3918 452.955 100.074 452.991 101.733 453.211L101.612 452.964C103.019 451.957 105.105 452.203 106.589 453.098C108.007 454.092 109.192 455.346 110.071 456.785L112.76 460.561C113.637 461.795 117.059 467.23 117.399 468.678C117.607 469.395 117.601 470.152 117.384 470.868C117.166 471.584 116.744 472.232 116.163 472.742L115.63 470.43L115.783 470.548C114.798 474.204 115.22 481.502 113.982 480.517C115.056 482.808 113.866 482.466 105.257 482.952" fill="#090814"/>
<path d="M90.9941 467.638C90.8649 465.87 91.2631 464.102 92.1445 462.53C93.0258 460.958 94.3559 459.643 95.9868 458.732C97.6178 457.82 99.486 457.348 101.384 457.367C103.282 457.387 105.135 457.897 106.738 458.842C108.341 459.786 109.63 461.128 110.464 462.717C111.297 464.307 111.642 466.083 111.459 467.848C111.277 469.612 110.574 471.297 109.429 472.714C108.284 474.131 106.742 475.225 104.975 475.875L105.184 489.349L97.4638 483.991L93.2187 481.046C94.4708 479.263 95.4619 477.333 96.1654 475.307C94.6901 474.53 93.4455 473.422 92.543 472.084C91.6405 470.745 91.1083 469.218 90.9941 467.638L90.9941 467.638Z" fill="#ED9DA0"/>
<path d="M101.826 453.208C100.167 452.988 98.4847 452.952 96.8152 453.101C95.1317 453.258 93.5609 453.969 92.3835 455.106C90.63 456.954 90.5863 459.69 89.5019 461.941C88.6859 463.64 87.2885 465.032 86.3557 466.674C85.4294 468.306 85.0373 470.438 86.214 471.907C86.2314 471.928 86.2532 471.947 86.2782 471.961C86.3194 471.984 86.3514 472.019 86.3692 472.06C86.3869 472.102 86.3895 472.148 86.3765 472.191C86.0563 473.313 86.1293 474.499 86.585 475.577C87.0406 476.654 87.8548 477.565 88.9079 478.177L87.8367 475.313C88.3729 476.74 93.6534 483.395 93.6534 483.395C93.6534 483.395 96.1847 482.821 96.8136 481.752C97.4247 481.996 98.0925 482.093 98.7552 482.032C99.4178 481.971 100.054 481.754 100.604 481.403C98.6686 478.493 96.2806 470.512 94.3454 467.601C94.0607 467.227 93.8533 466.805 93.7341 466.359C93.6781 466.135 93.6889 465.901 93.7654 465.682C93.8419 465.463 93.981 465.268 94.1678 465.117C94.265 465.05 94.3768 465.003 94.4953 464.98C94.6138 464.957 94.7362 464.959 94.8537 464.985C94.9713 465.011 95.0813 465.061 95.1759 465.131C95.2705 465.201 95.3475 465.289 95.4015 465.39" fill="#090814"/>
<path d="M95.2808 465.357L104.878 457.835L112.15 468.773L111.987 461.769L103.687 454.648L97.1903 455.407L95.2808 465.357Z" fill="#090814"/>
<path d="M95.3078 465.392C95.2538 465.291 95.1768 465.202 95.0822 465.132C94.9876 465.062 94.8776 465.013 94.76 464.987C94.6424 464.961 94.5201 464.959 94.4016 464.982C94.2831 465.005 94.1713 465.051 94.0741 465.119C93.8873 465.269 93.7482 465.465 93.6717 465.684C93.5952 465.903 93.5844 466.137 93.6403 466.361C93.7596 466.807 93.9669 467.228 94.2517 467.603C96.1868 470.511 98.8332 478.802 100.768 481.711C100.218 482.063 99.5824 482.279 98.9197 482.34C98.2571 482.401 97.5892 482.305 96.9782 482.06C96.6699 482.584 96.2097 483.016 95.6505 483.307C95.0914 483.598 94.4561 483.735 93.818 483.704C92.5157 483.639 91.3705 482.883 91.8374 483.713C90.2636 483.26 89.0119 482.143 89.5261 483.561C87.3937 482.39 85.624 474.626 86.288 472.193C86.3001 472.15 86.297 472.104 86.2792 472.063C86.2613 472.022 86.2297 471.988 86.189 471.965C86.1641 471.951 86.1423 471.933 86.1248 471.911C84.9481 470.442 85.3402 468.308 86.2665 466.678C87.2031 465.036 88.5952 463.641 89.4128 461.945C90.4934 459.693 90.5378 456.958 92.2905 455.108C93.4681 453.971 95.0388 453.261 96.7222 453.104C98.3918 452.955 100.074 452.991 101.733 453.211L101.612 452.964C103.019 451.957 105.105 452.203 106.589 453.098C108.007 454.092 109.192 455.346 110.071 456.785L112.76 460.561C113.637 461.795 117.059 467.23 117.399 468.678C117.607 469.395 117.601 470.152 117.384 470.868C117.166 471.584 116.744 472.232 116.163 472.742L115.63 470.43L115.783 470.548C114.798 474.204 115.22 481.502 113.982 480.517C115.056 482.808 113.866 482.466 105.257 482.952" fill="#090814"/>
<path d="M90.9941 467.638C90.8649 465.87 91.2631 464.102 92.1445 462.53C93.0258 460.958 94.3559 459.643 95.9868 458.732C97.6178 457.82 99.486 457.348 101.384 457.367C103.282 457.387 105.135 457.897 106.738 458.842C108.341 459.786 109.63 461.128 110.464 462.717C111.297 464.307 111.642 466.083 111.459 467.848C111.277 469.612 110.574 471.297 109.429 472.714C108.284 474.131 106.742 475.225 104.975 475.875L105.184 489.349L97.4638 483.991L93.2187 481.046C94.4708 479.263 95.4619 477.333 96.1654 475.307C94.6901 474.53 93.4455 473.422 92.543 472.084C91.6405 470.745 91.1083 469.218 90.9941 467.638L90.9941 467.638Z" fill="#ED9DA0"/>
<path d="M101.826 453.208C100.167 452.988 98.4847 452.952 96.8152 453.101C95.1317 453.258 93.5609 453.969 92.3835 455.106C90.63 456.954 90.5863 459.69 89.5019 461.941C88.6859 463.64 87.2885 465.032 86.3557 466.674C85.4294 468.306 85.0373 470.438 86.214 471.907C86.2314 471.928 86.2532 471.947 86.2782 471.961C86.3194 471.984 86.3514 472.019 86.3692 472.06C86.3869 472.102 86.3895 472.148 86.3765 472.191C86.0563 473.313 86.1293 474.499 86.585 475.577C87.0406 476.654 87.8548 477.565 88.9079 478.177L87.8367 475.313C88.3729 476.74 93.6534 483.395 93.6534 483.395C93.6534 483.395 96.1847 482.821 96.8136 481.752C97.4247 481.996 98.0925 482.093 98.7552 482.032C99.4178 481.971 100.054 481.754 100.604 481.403C98.6686 478.493 96.2806 470.512 94.3454 467.601C94.0607 467.227 93.8533 466.805 93.7341 466.359C93.6781 466.135 93.6889 465.901 93.7654 465.682C93.8419 465.463 93.981 465.268 94.1678 465.117C94.265 465.05 94.3768 465.003 94.4953 464.98C94.6138 464.957 94.7362 464.959 94.8537 464.985C94.9713 465.011 95.0813 465.061 95.1759 465.131C95.2705 465.201 95.3475 465.289 95.4015 465.39" fill="#090814"/>
<path d="M95.2808 465.357L104.878 457.835L112.15 468.773L111.987 461.769L103.687 454.648L97.1903 455.407L95.2808 465.357Z" fill="#090814"/>
<g clip-path="url(#clip1_55_312)">
<path d="M110.344 191.545C110.407 191.674 110.451 191.747 110.48 191.764C110.47 191.802 110.456 191.839 110.44 191.877C110.437 191.87 110.428 191.867 110.414 191.87C110.38 191.878 110.072 192.036 109.728 192.22C109.385 192.404 108.932 192.589 108.72 192.63C108.289 192.716 108.16 192.856 108.367 192.914C108.339 192.913 108.311 192.912 108.284 192.91C107.341 192.835 106.207 193.093 105.931 193.445C105.675 193.771 104.486 194.569 103.955 194.769C103.51 194.939 103.243 195.38 103.469 195.573C103.549 195.641 103.922 195.791 104.297 195.904C105.519 196.274 107.223 197.407 107.704 198.171C107.92 198.513 107.847 198.973 107.534 199.304C107.536 199.212 107.185 199.194 106.524 199.313C105.748 199.454 104.425 199.532 104.24 199.449C104.182 199.423 104.053 199.429 103.951 199.463C103.809 199.51 103.827 199.536 104.09 199.607C103.015 199.421 101.663 199.147 100.81 198.938C100.244 198.801 99.6742 198.683 99.5443 198.678C99.2245 198.666 98.4326 199.175 98.1337 199.583C98.0014 199.766 97.5527 200.145 97.1373 200.426C96.6398 200.763 96.2159 201.164 95.8938 201.603C95.5138 202.12 95.2753 202.329 94.8266 202.534C93.9796 202.922 92.7252 203.245 92.2168 203.206C91.2742 203.133 89.7829 202.237 89.4879 201.565C89.2335 200.987 88.7992 198.931 88.7471 198.059C88.6662 196.695 88.8973 195.674 89.6308 194.152L90.2378 192.893L89.6556 192.212C88.7523 191.155 88.248 190.424 87.8654 189.618C87.4466 188.734 87.2308 187.405 87.4118 186.819C87.5963 186.218 87.8038 186.24 89.5763 187.039C90.8521 187.614 91.0249 187.716 91.5081 188.179C91.7991 188.458 92.1768 188.916 92.3468 189.197C92.5162 189.477 92.8055 189.804 92.9883 189.923C93.3582 190.161 93.394 190.154 94.4657 189.602C94.7856 189.437 95.4713 189.128 95.9896 188.915L96.9316 188.529L97.4391 187.409C97.8623 186.477 98.0231 186.228 98.4077 185.91C98.9875 185.432 99.5233 185.205 99.789 185.325C99.9022 185.376 100.19 185.688 100.431 186.02C100.681 186.365 100.894 186.582 101.131 186.694C100.964 186.659 100.812 186.656 100.789 186.705C100.714 186.872 101.053 187.047 101.349 186.993C101.527 186.961 101.604 186.903 101.537 186.85C101.504 186.823 101.456 186.797 101.4 186.774C101.618 186.807 101.868 186.772 102.186 186.687C102.787 186.524 104.779 185.337 104.9 185.068C104.938 184.986 104.869 184.339 104.748 183.631C104.558 182.507 104.581 181.519 104.801 181.468C104.84 181.459 104.993 181.575 105.139 181.728C105.286 181.879 105.601 182.091 105.841 182.199C106.265 182.392 106.275 182.39 106.323 182.101C106.535 180.841 105.577 179.613 102.738 177.512C101.118 176.312 100.381 175.641 99.5959 174.65C98.759 173.595 98.062 172.11 98.2286 171.741C98.276 171.636 98.373 171.687 98.8388 172.063C99.1433 172.309 99.5018 172.558 99.6353 172.615C100.26 172.882 101.992 173.91 102.579 174.36C103.22 174.852 103.603 175.081 103.642 174.994C103.653 174.97 103.607 174.683 103.54 174.358C103.473 174.032 103.408 173.436 103.395 173.034C103.382 172.632 103.277 171.984 103.16 171.593C102.974 170.973 102.976 170.892 103.165 170.95C103.469 171.043 104.818 172.22 105.451 172.943C107.39 175.16 108.61 177.463 109.091 179.815C109.283 180.758 109.535 181.633 109.779 182.214C109.928 182.569 110.012 182.653 110.306 182.735C110.499 182.788 110.932 182.818 111.269 182.802L111.881 182.77L111.889 183.003C111.893 183.131 111.806 183.61 111.693 184.065C111.529 184.737 111.391 185.04 110.972 185.658C110.626 186.169 110.246 186.94 109.826 187.981C109.075 189.844 109.07 190.068 109.77 190.494C110.121 190.709 110.35 190.943 110.453 191.192C110.436 191.164 110.417 191.144 110.397 191.135C110.214 191.053 110.19 191.237 110.344 191.545ZM107.957 190.376C108.228 190 108.564 189.454 108.705 189.163C108.931 188.691 108.935 188.611 108.747 188.431C108.457 188.154 108.069 187.018 108.179 186.773C108.228 186.664 108.39 186.518 108.537 186.449C108.742 186.354 108.795 186.27 108.762 186.098C108.683 185.685 108.955 185.282 109.343 185.236C109.684 185.197 109.698 185.178 109.694 184.792C109.692 184.572 109.633 184.043 109.563 183.618C109.229 181.596 108.429 180.184 107.339 179.693C106.623 179.37 106.489 179.63 106.618 181.113C106.712 182.214 106.615 182.861 106.226 183.709C105.814 184.61 105.065 185.403 104.019 186.051C103.035 186.658 102.488 186.888 100.238 187.632C97.0553 188.685 96.3028 188.99 96.4485 189.163C96.6435 189.395 96.8725 189.47 97.3253 189.451C97.8178 189.43 98.4074 189.672 98.5228 189.943C98.592 190.103 98.5498 190.152 98.2786 190.224C98.0978 190.272 97.9229 190.369 97.891 190.44C97.8563 190.517 97.6248 190.534 97.3317 190.481C96.6852 190.365 96.5833 190.405 96.3148 190.887C96.0234 191.41 95.7934 191.421 95.1426 190.937C94.877 190.739 94.4866 190.48 94.2761 190.361L93.892 190.144L93.0948 190.692C90.6631 192.359 89.4462 194.274 89.0968 196.985C88.9266 198.302 89.4703 201.114 90.0315 201.823C90.4512 202.352 91.6801 202.933 92.3648 202.925C92.8921 202.92 94.3662 202.251 95.7082 201.408C96.7756 200.737 96.7866 200.728 98.3571 199.004C99.7504 197.476 100.96 196.397 102.089 195.674C102.564 195.369 103.081 195.017 103.239 194.89C103.397 194.763 103.815 194.443 104.167 194.179C105.672 193.054 106.947 191.774 107.957 190.376ZM107.912 184.983C107.9 185.249 107.147 186.975 106.901 187.3C106.476 187.863 104.968 189.133 103.988 189.754L102.871 190.463L102.999 190.816C103.107 191.113 103.082 191.246 102.846 191.636L102.566 192.103L102.905 192.663C103.268 193.257 103.269 193.416 102.913 193.558C102.742 193.628 102.47 193.563 101.695 193.269C100.819 192.935 100.632 192.897 100.157 192.957C99.4805 193.042 98.9817 192.916 98.6556 192.577C98.4243 192.336 98.3902 192.328 98.1286 192.45C97.975 192.522 97.8346 192.555 97.8176 192.523C97.741 192.382 100.207 189.999 100.88 189.565C101.086 189.432 101.915 189.182 102.722 189.009C104.564 188.617 105.215 188.229 105.848 187.149C106.075 186.763 106.547 186.159 106.896 185.808C107.246 185.458 107.62 185.072 107.728 184.951L107.924 184.732L107.912 184.983ZM94.1294 193.427C94.5187 194.128 94.4967 194.428 94.0409 194.622C93.6515 194.788 92.9574 194.452 92.782 194.012C92.71 193.831 92.6911 193.594 92.74 193.486C92.7885 193.378 92.8235 193.166 92.8176 193.015C92.8025 192.641 93.1002 192.475 93.4781 192.645C93.6743 192.734 93.887 192.989 94.1294 193.427ZM105.164 191.951C105.215 192.22 105.212 192.226 104.746 192.629C104.358 192.966 103.936 193.076 103.676 192.908C103.594 192.856 103.549 192.591 103.573 192.32C103.646 191.526 103.727 191.422 104.23 191.481C104.833 191.551 105.114 191.693 105.164 191.951ZM104.68 186.871C104.689 187.086 104.68 187.1 104.324 187.405C103.722 187.922 102.919 187.927 102.973 187.415C103.016 187.006 103.353 186.698 103.846 186.619C104.364 186.536 104.67 186.629 104.68 186.871ZM108.515 182.003C108.583 182.398 108.558 182.449 108.267 182.517C107.849 182.614 107.741 182.478 107.607 181.678C107.494 181.009 107.566 180.74 107.847 180.78C108.082 180.813 108.484 181.288 108.471 181.518C108.466 181.612 108.486 181.829 108.515 182.003ZM109.48 192.75C109.62 192.693 109.753 192.624 109.87 192.552C109.751 192.63 109.621 192.696 109.48 192.75ZM107.239 199.495C107.132 199.542 107.002 199.584 106.86 199.621C107.013 199.577 107.139 199.535 107.239 199.495ZM105.569 199.786C105.48 199.788 105.392 199.786 105.308 199.782C105.395 199.785 105.482 199.786 105.569 199.786Z" fill="#020614"/>
<path d="M106.738 199.655C106.037 199.84 104.949 199.829 104.165 199.627C103.83 199.54 103.796 199.514 103.951 199.463C104.053 199.429 104.182 199.423 104.24 199.449C104.425 199.532 105.748 199.455 106.524 199.314C107.748 199.092 107.906 199.344 106.738 199.655ZM110.101 192.375C109.794 192.673 109.1 192.943 108.637 192.943C108.11 192.942 108.163 192.741 108.72 192.63C108.932 192.589 109.385 192.404 109.728 192.22C110.072 192.036 110.38 191.878 110.414 191.87C110.517 191.844 110.32 192.162 110.101 192.375ZM101.349 186.993C101.053 187.047 100.714 186.872 100.789 186.705C100.833 186.609 101.365 186.713 101.537 186.85C101.604 186.903 101.527 186.961 101.349 186.993ZM103.527 194.667C103.403 194.761 103.301 194.84 103.24 194.89C103.081 195.017 102.564 195.369 102.089 195.674C100.96 196.397 99.7504 197.476 98.3571 199.004C97.9326 199.47 97.622 199.811 97.3732 200.073C97.5947 199.839 97.8634 199.542 98.2207 199.148C99.5275 197.704 100.647 196.67 101.726 195.908C102.228 195.554 102.624 195.195 102.646 195.075C102.672 194.927 102.723 194.898 102.814 194.975C102.905 195.054 103.053 195.005 103.527 194.667ZM110.344 191.546C110.19 191.237 110.214 191.053 110.397 191.135C110.461 191.164 110.517 191.307 110.522 191.455C110.539 191.846 110.502 191.864 110.344 191.546ZM107.957 190.376C107.24 191.369 106.389 192.302 105.417 193.162C106.394 192.293 107.248 191.357 107.957 190.376ZM96.6256 200.789C96.3767 200.987 96.1222 201.148 95.7082 201.408C96.1204 201.149 96.3798 200.984 96.6256 200.789Z" fill="#5F433B"/>
<path d="M107.957 190.376C106.989 191.715 105.751 192.97 104.3 194.085C103.187 194.942 102.943 195.086 102.814 194.975C102.723 194.898 102.672 194.927 102.646 195.075C102.64 195.103 102.616 195.143 102.574 195.194C102.709 194.963 102.668 194.701 102.519 194.167L102.351 193.563L101.537 193.224C101.391 193.164 101.269 193.115 101.162 193.074C101.307 193.123 101.481 193.187 101.695 193.269C102.47 193.563 102.742 193.628 102.913 193.558C103.056 193.502 103.141 193.442 103.169 193.353C103.169 193.356 103.169 193.359 103.168 193.362L103.145 193.667L103.347 193.45C103.458 193.331 103.621 193.208 103.708 193.176C103.82 193.136 103.815 193.096 103.692 193.041C103.536 192.97 103.512 192.94 103.568 192.421C103.561 192.654 103.605 192.862 103.676 192.908C103.936 193.076 104.358 192.966 104.746 192.629C105.212 192.226 105.215 192.22 105.164 191.951C105.114 191.693 104.833 191.551 104.23 191.481C104.065 191.462 103.944 191.46 103.856 191.494C103.965 191.444 104.122 191.452 104.355 191.493C104.796 191.572 105.165 191.548 105.984 191.387C106.557 191.273 106.744 190.843 106.557 190.071C106.478 189.747 106.473 189.384 106.543 189.243C106.667 188.998 106.669 189 106.612 189.326C106.532 189.79 106.615 190.148 106.77 190.013C107.39 189.471 108.248 187.777 108.101 187.385C108.039 187.218 108.07 187.008 108.165 186.825C108.113 187.149 108.474 188.17 108.747 188.431C108.935 188.611 108.931 188.691 108.705 189.163C108.564 189.454 108.228 190 107.957 190.376ZM101.789 195.864C101.769 195.878 101.747 195.893 101.726 195.908C100.647 196.67 99.5275 197.704 98.2207 199.148C96.8158 200.699 96.7677 200.743 95.7082 201.408C94.3662 202.251 92.8921 202.92 92.3648 202.925C91.943 202.93 91.3156 202.712 90.7971 202.42C90.8554 202.449 90.9167 202.478 90.9806 202.507C91.5647 202.77 91.6464 202.78 92.0149 202.639C93.2092 202.184 95.1372 200.801 96.2699 199.588C96.3132 199.543 96.56 199.57 96.8197 199.649C97.5268 199.864 97.628 199.81 98.6245 198.689C98.7416 198.558 98.7882 198.452 98.7296 198.453C98.671 198.455 98.6319 198.356 98.6448 198.234C98.6563 198.113 98.5794 197.724 98.4728 197.371C98.3666 197.017 98.3336 196.809 98.3986 196.907C98.4988 197.059 98.5567 197.051 98.7567 196.855C98.8877 196.726 99.1883 196.47 99.425 196.283L99.8546 195.944L99.5078 195.746C99.216 195.58 99.2392 195.582 99.6516 195.753C99.9208 195.866 100.454 195.982 100.837 196.013C101.329 196.051 101.503 196.043 101.789 195.864ZM108.515 182.003C108.486 181.829 108.466 181.612 108.471 181.518C108.484 181.288 108.082 180.813 107.847 180.78C107.677 180.756 107.585 180.845 107.561 181.064C107.553 180.863 107.601 180.742 107.701 180.708C107.815 180.67 107.728 180.497 107.392 180.091C107.013 179.634 106.899 179.544 106.779 179.609C106.629 179.692 106.563 179.956 106.578 180.489C106.547 179.561 106.737 179.421 107.339 179.693C108.429 180.184 109.229 181.596 109.563 183.618C109.621 183.967 109.671 184.389 109.688 184.649C109.636 183.975 109.423 182.836 109.296 182.671C109.052 182.356 108.732 182.228 108.536 182.354C108.557 182.282 108.545 182.175 108.515 182.003ZM105.148 191.849C105.25 192.003 105.284 191.996 105.368 191.809C105.441 191.648 105.417 191.582 105.277 191.562C105.173 191.547 105.074 191.565 105.058 191.601C105.041 191.637 105.082 191.749 105.148 191.849ZM90.1825 193.665C90.8402 192.547 91.794 191.584 93.0948 190.692C91.8818 191.524 90.8658 192.574 90.1825 193.665ZM102.752 193.823C102.81 193.779 102.864 193.735 102.874 193.727C102.883 193.719 102.805 193.7 102.701 193.686C102.597 193.671 102.495 193.694 102.476 193.736C102.424 193.85 102.632 193.916 102.752 193.823ZM107.896 185.073L107.896 185.078C107.881 185.27 107.64 185.877 107.359 186.428C107.351 186.446 107.341 186.464 107.332 186.481C107.576 185.953 107.83 185.334 107.896 185.073ZM106.3 187.934C106.204 188.026 106.098 188.126 105.978 188.238C105.498 188.683 104.603 189.365 103.988 189.754C104.685 189.313 105.647 188.543 106.3 187.934ZM89.6016 200.883C89.4498 200.408 89.3167 199.83 89.2213 199.246C89.2809 199.568 89.3567 199.918 89.4501 200.309C89.5007 200.523 89.5516 200.712 89.6016 200.883ZM107.824 182.425C107.817 182.42 107.81 182.415 107.804 182.409C107.717 182.335 107.653 182.099 107.608 181.685C107.673 182.072 107.731 182.302 107.824 182.425ZM102.841 191.646C102.62 192.013 102.569 192.097 102.703 192.331L102.566 192.104L102.841 191.646ZM102.746 192.401C102.78 192.454 102.822 192.516 102.872 192.59C102.942 192.692 103.006 192.809 103.055 192.923C103.015 192.847 102.965 192.761 102.905 192.663L102.746 192.401ZM89.0653 197.563C89.0654 197.351 89.075 197.156 89.0968 196.985C89.1094 196.891 89.1217 196.798 89.1362 196.706C89.0943 197.002 89.0718 197.283 89.0653 197.563ZM108.368 182.491C108.289 182.534 108.199 182.551 108.108 182.543C108.156 182.54 108.209 182.531 108.267 182.517C108.305 182.508 108.338 182.5 108.368 182.491ZM109.523 185.209C109.597 185.185 109.645 185.149 109.672 185.101C109.649 185.161 109.606 185.19 109.523 185.209ZM106.896 185.808C107.246 185.458 107.62 185.072 107.727 184.951L107.922 184.731L107.922 184.734L107.728 184.951C107.62 185.072 107.246 185.458 106.896 185.808ZM109.128 185.303C108.916 185.413 108.771 185.639 108.751 185.893C108.771 185.637 108.919 185.408 109.128 185.303ZM90.0615 201.858C90.0519 201.847 90.0411 201.835 90.0315 201.823C89.9904 201.771 89.9501 201.707 89.9089 201.634C89.9561 201.715 90.0063 201.789 90.0615 201.858Z" fill="#C7BDB8"/>
<path d="M96.5508 199.584C96.4069 199.559 96.2976 199.559 96.2699 199.588C95.1372 200.801 93.2092 202.184 92.0149 202.639C91.6464 202.78 91.5647 202.77 90.9806 202.507C90.0635 202.093 89.7784 201.684 89.4501 200.309C88.9619 198.268 88.943 197.347 89.3528 195.579C89.3721 195.495 89.3944 195.409 89.4194 195.324L89.9999 195.954C90.825 196.85 90.9293 197.202 90.5934 197.947C90.2728 198.658 90.286 198.898 90.6892 199.703C91.024 200.373 91.5089 200.856 91.9252 200.935C92.0545 200.96 92.5372 200.883 92.9993 200.764C93.7385 200.576 93.873 200.499 94.1317 200.123C94.6866 199.311 95.0896 199.204 96.3531 199.535C96.4197 199.552 96.4849 199.569 96.5508 199.584ZM94.1294 193.427C93.887 192.989 93.6743 192.733 93.4781 192.645C93.1002 192.475 92.8025 192.641 92.8176 193.015C92.8188 193.045 92.8181 193.077 92.8162 193.111C92.7755 192.953 92.5877 192.848 92.1899 192.716C91.8771 192.611 91.516 192.49 91.3873 192.447C91.2635 192.404 91.1175 192.462 90.9456 192.624C91.5437 191.918 92.273 191.254 93.0948 190.692L93.892 190.144L94.2597 190.352C93.9443 190.175 93.8598 190.171 93.6597 190.31C93.3195 190.546 93.3157 190.621 93.6341 190.764C94.4256 191.121 94.7125 191.643 94.7782 192.849C94.8148 193.522 95.0679 193.978 95.5175 194.181C95.7731 194.296 96.3232 194.333 96.5776 194.25C96.8633 194.158 97.5118 194.156 97.7103 194.245C97.8415 194.305 98.1737 194.591 98.4507 194.883C98.9385 195.399 99.4758 195.727 100.117 195.894C99.9341 195.851 99.7686 195.802 99.6516 195.753C99.2392 195.582 99.216 195.58 99.5078 195.746L99.8546 195.944L99.425 196.283C99.1883 196.47 98.8877 196.726 98.7567 196.855C98.5567 197.051 98.4988 197.059 98.3986 196.907C98.3336 196.809 98.3667 197.017 98.4728 197.371C98.5559 197.645 98.6199 197.94 98.6394 198.115C98.6185 198.032 98.5985 197.939 98.58 197.839C98.5166 197.489 98.3851 197.048 98.2869 196.856C98.0545 196.402 97.4662 195.942 96.8886 195.762C95.8867 195.45 95.5461 195.35 95.3341 195.156C95.2136 195.046 95.1355 194.905 95.0002 194.679C94.8129 194.361 94.6262 194.087 94.587 194.069C94.5477 194.052 94.4671 194.144 94.4082 194.274C94.3959 194.301 94.3829 194.327 94.3679 194.351C94.458 194.155 94.3765 193.872 94.1294 193.427ZM104.68 186.871C104.67 186.629 104.364 186.536 103.846 186.619C103.353 186.698 103.016 187.006 102.973 187.415C102.97 187.439 102.969 187.462 102.971 187.485C102.957 187.478 102.931 187.486 102.889 187.504C102.82 187.536 102.574 187.552 102.342 187.54C101.72 187.508 101.172 187.76 100.665 188.312C100.064 188.968 99.4781 189.087 98.663 188.719C98.3558 188.581 98.0654 188.456 98.0163 188.442C97.9647 188.428 97.6037 188.54 97.2319 188.673C97.8161 188.446 98.7679 188.118 100.238 187.632C102.488 186.888 103.035 186.658 104.019 186.051C104.691 185.634 105.24 185.158 105.657 184.632C105.557 184.763 105.453 184.883 105.348 184.991C105.045 185.297 104.815 185.578 104.835 185.615C104.907 185.748 105.377 185.695 106.051 185.478C106.592 185.305 106.793 185.29 106.981 185.411C107.083 185.476 107.149 185.505 107.212 185.488C107.11 185.592 107.002 185.702 106.896 185.808C106.547 186.159 106.075 186.763 105.848 187.149C105.814 187.206 105.781 187.261 105.748 187.314L105.44 187.249C104.981 187.151 104.67 187.158 104.475 187.274C104.682 187.09 104.688 187.05 104.68 186.871ZM108.511 186.461C108.188 186.63 107.986 187.078 108.101 187.385C108.248 187.777 107.39 189.471 106.77 190.013C106.615 190.148 106.532 189.79 106.612 189.326C106.629 189.225 106.641 189.154 106.646 189.113C106.677 189.078 106.711 189.041 106.75 188.999C107.131 188.589 107.129 188.322 106.745 187.959C106.663 187.881 106.611 187.826 106.554 187.812C106.497 187.796 106.434 187.821 106.33 187.903C106.808 187.432 106.994 187.145 107.359 186.428C107.64 185.877 107.881 185.27 107.896 185.078L107.91 184.895C107.923 184.956 107.909 185.072 107.865 185.242C107.761 185.648 107.787 185.786 108.033 186.13C108.296 186.497 108.329 186.53 108.511 186.461ZM106.514 182.931C106.658 182.396 106.681 181.857 106.615 181.107C106.531 180.15 106.578 179.719 106.779 179.609C106.899 179.544 107.014 179.634 107.392 180.091C107.728 180.497 107.815 180.67 107.701 180.708C107.598 180.743 107.551 180.868 107.562 181.077C107.578 181.395 107.6 181.654 107.63 181.858C107.546 181.698 107.334 181.542 106.985 181.382C106.691 181.249 106.691 181.25 106.637 182.251C106.627 182.459 106.584 182.69 106.514 182.931ZM103.603 192.106C103.602 192.109 103.602 192.112 103.602 192.115C103.508 192.931 103.51 192.959 103.692 193.041C103.815 193.096 103.82 193.135 103.708 193.176C103.621 193.208 103.458 193.331 103.347 193.45L103.145 193.667L103.168 193.362C103.181 193.199 103.056 192.868 102.888 192.613C103.125 192.86 103.386 192.779 103.514 192.382C103.547 192.279 103.576 192.187 103.603 192.106ZM105.148 191.849C105.082 191.749 105.041 191.637 105.058 191.601C105.074 191.565 105.173 191.547 105.277 191.562C105.417 191.582 105.441 191.648 105.368 191.809C105.284 191.996 105.25 192.003 105.148 191.849ZM102.752 193.823C102.632 193.916 102.424 193.85 102.476 193.736C102.495 193.694 102.597 193.671 102.701 193.686C102.805 193.7 102.883 193.719 102.874 193.727C102.864 193.735 102.81 193.779 102.752 193.823ZM90.4425 193.273C90.2794 193.528 90.1006 193.84 89.9016 194.216L89.6229 194.741C89.8254 194.25 90.1023 193.756 90.4425 193.273ZM97.3223 189.451C96.9443 189.467 96.724 189.417 96.5473 189.264C96.7403 189.369 97.0469 189.455 97.3035 189.451C97.3091 189.451 97.3159 189.451 97.3223 189.451ZM97.4727 199.727C97.2878 199.778 97.1024 199.734 96.8197 199.649C96.7984 199.642 96.7782 199.636 96.7565 199.631C97.0903 199.701 97.3745 199.741 97.4727 199.727ZM104.94 188.206C104.445 188.56 103.781 188.784 102.722 189.009C103.732 188.794 104.432 188.546 104.94 188.206ZM102.574 194.371C102.699 194.863 102.693 195.088 102.472 195.329C102.664 195.084 102.68 194.817 102.574 194.371ZM106.541 189.247C106.488 189.36 106.48 189.602 106.516 189.854C106.45 189.527 106.445 189.397 106.541 189.247ZM109.321 185.245C109.156 185.263 109.014 185.352 108.911 185.481C108.987 185.307 109.08 185.266 109.321 185.245ZM98.2368 199.118C97.9199 199.459 97.7197 199.637 97.5266 199.709C97.6727 199.642 97.9679 199.397 98.2368 199.118ZM103.308 187.791C103.24 187.789 103.182 187.779 103.136 187.758C103.018 187.705 102.942 187.613 102.967 187.554C102.971 187.545 102.974 187.538 102.976 187.531C103.005 187.683 103.132 187.77 103.308 187.791ZM92.8253 194.102C92.6957 193.895 92.6603 193.663 92.7497 193.458C92.7516 193.454 92.7535 193.45 92.7555 193.446C92.7504 193.46 92.7454 193.474 92.74 193.486C92.6911 193.594 92.71 193.831 92.782 194.012C92.794 194.042 92.8091 194.072 92.8253 194.102ZM106.572 190.138C106.665 190.556 106.641 190.868 106.499 191.079C106.63 190.876 106.65 190.571 106.572 190.138ZM107.799 184.868L107.727 184.951C107.685 184.998 107.601 185.086 107.496 185.197C107.627 185.023 107.729 184.913 107.799 184.868ZM107.665 182.07C107.694 182.214 107.73 182.314 107.771 182.372C107.701 182.292 107.659 182.188 107.665 182.07ZM102.665 192.257C102.583 192.074 102.644 191.971 102.841 191.646C102.648 191.966 102.6 192.086 102.665 192.257ZM108.761 186.093C108.761 186.095 108.762 186.096 108.762 186.098C108.787 186.229 108.762 186.309 108.658 186.381C108.725 186.325 108.766 186.251 108.759 186.189C108.756 186.165 108.758 186.132 108.761 186.093ZM104.344 187.388C104.275 187.473 104.156 187.551 104.018 187.618C104.122 187.561 104.225 187.489 104.324 187.405C104.331 187.399 104.338 187.393 104.344 187.388ZM105.984 191.387C105.309 191.52 104.94 191.56 104.583 191.525C104.967 191.556 105.325 191.517 105.984 191.387ZM94.2492 194.501C94.1816 194.564 94.1027 194.608 94.0145 194.633C94.0239 194.63 94.0326 194.625 94.0409 194.622C94.1258 194.586 94.195 194.547 94.2492 194.501ZM101.565 195.977C101.381 196.044 101.191 196.04 100.837 196.013C101.183 196.04 101.379 196.039 101.565 195.977ZM98.5228 189.943C98.4682 189.815 98.3084 189.694 98.1036 189.604C98.3107 189.692 98.4671 189.812 98.5228 189.943ZM102.846 191.637C102.967 191.435 103.033 191.301 103.053 191.18C103.033 191.303 102.968 191.436 102.846 191.637ZM108.325 182.511C108.382 182.488 108.434 182.452 108.479 182.403C108.434 182.453 108.381 182.488 108.325 182.511Z" fill="#FAF8F4"/>
<path d="M109.322 185.246C109.017 185.271 108.948 185.33 108.853 185.65C108.791 185.856 108.749 186.098 108.759 186.189C108.769 186.28 108.676 186.395 108.552 186.446C108.333 186.534 108.315 186.523 108.033 186.13C107.788 185.786 107.761 185.648 107.866 185.242C108.002 184.71 107.853 184.713 107.456 185.25C107.251 185.527 107.194 185.547 106.981 185.411C106.793 185.29 106.592 185.305 106.051 185.478C105.377 185.695 104.907 185.748 104.835 185.615C104.815 185.578 105.045 185.297 105.348 184.991C106.019 184.31 106.594 183.09 106.637 182.251C106.691 181.25 106.691 181.249 106.985 181.382C107.469 181.604 107.69 181.819 107.667 182.046C107.623 182.468 108.19 182.718 108.479 182.403C108.663 182.203 109.027 182.323 109.296 182.671C109.452 182.873 109.737 184.539 109.696 185.017C109.685 185.154 109.569 185.225 109.322 185.246ZM105.984 191.387C105.192 191.543 104.835 191.568 104.344 191.499C103.812 191.424 103.828 191.408 103.514 192.382C103.361 192.859 103.014 192.878 102.75 192.425C102.583 192.137 102.593 192.058 102.846 191.637C103.082 191.246 103.107 191.113 102.999 190.816L102.871 190.463L103.999 189.748C104.619 189.355 105.408 188.764 105.754 188.435C106.532 187.694 106.487 187.716 106.745 187.959C107.129 188.323 107.131 188.589 106.75 188.999C106.422 189.353 106.416 189.38 106.55 190.021C106.728 190.874 106.563 191.271 105.984 191.387ZM102.04 195.708C101.587 196.024 101.447 196.06 100.834 196.012C99.8622 195.936 99.1116 195.581 98.4507 194.883C98.1737 194.591 97.8415 194.305 97.7103 194.245C97.5119 194.156 96.8633 194.158 96.5776 194.25C96.3232 194.333 95.7731 194.296 95.5175 194.181C95.0679 193.978 94.8149 193.522 94.7782 192.849C94.7125 191.643 94.4256 191.121 93.6341 190.764C93.3157 190.621 93.3195 190.546 93.6597 190.31C93.8636 190.169 93.9481 190.176 94.2769 190.362C94.4867 190.48 94.877 190.74 95.1426 190.937C95.7935 191.421 96.0234 191.41 96.3149 190.887C96.5834 190.405 96.6852 190.365 97.3317 190.481C97.6248 190.534 97.8564 190.517 97.891 190.44C97.9229 190.369 98.0979 190.272 98.2787 190.224C98.5498 190.152 98.592 190.103 98.5228 189.943C98.4052 189.668 97.8459 189.442 97.3035 189.451C96.8685 189.458 96.2881 189.205 96.3646 189.041C96.405 188.955 97.9063 188.411 98.0164 188.442C98.0654 188.456 98.3558 188.581 98.663 188.719C99.4781 189.087 100.064 188.968 100.665 188.313C101.172 187.761 101.72 187.508 102.342 187.54C102.574 187.552 102.82 187.536 102.889 187.504C102.977 187.464 103 187.479 102.967 187.554C102.942 187.613 103.018 187.705 103.136 187.758C103.402 187.878 104.128 187.654 104.347 187.385C104.521 187.169 104.864 187.126 105.44 187.249L105.8 187.325L105.582 187.607C105.064 188.284 104.246 188.685 102.722 189.009C101.915 189.182 101.086 189.432 100.88 189.565C100.207 189.999 97.7411 192.382 97.8177 192.524C97.8346 192.555 97.975 192.522 98.1286 192.45C98.3902 192.328 98.4243 192.336 98.6557 192.577C98.9836 192.918 99.4817 193.043 100.17 192.956C100.656 192.894 100.821 192.927 101.537 193.224L102.352 193.563L102.525 194.181C102.752 194.998 102.666 195.271 102.04 195.708ZM98.2653 199.088C97.9568 199.413 97.6037 199.7 97.4814 199.725C97.3594 199.751 96.8515 199.665 96.3531 199.535C95.0896 199.205 94.6866 199.311 94.1318 200.123C93.873 200.499 93.7385 200.576 92.9993 200.765C92.5372 200.883 92.0546 200.96 91.9253 200.935C91.5089 200.856 91.0241 200.373 90.6892 199.703C90.286 198.898 90.2728 198.658 90.5934 197.947C90.9293 197.202 90.825 196.85 89.9999 195.954L89.3522 195.252L89.9016 194.216C90.6029 192.891 91.0682 192.338 91.3874 192.447C91.5161 192.49 91.8771 192.611 92.19 192.716C92.8186 192.926 92.9245 193.065 92.7497 193.459C92.5834 193.836 92.8456 194.311 93.3479 194.537C93.8456 194.762 94.2316 194.666 94.4082 194.274C94.4671 194.144 94.5477 194.052 94.587 194.069C94.6262 194.087 94.8129 194.361 95.0002 194.679C95.3723 195.305 95.3175 195.274 96.8887 195.762C97.4662 195.942 98.0545 196.402 98.2869 196.856C98.3851 197.048 98.5166 197.49 98.5801 197.84C98.6439 198.189 98.7355 198.464 98.7848 198.454C98.8978 198.427 98.9248 198.394 98.2653 199.088Z" fill="#EE5E2A"/>
</g>
<path d="M101.755 248.374H96.9389L96.3695 253.539H102.249L101.755 248.374Z" fill="#ED9DA0"/>
<path d="M108.784 252.99L103.401 250.956L95.1232 251.066L88 253.81L92.0519 269.047L90.3009 276.992C97.0676 278.291 104.152 278.335 110.946 277.12L111 277.11C111 277.11 106.976 266.363 108.689 263.083L108.784 252.99Z" fill="#6C63FF"/>
<path d="M93.2118 244.867C93.2178 243.652 93.8638 242.489 95.0081 241.632C96.1523 240.776 97.7013 240.296 99.3149 240.298C100.929 240.3 102.475 240.784 103.615 241.644C104.755 242.504 105.395 243.669 105.395 244.884C105.395 246.099 104.755 247.264 103.615 248.124C102.475 248.984 100.929 249.468 99.3149 249.47C97.7013 249.472 96.1523 248.992 95.0081 248.136C93.8638 247.279 93.2178 246.116 93.2118 244.901V244.867Z" fill="#ED9DA0"/>
<path d="M97.1983 247.122C97.662 247.024 98.137 246.96 98.617 246.931C99.4613 246.793 100.212 246.432 100.733 245.913C101.255 245.394 101.512 244.752 101.458 244.103C101.418 243.936 101.414 243.765 101.447 243.596C101.539 243.42 101.698 243.267 101.905 243.159C102.112 243.05 102.357 242.99 102.609 242.986C103.112 242.985 103.614 242.956 104.111 242.9C104.483 242.811 104.816 242.65 105.08 242.433C105.343 242.217 105.527 241.953 105.613 241.667C105.775 241.09 105.691 240.489 105.372 239.95L105.138 240.316C104.896 240.122 104.73 239.881 104.661 239.62C104.457 239.628 104.259 239.676 104.087 239.758C103.914 239.84 103.773 239.954 103.676 240.089C103.374 240.191 103.411 239.672 103.111 239.57C102.975 239.546 102.833 239.56 102.71 239.611C102.049 239.778 101.347 239.527 100.691 239.348C99.555 239.037 98.338 238.933 97.1383 239.042C96.3331 239.092 95.5628 239.311 94.9163 239.676C94.426 240.01 94.0274 240.414 93.7429 240.863C92.921 241.924 92.4649 243.123 92.416 244.351C92.4316 245.351 92.8403 246.325 93.5905 247.151C93.9811 247.579 95.2448 249.065 96.0843 248.9C97.14 248.694 95.9358 247.495 97.1983 247.122Z" fill="#090814"/>
<path d="M101.755 390.374H96.9389L96.3695 395.539H102.249L101.755 390.374Z" fill="#ED9DA0"/>
<path d="M108.784 394.99L103.401 392.956L95.1232 393.066L88 395.81L92.0519 411.047L90.3009 418.992C97.0676 420.291 104.152 420.335 110.946 419.12L111 419.11C111 419.11 106.976 408.363 108.689 405.083L108.784 394.99Z" fill="#6C63FF"/>
<path d="M93.2118 386.867C93.2178 385.652 93.8638 384.489 95.0081 383.632C96.1523 382.776 97.7013 382.296 99.3149 382.298C100.929 382.3 102.475 382.784 103.615 383.644C104.755 384.504 105.395 385.669 105.395 386.884C105.395 388.099 104.755 389.264 103.615 390.124C102.475 390.984 100.929 391.468 99.3149 391.47C97.7013 391.472 96.1523 390.992 95.0081 390.136C93.8638 389.279 93.2178 388.116 93.2118 386.901V386.867Z" fill="#ED9DA0"/>
<path d="M97.1983 389.122C97.662 389.024 98.137 388.96 98.617 388.931C99.4613 388.793 100.212 388.432 100.733 387.913C101.255 387.394 101.512 386.752 101.458 386.103C101.418 385.936 101.414 385.765 101.447 385.596C101.539 385.42 101.698 385.267 101.905 385.159C102.112 385.05 102.357 384.99 102.609 384.986C103.112 384.985 103.614 384.956 104.111 384.9C104.483 384.811 104.816 384.65 105.08 384.433C105.343 384.217 105.527 383.953 105.613 383.667C105.775 383.09 105.691 382.489 105.372 381.95L105.138 382.316C104.896 382.122 104.73 381.881 104.661 381.62C104.457 381.628 104.259 381.676 104.087 381.758C103.914 381.84 103.773 381.954 103.676 382.089C103.374 382.191 103.411 381.672 103.111 381.57C102.975 381.546 102.833 381.56 102.71 381.611C102.049 381.778 101.347 381.527 100.691 381.348C99.555 381.037 98.338 380.933 97.1383 381.042C96.3331 381.092 95.5628 381.311 94.9163 381.676C94.426 382.01 94.0274 382.414 93.7429 382.863C92.921 383.924 92.4649 385.123 92.416 386.351C92.4316 387.351 92.8403 388.325 93.5905 389.151C93.9811 389.579 95.2448 391.065 96.0843 390.9C97.14 390.694 95.9358 389.495 97.1983 389.122Z" fill="#090814"/>
<path d="M99.7547 600.374H94.9389L94.3695 605.539H100.249L99.7547 600.374Z" fill="#ED9DA0"/>
<path d="M106.784 604.99L101.401 602.956L93.1232 603.065L86 605.809L90.0519 621.047L88.3009 628.992C95.0676 630.291 102.152 630.335 108.946 629.12L109 629.11C109 629.11 104.976 618.363 106.689 615.083L106.784 604.99Z" fill="#6C63FF"/>
<path d="M91.2118 596.867C91.2178 595.652 91.8638 594.489 93.0081 593.632C94.1523 592.776 95.7013 592.296 97.3149 592.298C98.9286 592.3 100.475 592.785 101.615 593.644C102.755 594.504 103.395 595.669 103.395 596.884C103.395 598.099 102.755 599.264 101.615 600.124C100.475 600.984 98.9286 601.468 97.3149 601.47C95.7013 601.472 94.1523 600.993 93.0081 600.136C91.8638 599.279 91.2178 598.116 91.2118 596.901V596.867Z" fill="#ED9DA0"/>
<path d="M95.1983 599.122C95.662 599.024 96.137 598.96 96.617 598.931C97.4613 598.793 98.2122 598.432 98.7334 597.913C99.2546 597.394 99.5117 596.752 99.4582 596.103C99.4178 595.936 99.4142 595.765 99.4474 595.596C99.5391 595.42 99.6984 595.267 99.9052 595.159C100.112 595.05 100.357 594.99 100.609 594.986C101.112 594.985 101.614 594.956 102.111 594.9C102.483 594.811 102.816 594.65 103.08 594.433C103.343 594.217 103.527 593.953 103.613 593.667C103.775 593.09 103.691 592.489 103.372 591.95L103.138 592.316C102.896 592.122 102.73 591.881 102.661 591.62C102.457 591.628 102.259 591.676 102.087 591.758C101.914 591.84 101.773 591.954 101.676 592.089C101.374 592.191 101.411 591.672 101.111 591.57C100.975 591.546 100.833 591.56 100.71 591.611C100.049 591.778 99.3469 591.527 98.691 591.348C97.555 591.037 96.338 590.933 95.1383 591.042C94.3331 591.092 93.5628 591.311 92.9163 591.676C92.426 592.01 92.0274 592.414 91.7429 592.863C90.921 593.924 90.4649 595.123 90.416 596.351C90.4316 597.351 90.8403 598.325 91.5905 599.151C91.9811 599.579 93.2448 601.065 94.0843 600.9C95.14 600.694 93.9358 599.495 95.1983 599.122Z" fill="#090814"/>
<path d="M104.755 319.374H99.9389L99.3695 324.539H105.249L104.755 319.374Z" fill="#ED9DA0"/>
<path d="M111.784 323.99L106.401 321.956L98.1232 322.066L91 324.81L95.0519 340.047L93.3009 347.992C100.068 349.291 107.152 349.335 113.946 348.12L114 348.11C114 348.11 109.976 337.363 111.689 334.083L111.784 323.99Z" fill="#6C63FF"/>
<path d="M96.2118 315.867C96.2178 314.652 96.8638 313.489 98.0081 312.632C99.1523 311.776 100.701 311.296 102.315 311.298C103.929 311.3 105.475 311.784 106.615 312.644C107.755 313.504 108.395 314.669 108.395 315.884C108.395 317.099 107.755 318.264 106.615 319.124C105.475 319.984 103.929 320.468 102.315 320.47C100.701 320.472 99.1523 319.992 98.0081 319.136C96.8638 318.279 96.2178 317.116 96.2118 315.901V315.867Z" fill="#ED9DA0"/>
<path d="M100.198 318.122C100.662 318.024 101.137 317.96 101.617 317.931C102.461 317.793 103.212 317.432 103.733 316.913C104.255 316.394 104.512 315.752 104.458 315.103C104.418 314.936 104.414 314.765 104.447 314.596C104.539 314.42 104.698 314.267 104.905 314.159C105.112 314.05 105.357 313.99 105.609 313.986C106.112 313.985 106.614 313.956 107.111 313.9C107.483 313.811 107.816 313.65 108.08 313.433C108.343 313.217 108.527 312.953 108.613 312.667C108.775 312.09 108.691 311.489 108.372 310.95L108.138 311.316C107.896 311.122 107.73 310.881 107.661 310.62C107.457 310.628 107.259 310.676 107.087 310.758C106.914 310.84 106.773 310.954 106.676 311.089C106.374 311.191 106.411 310.672 106.111 310.57C105.975 310.546 105.833 310.56 105.71 310.611C105.049 310.778 104.347 310.527 103.691 310.348C102.555 310.037 101.338 309.933 100.138 310.042C99.3331 310.092 98.5628 310.311 97.9163 310.676C97.426 311.01 97.0274 311.414 96.7429 311.863C95.921 312.924 95.4649 314.123 95.416 315.351C95.4316 316.351 95.8403 317.325 96.5905 318.151C96.9811 318.579 98.2448 320.065 99.0843 319.9C100.14 319.694 98.9358 318.495 100.198 318.122Z" fill="#090814"/>
</g>
<defs>
<clipPath id="clip0_55_312">
<rect width="407" height="720" fill="white"/>
</clipPath>
<clipPath id="clip1_55_312">
<rect width="34.0937" height="23.5524" fill="white" transform="translate(82 198.786) rotate(-65.7277)"/>
</clipPath>
</defs>
</svg>
