<svg width="443" height="428" viewBox="0 0 443 428" fill="none" xmlns="http://www.w3.org/2000/svg">
<path d="M414.418 163.599L442.161 255.223C443.025 258.075 443.223 261.078 442.74 264.013C442.258 266.948 441.108 269.744 439.372 272.198C437.636 274.652 435.359 276.703 432.704 278.204C430.048 279.705 427.081 280.618 424.017 280.877L393.743 283.437L414.418 163.599Z" fill="#6C63FF"/>
<path opacity="0.1" d="M414.418 163.599L442.161 255.223C443.025 258.075 443.223 261.078 442.74 264.013C442.258 266.948 441.108 269.744 439.372 272.198C437.636 274.652 435.359 276.703 432.704 278.204C430.048 279.705 427.081 280.618 424.017 280.877L393.743 283.437L414.418 163.599Z" fill="black"/>
<path d="M162.609 146.546L199.719 205.84L217.191 184.453L183.043 132.8C184.256 126.792 182.787 119.816 178.447 113.792C170.853 103.253 157.375 99.6321 148.346 105.706C139.317 111.78 138.157 125.246 145.75 135.786C150.091 141.81 156.355 145.561 162.607 146.547L162.609 146.546Z" fill="#ED9DA0"/>
<path d="M393.965 290.781L398.422 305.422L398.271 320.269C398.271 320.269 427.582 354.331 416.784 428L279.447 426.337L295.807 307.794L393.965 290.781V290.781Z" fill="#090814"/>
<path d="M378.507 87.2034C378.506 80.2485 376.509 73.4301 372.739 67.5053C368.969 61.5805 363.573 56.781 357.151 53.64C350.728 50.4989 343.53 49.1391 336.356 49.7115C329.181 50.2839 322.312 52.7661 316.509 56.8826C310.707 60.9991 306.199 66.5887 303.486 73.0307C300.773 79.4728 299.962 86.5153 301.141 93.3762C302.321 100.237 305.445 106.648 310.168 111.897C314.891 117.146 321.027 121.027 327.895 123.111L333.701 127.63L324.017 162.814L335.425 171.186L369.658 140.598C369.658 140.598 365.515 130.081 361.068 118.575C366.434 115.146 370.835 110.486 373.88 105.011C376.924 99.536 378.515 93.4172 378.511 87.2023L378.507 87.2034Z" fill="#ED9DA0"/>
<path d="M190.767 144.829C204.515 144.627 229.936 187.259 229.936 187.259L250.817 180.123L293.764 165.435L326.675 152.348C326.662 153.008 340.467 137.406 369.001 139.011L382.433 149.257L384.26 150.66C390.024 150.362 395.789 151.23 401.186 153.21C407.297 155.583 413.409 160.012 416.299 168.289C417.797 172.558 417.797 181.385 416.898 192.6C413.648 233.207 398.502 319.531 398.502 319.531L302.864 307.298L295.809 307.459C295.809 307.459 294.971 298.154 294.222 285.969C293.758 278.822 293.336 270.702 293.098 262.887C292.932 257.157 292.889 251.599 292.994 246.708C293.009 246.404 293.009 246.101 293.023 245.799C293.308 236.87 294.237 230.402 296.231 229.695C296.231 229.695 290.045 229.535 281.118 229.218C259.549 228.437 221.953 226.688 216.591 223.863C209.012 219.884 169.274 166.471 169.274 166.471C169.274 166.471 177.002 145.052 190.767 144.837L190.767 144.829Z" fill="#6C63FF"/>
<path d="M357.26 33.1938C355.178 33.1978 353.101 33.3974 351.058 33.7898C347.367 32.0587 343.318 31.1572 339.215 31.1528H338.14C317.416 31.1528 300.616 49.271 300.616 71.6211H307.558L308.68 63.3741L310.324 71.6211H316.11C314.311 78.2392 313.409 85.0549 313.426 91.8974V133.088H323.925L330.003 117.827L328.483 133.088H407.707V100.744C407.706 63.4377 385.121 33.1938 357.26 33.1938Z" fill="#090814"/>
</svg>
