<svg width="385" height="455" viewBox="0 0 385 455" fill="none" xmlns="http://www.w3.org/2000/svg">
<path d="M162.079 230.013H150.411C149.433 230.009 148.485 229.755 147.723 229.292C146.961 228.829 146.43 228.185 146.218 227.464C146.06 226.912 146.096 226.338 146.321 225.8C146.547 225.261 146.955 224.776 147.505 224.393L183.084 199.691C183.633 199.307 184.362 199.103 185.11 199.122L196.406 199.416C196.956 199.431 197.489 199.565 197.94 199.804C198.39 200.042 198.74 200.374 198.946 200.759C199.152 201.144 199.206 201.566 199.1 201.974C198.995 202.382 198.735 202.758 198.352 203.056L164.906 229.105C164.538 229.39 164.098 229.616 163.613 229.771C163.127 229.927 162.606 230.007 162.078 230.008L162.079 230.013Z" fill="#090814"/>
<path d="M161.429 227.798C161.367 227.798 161.304 227.795 161.242 227.788L150.072 226.608C149.819 226.582 149.581 226.501 149.386 226.377C149.19 226.253 149.045 226.09 148.966 225.907C148.887 225.724 148.879 225.527 148.941 225.34C149.003 225.153 149.134 224.983 149.318 224.85L182.695 200.659C182.961 200.473 183.312 200.371 183.675 200.375L195.445 200.629C195.712 200.635 195.972 200.7 196.191 200.816C196.41 200.932 196.579 201.094 196.677 201.282C196.774 201.47 196.796 201.676 196.74 201.873C196.683 202.071 196.551 202.251 196.359 202.392L162.384 227.509C162.128 227.696 161.785 227.802 161.429 227.802L161.429 227.798Z" fill="#6C63FF"/>
<path d="M72.208 443.249H86.5629L93.3905 401.491H72.205L72.208 443.249Z" fill="#ED9DA0"/>
<path d="M123.501 266.502L115.353 360.844L87.9969 427.25L60.6419 428.338L77.4418 347.43L72.7757 293.684C72.7757 293.684 50.6546 281.7 62.8856 267.275L123.501 266.502Z" fill="#090814"/>
<path d="M62.8471 443.249H77.1945L84.0213 401.491H62.8403L62.8471 443.249Z" fill="#ED9DA0"/>
<path d="M68.7482 454.117H108.41C111.82 454.112 115.186 453.532 118.261 452.42L125.574 449.765C126.38 449.474 127.048 449.003 127.49 448.417C127.932 447.831 128.126 447.156 128.047 446.485C127.967 445.813 127.617 445.176 127.044 444.658C126.471 444.14 125.702 443.767 124.84 443.588L109.754 440.436L83.9536 430.204L83.9347 430.278C83.4514 432.122 82.6998 434.908 82.607 435.072C79.9615 437.362 77.2405 438.413 74.5294 438.2C69.7947 437.835 66.6478 433.711 66.6131 433.669L66.5844 433.634H66.5377C66.0554 433.651 65.5845 433.75 65.1609 433.925C64.7374 434.1 64.3722 434.345 64.0934 434.643C63.0183 435.868 63.6757 437.766 63.7775 438.046C62.4868 438.999 61.9025 444.336 61.8557 444.763C59.9807 446.261 59.0986 447.697 59.2102 449.035C59.3109 449.68 59.5913 450.302 60.0331 450.86C60.4749 451.417 61.068 451.898 61.7736 452.271C63.7524 453.458 66.2088 454.1 68.7369 454.091L68.7482 454.117Z" fill="#090814" stroke="#06060F" stroke-width="1.5" stroke-miterlimit="10"/>
<path d="M29.3966 129.794C29.3982 126.103 30.7558 122.485 33.3186 119.34C35.8815 116.196 39.5493 113.649 43.9149 111.983C48.2804 110.316 53.1729 109.594 58.0491 109.898C62.9254 110.202 67.5946 111.519 71.5384 113.704C75.4821 115.889 78.5461 118.855 80.3902 122.274C82.2342 125.693 82.7863 129.43 81.9849 133.071C81.1835 136.713 79.0601 140.115 75.8504 142.901C72.6408 145.687 68.4704 147.747 63.8024 148.853L58.6816 174.371L32.5888 157.967C36.147 154.437 39.0606 150.561 41.2515 146.446C37.6039 144.626 34.6116 142.153 32.5427 139.247C30.4737 136.341 29.3927 133.093 29.3966 129.794Z" fill="#ED9DA0"/>
<path d="M114.136 266.502L105.988 360.844L78.7544 427.719L57.4414 428.362L68.0809 347.43L63.4148 293.684C63.4148 293.684 41.2929 281.7 53.5247 267.275L114.136 266.502Z" fill="#090814"/>
<path d="M69.9688 281.667C94.4105 281.667 123.173 270.4 124.84 269.738L125.304 269.554L69.2111 161.607L41.4316 151.706C39.2922 150.945 36.9222 150.627 34.5661 150.787C32.21 150.947 29.9531 151.579 28.0284 152.616C26.1036 153.654 24.5805 155.06 23.6163 156.689C22.6522 158.319 22.2818 160.113 22.5433 161.887L33.5674 236.49L45.0746 275.129L45.1968 275.219C51.5509 279.95 60.4307 281.667 69.9688 281.667Z" fill="#6C63FF"/>
<path d="M88.1236 109.263C85.3164 107.092 81.6691 105.648 77.7057 105.138C73.8433 104.513 69.6047 104.317 66.5143 102.489C63.0025 100.379 61.4569 96.3678 57.149 95.4777C55.275 95.1936 53.3331 95.3098 51.5419 95.8133C44.6584 97.3797 38.5469 100.453 33.9828 104.644C32.907 105.845 31.536 106.879 29.944 107.691C28.9908 107.995 28.0596 108.336 27.1545 108.715C26.1627 109.305 25.3821 110.073 24.8836 110.949C21.7777 115.679 21.0618 121.1 22.8699 126.199C23.945 129.21 25.8901 132 27.0376 135.03C28.1851 138.06 33.4905 143.821 34.7277 142.39C35.9649 140.96 37.5625 139.626 38.2396 137.975C39.5642 134.73 38.3677 131.458 41.7363 129.199C43.8194 127.803 47.5898 126.867 49.0065 128.669C49.5689 129.367 49.5342 130.25 50.0137 130.974C50.9622 132.387 53.7012 132.67 55.5174 131.859C57.2663 130.948 58.4954 129.573 58.9592 128.009C61.6869 121.05 66.3334 116.67 76.2024 119.648C79.8786 120.761 84.2091 121.511 87.7443 119.604C92.4074 117.095 91.459 112.124 88.1236 109.263Z" fill="#090814"/>
<path d="M160.77 222.573C159.317 221.878 157.679 221.431 155.972 221.265C154.266 221.099 152.531 221.218 150.891 221.612C149.252 222.006 147.747 222.667 146.482 223.547C145.217 224.428 144.224 225.507 143.572 226.708L101.804 224.987L112.764 239.149L150.749 238.612C153.496 239.301 156.483 239.207 159.144 238.347C161.806 237.488 163.957 235.922 165.192 233.946C166.426 231.971 166.658 229.723 165.844 227.627C165.029 225.531 163.225 223.733 160.772 222.573H160.77Z" fill="#ED9DA0"/>
<path d="M78.3383 244.74L120.197 243.934L119.657 223.047L99.8631 218.295L67.3957 183.943C65.7729 182.218 63.7074 180.756 61.3217 179.644C58.936 178.532 56.2787 177.793 53.5073 177.47C50.7359 177.148 47.9068 177.248 45.1879 177.766C42.4689 178.283 39.9153 179.208 37.6787 180.484C35.442 181.76 33.5677 183.361 32.1669 185.194C30.7661 187.026 29.8674 189.052 29.524 191.152C29.1806 193.251 29.3995 195.382 30.1678 197.416C30.936 199.451 32.238 201.348 33.9964 202.996L78.3383 244.74Z" fill="#6C63FF"/>
<path d="M0.471209 454.999H180.058C180.318 454.999 180.529 454.601 180.529 454.114C180.529 453.627 180.318 453.229 180.058 453.229H0.471209C0.211101 453.229 0 453.627 0 454.114C0 454.601 0.213363 454.999 0.471209 454.999Z" fill="#E6E6E6"/>
<path d="M320.654 92.6028C328.195 92.6028 335.567 94.2897 341.837 97.4502C348.107 100.611 352.994 105.103 355.88 110.359C358.766 115.614 359.521 121.398 358.05 126.977C356.578 132.557 352.947 137.682 347.615 141.704C342.282 145.727 335.488 148.466 328.092 149.576C320.696 150.686 313.029 150.116 306.062 147.939C299.095 145.762 293.14 142.076 288.951 137.346C284.761 132.616 282.525 127.055 282.525 121.366C282.525 113.737 286.542 106.421 293.693 101.027C300.843 95.6332 310.541 92.6028 320.654 92.6028Z" fill="#E6E6E6"/>
<path d="M321.64 91.7124C331.331 91.7175 340.675 94.4384 347.857 99.347C355.039 104.256 359.548 111.002 360.508 118.277C361.468 125.552 358.812 132.836 353.054 138.717C347.296 144.598 338.848 148.655 329.348 150.102C319.848 151.549 309.975 150.282 301.644 146.547C293.312 142.812 287.117 136.876 284.261 129.889C281.405 122.903 282.091 115.366 286.186 108.74C290.281 102.113 297.493 96.8712 306.423 94.03C311.239 92.4982 316.413 91.7101 321.64 91.7124ZM321.64 149.364C330.891 149.357 339.809 146.758 346.663 142.071C353.517 137.384 357.818 130.943 358.732 123.999C359.646 117.054 357.108 110.101 351.61 104.489C346.112 98.8761 338.046 95.0046 328.977 93.6253C319.909 92.2459 310.484 93.4571 302.533 97.0238C294.581 100.59 288.67 106.258 285.945 112.927C283.221 119.597 283.878 126.791 287.788 133.116C291.699 139.44 298.585 144.443 307.109 147.154C311.708 148.616 316.65 149.367 321.64 149.364Z" fill="#090814"/>
<path d="M352.947 135.343C357.096 135.306 361.095 136.514 364.064 138.7C367.033 140.886 368.729 143.873 368.78 147.003C368.729 150.132 367.033 153.119 364.064 155.305C361.095 157.492 357.096 158.699 352.947 158.662C348.798 158.699 344.8 157.492 341.831 155.305C338.862 153.119 337.165 150.132 337.115 147.003C337.165 143.873 338.862 140.886 341.831 138.7C344.8 136.514 348.798 135.306 352.947 135.343Z" fill="#3F3D56"/>
<path d="M352.947 135.343C357.096 135.306 361.095 136.514 364.064 138.7C367.033 140.886 368.729 143.873 368.78 147.003C368.729 150.132 367.033 153.119 364.064 155.305C361.095 157.492 357.096 158.699 352.947 158.662C348.798 158.699 344.8 157.492 341.831 155.305C338.862 153.119 337.165 150.132 337.115 147.003C337.165 143.873 338.862 140.886 341.831 138.7C344.8 136.514 348.798 135.306 352.947 135.343Z" fill="#6C63FF"/>
<path d="M339.569 105.962H306.935C306.516 105.946 306.096 105.994 305.701 106.101C305.306 106.208 304.943 106.373 304.632 106.587C304.322 106.8 304.07 107.058 303.892 107.345C303.714 107.632 303.613 107.942 303.594 108.259V132.928C303.617 133.592 303.976 134.224 304.598 134.694C305.219 135.164 306.056 135.436 306.936 135.455H339.56C340.419 135.43 341.229 135.15 341.816 134.677C342.403 134.204 342.719 133.575 342.697 132.928V108.258C342.703 107.95 342.626 107.644 342.471 107.359C342.315 107.074 342.083 106.816 341.79 106.601C341.497 106.386 341.149 106.218 340.767 106.108C340.385 105.998 339.978 105.948 339.569 105.962ZM315.718 130.547H310.116V117.409H315.718V130.547ZM313.109 115.413H313.069C312.263 115.409 311.492 115.164 310.925 114.732C310.358 114.3 310.041 113.716 310.043 113.108C310.046 112.5 310.368 111.917 310.939 111.488C311.51 111.059 312.283 110.818 313.089 110.818C313.895 110.818 314.668 111.059 315.239 111.488C315.81 111.917 316.132 112.5 316.135 113.108C316.138 113.716 315.821 114.3 315.253 114.732C314.686 115.164 313.915 115.409 313.109 115.413ZM336.191 130.546H330.589V123.364C330.589 121.643 329.773 120.467 327.747 120.467C327.113 120.471 326.496 120.623 325.981 120.902C325.467 121.182 325.08 121.575 324.874 122.027C324.725 122.361 324.659 122.713 324.681 123.064V130.547H319.079V117.409H324.681V119.237C325.191 118.571 325.929 118.022 326.818 117.646C327.706 117.27 328.713 117.082 329.732 117.101C333.409 117.101 336.191 118.929 336.192 122.87L336.191 130.546Z" fill="#090814"/>
<path d="M353.516 142.466C354.676 142.466 355.81 142.725 356.775 143.212C357.74 143.698 358.491 144.389 358.935 145.198C359.379 146.006 359.496 146.896 359.269 147.755C359.043 148.613 358.484 149.402 357.664 150.02C356.843 150.639 355.798 151.061 354.66 151.232C353.522 151.402 352.343 151.315 351.271 150.98C350.199 150.645 349.283 150.078 348.638 149.35C347.993 148.622 347.649 147.766 347.649 146.891C347.649 145.718 348.267 144.592 349.368 143.762C350.468 142.932 351.96 142.466 353.516 142.466Z" fill="white"/>
<path d="M184.32 232.111L183.981 233.447C186 234.071 188.066 234.616 190.117 235.077L190.388 233.723C188.359 233.269 186.317 232.728 184.32 232.111ZM196.558 234.831L196.356 236.197C198.441 236.488 200.565 236.691 202.67 236.809L202.8 235.435C200.718 235.319 198.616 235.118 196.556 234.831L196.558 234.831ZM209.1 235.531L209.041 236.905C211.159 236.851 213.31 236.71 215.432 236.487L215.42 235.117C213.32 235.34 211.193 235.481 209.099 235.532L209.1 235.531ZM221.735 234.194L221.818 235.553C223.932 235.159 226.069 234.675 228.172 234.112L228.018 232.768C225.939 233.324 223.826 233.801 221.735 234.193L221.735 234.194ZM234.243 230.852L234.467 232.174C236.544 231.446 238.633 230.631 240.678 229.744L240.385 228.45C238.363 229.326 236.296 230.131 234.243 230.852L234.243 230.852ZM246.42 225.573L246.781 226.831C248.784 225.788 250.792 224.653 252.749 223.455L252.327 222.232C250.387 223.416 248.401 224.539 246.42 225.571L246.42 225.573ZM258.067 218.447L258.558 219.63C260.458 218.286 262.352 216.851 264.186 215.365L263.634 214.228C261.82 215.698 259.946 217.12 258.068 218.446L258.067 218.447ZM268.995 209.594L269.608 210.678C271.37 209.055 273.119 207.343 274.802 205.59L274.131 204.563C272.468 206.296 270.739 207.989 268.995 209.594ZM279.018 199.154L279.744 200.12C281.34 198.244 282.912 196.282 284.416 194.287L283.639 193.385C282.152 195.357 280.598 197.296 279.02 199.151L279.018 199.154ZM287.968 187.296L288.794 188.128C290.183 186.052 291.543 183.889 292.869 181.644L292 180.886C290.714 183.06 289.357 185.217 287.968 187.294L287.968 187.296ZM295.703 174.193L296.617 174.877C297.798 172.6 298.935 170.256 300.023 167.854L299.071 167.248C297.995 169.623 296.871 171.941 295.703 174.192L295.703 174.193Z" fill="#090814"/>
<path d="M180.883 223.95L180.829 225.116L176.994 228.349L177.001 233.847L176.219 234.585L176.21 227.887L180.883 223.95Z" fill="#090814"/>
<path d="M304.014 161.223L303.976 162.352L307.754 159.057L307.297 164.839L308.061 164.25L308.618 157.204L304.014 161.223Z" fill="#090814"/>
</svg>
