<svg width="386" height="418" viewBox="0 0 386 418" fill="none" xmlns="http://www.w3.org/2000/svg">
<path d="M57.6092 78.0904C68.1633 74.8267 114.046 62.7014 120.201 71.8504C126.357 80.9994 163.39 76.2182 147.924 127.998C138.666 158.992 148.23 192.895 140.389 224.275C139.598 227.441 138.623 230.807 136.105 232.892C131.836 236.429 125.459 234.692 120.248 232.785C113.386 230.273 105.571 226.734 103.926 219.633C102.433 213.184 82.2798 206.648 85.7747 201.021C101.172 176.233 126.633 143.57 112.657 117.958C109.513 112.197 105.604 106.576 104.757 100.073C103.911 93.5694 107.584 85.8415 114.116 85.0665" fill="#090814"/>
<path d="M107.755 226.11L164.96 216.312Z" fill="#D6D6E3"/>
<path d="M108.785 216.448H25.1452C25.1452 216.448 -12.0185 220.811 6.13329 296.317C24.2851 371.823 50.5739 418 50.5739 418L163.238 404.271L152.284 320.967C152.284 320.967 166.054 245.461 144.773 234.852C123.491 224.244 108.782 216.45 108.782 216.45L108.785 216.448Z" fill="#D6D6E3"/>
<path d="M39.3077 145.372C39.3097 136.087 41.8928 126.985 46.7703 119.075C51.6477 111.165 58.6286 104.758 66.9379 100.564C75.2471 96.371 84.5595 94.5555 93.8412 95.3196C103.123 96.0836 112.01 99.3973 119.517 104.893C127.024 110.388 132.856 117.85 136.366 126.45C139.876 135.051 140.927 144.452 139.401 153.612C137.875 162.771 133.833 171.33 127.724 178.337C121.614 185.345 113.676 190.527 104.79 193.309L95.0495 257.487L45.3927 216.233C45.3927 216.233 56.1197 202.61 61.8716 187.25C54.9313 182.673 49.2375 176.452 45.2997 169.144C41.362 161.836 39.3033 153.668 39.3077 145.372Z" fill="#FFB8B8"/>
<path d="M126.738 86.0051C127.11 80.5796 124.172 75.3235 120.089 71.7185C116.006 68.1135 110.881 65.9133 105.758 64.0452C86.6673 57.0755 65.1033 53.9465 46.1676 61.3255C21.8814 70.792 6.65438 96.0191 2.02515 121.603C-2.60409 147.187 1.58668 173.444 5.77745 199.103C6.79471 205.33 8.26733 212.287 13.5714 215.73C16.9487 217.921 21.1948 218.179 25.2226 218.21C43.8134 218.353 90.9053 275.558 108.309 269.038C98.6509 245.213 68.7996 157.636 76.0009 132.964C78.5723 124.153 82.5045 115.246 89.8199 109.676C96.3905 104.674 104.819 102.995 112.571 100.13C120.323 97.2654 128.264 92.2707 130.331 84.2897L126.667 84.0714" fill="#090814"/>
<path d="M229.449 286.888H189.862C187.041 286.885 184.337 285.766 182.343 283.778C180.348 281.79 179.227 279.094 179.224 276.282V171.067C179.227 168.255 180.348 165.559 182.343 163.57C184.337 161.582 187.041 160.464 189.862 160.46H229.449C232.269 160.464 234.973 161.582 236.968 163.57C238.962 165.559 240.084 168.255 240.087 171.067V276.282C240.084 279.094 238.962 281.79 236.968 283.778C234.973 285.766 232.269 286.885 229.449 286.888Z" fill="#6C63FF"/>
<path d="M191.214 182.377C195.026 182.377 198.117 179.295 198.117 175.494C198.117 171.693 195.026 168.612 191.214 168.612C187.401 168.612 184.31 171.693 184.31 175.494C184.31 179.295 187.401 182.377 191.214 182.377Z" fill="#090814"/>
<path d="M206.475 190.708C210.288 190.708 213.379 187.627 213.379 183.826C213.379 180.025 210.288 176.943 206.475 176.943C202.663 176.943 199.572 180.025 199.572 183.826C199.572 187.627 202.663 190.708 206.475 190.708Z" fill="#090814"/>
<path d="M191.214 199.402C195.026 199.402 198.117 196.32 198.117 192.519C198.117 188.718 195.026 185.636 191.214 185.636C187.401 185.636 184.31 188.718 184.31 192.519C184.31 196.32 187.401 199.402 191.214 199.402Z" fill="#090814"/>
<path d="M185.956 286.603L133.886 316.987L116.091 286.678L168.165 256.294C170.299 247.612 176.472 239.239 185.75 233.828C201.981 224.356 221.512 227.535 229.374 240.927C237.236 254.319 230.452 272.852 214.22 282.323C204.94 287.734 194.594 288.999 185.956 286.603Z" fill="#FFB8B8"/>
<path d="M50.8866 241.091L78.4291 298.5L147.031 269.795L163.238 309.097L77.8014 360.278L2.53587 277.785" fill="#D6D6E3"/>
<path d="M77.7431 360.677L77.5685 360.489L2.30412 277.996L2.76995 277.576L77.8608 359.879L162.849 308.967L146.864 270.205L78.2736 298.903L78.1455 298.635L50.603 241.226L51.1679 240.957L78.5799 298.098L147.2 269.386L147.321 269.677L163.63 309.225L163.397 309.363L77.7431 360.677Z" fill="white"/>
<path d="M311.887 107.123C331.073 107.123 346.626 91.6177 346.626 72.4906C346.626 53.3635 331.073 37.8579 311.887 37.8579C292.702 37.8579 277.149 53.3635 277.149 72.4906C277.149 91.6177 292.702 107.123 311.887 107.123Z" fill="white"/>
<path d="M311.887 106.833C330.912 106.833 346.335 91.4574 346.335 72.4906C346.335 53.5238 330.912 38.1482 311.887 38.1482C292.863 38.1482 277.44 53.5238 277.44 72.4906C277.44 91.4574 292.863 106.833 311.887 106.833Z" stroke="#707070"/>
<path d="M289.697 46.1905C294.819 41.8814 301.088 39.1495 307.739 38.3272C314.39 37.5049 321.137 38.6277 327.16 41.5588C333.183 44.49 338.221 49.1032 341.662 54.8371C345.103 60.571 346.798 67.1784 346.541 73.8552C346.284 80.532 344.086 86.9903 340.214 92.4444C336.343 97.8984 330.964 102.113 324.734 104.575C318.503 107.037 311.689 107.641 305.121 106.313C298.553 104.985 292.513 101.782 287.737 97.094L245.329 132.769C244.684 133.313 243.848 133.579 243.006 133.508C242.164 133.438 241.385 133.037 240.839 132.394C240.294 131.751 240.027 130.918 240.097 130.078C240.168 129.239 240.57 128.462 241.215 127.918L241.22 127.914L283.628 92.2391C278.702 85.19 276.593 76.5609 277.716 68.0428C278.839 59.5246 283.111 51.7315 289.697 46.1905ZM292.434 88.8041C295.738 92.7077 300.129 95.5469 305.051 96.9627C309.973 98.3785 315.206 98.3073 320.088 96.7581C324.97 95.2089 329.281 92.2513 332.477 88.2593C335.672 84.2673 337.609 79.4202 338.041 74.3309C338.474 69.2416 337.383 64.1388 334.906 59.6677C332.43 55.1966 328.679 51.558 324.128 49.2121C319.578 46.8662 314.431 45.9183 309.34 46.4882C304.249 47.0582 299.442 49.1205 295.527 52.4142C292.927 54.601 290.784 57.2769 289.222 60.2891C287.659 63.3014 286.707 66.5909 286.419 69.9701C286.132 73.3492 286.515 76.7516 287.546 79.9832C288.578 83.2148 290.238 86.2121 292.431 88.8041H292.434Z" fill="#090814"/>
<path d="M320.889 53C322.264 53 323.626 53.238 324.897 53.7005C326.168 54.163 327.322 54.8409 328.295 55.6955C329.268 56.5501 330.039 57.5646 330.566 58.6812C331.092 59.7977 331.363 60.9944 331.363 62.203V76.9286C331.363 79.3693 330.259 81.7102 328.295 83.4361C326.331 85.1619 323.667 86.1315 320.889 86.1315H304.13C302.754 86.1315 301.392 85.8935 300.121 85.431C298.851 84.9685 297.696 84.2906 296.723 83.4361C294.759 81.7102 293.656 79.3693 293.656 76.9286V62.203C293.656 59.7622 294.759 57.4214 296.723 55.6955C298.688 53.9696 301.352 53 304.13 53H320.889ZM312.509 62.203C310.359 62.2031 308.292 62.9291 306.734 64.2309C305.177 65.5327 304.248 67.3107 304.14 69.1972L304.13 69.5651C304.13 71.0214 304.621 72.445 305.542 73.6559C306.463 74.8668 307.772 75.8106 309.303 76.368C310.834 76.9253 312.519 77.0712 314.145 76.7871C315.77 76.503 317.263 75.8018 318.435 74.772C319.607 73.7423 320.405 72.4303 320.729 71.002C321.052 69.5737 320.886 68.0933 320.252 66.7479C319.617 65.4025 318.543 64.2526 317.165 63.4436C315.787 62.6346 314.167 62.2029 312.509 62.203ZM321.934 59.4424C321.421 59.4425 320.926 59.608 320.543 59.9075C320.159 60.207 319.915 60.6197 319.854 61.0673L319.84 61.3011C319.842 61.7695 320.047 62.2197 320.413 62.56C320.78 62.9002 321.28 63.1049 321.812 63.1323C322.344 63.1598 322.869 63.0079 323.278 62.7076C323.687 62.4074 323.951 61.9814 324.015 61.5163L324.029 61.2826C324.029 60.7945 323.808 60.3264 323.415 59.9813C323.023 59.6362 322.49 59.4424 321.934 59.4424Z" fill="#090814"/>
</svg>
