<svg width="434" height="427" viewBox="0 0 434 427" fill="none" xmlns="http://www.w3.org/2000/svg">
<path d="M122.249 200.913L148.94 172.597C149.852 171.627 150.421 170.242 150.521 168.746C150.622 167.249 150.245 165.764 149.475 164.616L144.565 157.308C143.793 156.162 142.69 155.447 141.499 155.321C140.308 155.195 139.126 155.668 138.212 156.635L111.521 184.951C110.608 185.921 110.039 187.307 109.939 188.803C109.839 190.299 110.215 191.784 110.985 192.933L115.898 200.241C116.67 201.385 117.772 202.099 118.963 202.225C120.153 202.351 121.335 201.879 122.249 200.913Z" fill="#3F3D56"/>
<path d="M147.54 165.206C147.955 165.824 148.158 166.625 148.104 167.431C148.05 168.237 147.743 168.983 147.252 169.506L120.561 197.822C120.068 198.343 119.431 198.598 118.789 198.53C118.148 198.462 117.553 198.077 117.137 197.46L112.224 190.152C111.809 189.533 111.607 188.733 111.661 187.926C111.715 187.12 112.021 186.374 112.513 185.851L139.204 157.535C139.697 157.014 140.334 156.759 140.975 156.827C141.617 156.895 142.211 157.28 142.628 157.898L147.54 165.206Z" fill="#6C63FF"/>
<path d="M119.717 187.947C119.594 187.819 119.496 187.657 119.432 187.473C119.368 187.29 119.338 187.09 119.346 186.889L119.545 181.627C119.549 181.455 119.579 181.285 119.635 181.129C119.691 180.972 119.772 180.831 119.872 180.714C119.972 180.596 120.09 180.506 120.218 180.446C120.347 180.387 120.483 180.361 120.62 180.369C120.757 180.377 120.891 180.419 121.014 180.494C121.138 180.568 121.248 180.672 121.339 180.8C121.43 180.929 121.5 181.079 121.544 181.241C121.588 181.404 121.606 181.576 121.596 181.748L121.468 185.193L128.77 182.432C129.029 182.339 129.307 182.378 129.544 182.541C129.781 182.704 129.957 182.977 130.035 183.301C130.113 183.626 130.085 183.976 129.959 184.275C129.833 184.575 129.619 184.8 129.361 184.903L120.667 188.188C120.51 188.247 120.344 188.258 120.183 188.22C120.021 188.182 119.869 188.096 119.74 187.97L119.717 187.947Z" fill="white"/>
<path d="M135.476 163.977C135.423 163.928 135.382 163.86 135.358 163.782C135.334 163.703 135.327 163.617 135.339 163.531C135.351 163.445 135.381 163.363 135.426 163.293C135.47 163.223 135.528 163.167 135.593 163.131C136.608 162.62 137.693 162.445 138.738 162.625C139.782 162.805 140.747 163.334 141.531 164.155C142.583 165.095 143.339 166.449 143.688 168.022C143.875 168.93 143.924 169.885 143.834 170.84C143.829 170.904 143.814 170.968 143.79 171.027C143.766 171.086 143.732 171.139 143.692 171.183C143.652 171.228 143.606 171.263 143.556 171.286C143.507 171.309 143.455 171.32 143.403 171.319L143.401 171.321C143.295 171.317 143.198 171.261 143.131 171.166C143.064 171.071 143.033 170.943 143.043 170.812C143.163 169.662 143.04 168.515 142.686 167.487C142.332 166.458 141.76 165.582 141.025 164.946C138.782 162.835 136.67 163.602 135.868 164.027C135.803 164.063 135.732 164.078 135.663 164.07C135.594 164.061 135.529 164.029 135.476 163.977Z" fill="white"/>
<path d="M135.815 176.419C135.789 176.396 135.766 176.368 135.747 176.337C134.299 174.005 135.169 170.922 135.204 170.797L135.214 170.77C135.244 170.686 135.942 168.67 137.131 168.22C137.416 168.124 137.711 168.112 137.99 168.187C138.269 168.261 138.524 168.42 138.734 168.649C138.95 168.82 139.125 169.057 139.244 169.34C139.363 169.623 139.421 169.943 139.415 170.272C139.369 170.788 139.238 171.295 139.031 171.761C138.659 172.747 138.494 173.295 139.134 173.969C139.248 174.084 139.385 174.159 139.534 174.186C139.683 174.214 139.838 174.193 139.985 174.127C140.339 173.948 140.659 173.67 140.919 173.315C141.18 172.961 141.372 172.541 141.481 172.09C141.757 171.039 141.782 169.933 141.554 168.911C141.327 167.889 140.856 166.996 140.2 166.342C139.468 165.635 138.537 165.292 137.573 165.372C136.772 165.447 135.987 165.796 135.307 166.382C134.102 167.445 133.158 170.01 133.152 170.032C133.131 170.091 133.1 170.145 133.063 170.191C133.025 170.237 132.981 170.274 132.933 170.299C132.885 170.325 132.835 170.34 132.784 170.342C132.733 170.343 132.683 170.333 132.637 170.31L132.635 170.307C132.541 170.261 132.468 170.169 132.432 170.052C132.396 169.935 132.399 169.801 132.442 169.68C132.484 169.565 133.487 166.83 134.88 165.601C135.568 165.005 136.35 164.616 137.16 164.468C137.969 164.321 138.78 164.419 139.522 164.756C140.264 165.092 140.913 165.655 141.414 166.397C141.915 167.138 142.252 168.035 142.395 169.008C142.563 170.096 142.504 171.24 142.225 172.335C142.075 172.942 141.81 173.505 141.454 173.976C141.098 174.447 140.66 174.812 140.18 175.038C139.907 175.157 139.619 175.19 139.343 175.134C139.067 175.078 138.813 174.934 138.604 174.717C137.51 173.565 137.981 172.311 138.324 171.396C138.676 170.457 138.823 169.984 138.233 169.428C138.115 169.29 137.969 169.191 137.809 169.141C137.648 169.091 137.477 169.091 137.31 169.14C136.905 169.357 136.561 169.733 136.334 170.206L136.327 170.218C136.047 170.728 135.86 171.301 135.779 171.895C135.666 172.569 135.662 173.255 135.765 173.911C135.868 174.568 136.077 175.182 136.38 175.719C136.411 175.767 136.432 175.823 136.445 175.882C136.457 175.942 136.459 176.006 136.452 176.069C136.444 176.132 136.427 176.193 136.4 176.249C136.374 176.306 136.34 176.356 136.299 176.397L136.295 176.4C136.224 176.468 136.138 176.507 136.051 176.51C135.965 176.514 135.881 176.482 135.815 176.419Z" fill="white"/>
<path d="M133.626 173.967C133.585 173.929 133.552 173.88 133.527 173.823C133.503 173.766 133.489 173.703 133.485 173.638C133.394 171.986 133.74 170.301 134.471 168.835L134.478 168.829C134.777 168.207 135.17 167.659 135.635 167.216C136.099 166.774 136.625 166.448 137.179 166.257C137.644 166.145 138.114 166.157 138.559 166.294C139.004 166.431 139.412 166.689 139.754 167.05C140.216 167.46 140.564 168.033 140.759 168.703C140.953 169.374 140.985 170.113 140.851 170.836C140.735 171.554 140.515 172.25 140.203 172.889C140.145 173.001 140.054 173.083 139.952 173.117C139.85 173.151 139.744 173.134 139.658 173.07C139.572 173.007 139.512 172.901 139.493 172.776C139.473 172.652 139.495 172.519 139.553 172.407C139.813 171.871 139.995 171.287 140.091 170.686C140.193 170.139 140.168 169.579 140.021 169.073C139.873 168.566 139.607 168.134 139.256 167.826C138.997 167.547 138.687 167.347 138.349 167.238C138.01 167.129 137.651 167.115 137.296 167.196C136.852 167.358 136.431 167.626 136.059 167.985C135.687 168.343 135.372 168.785 135.13 169.285C134.484 170.576 134.179 172.061 134.261 173.517C134.264 173.579 134.257 173.642 134.241 173.702C134.224 173.763 134.199 173.819 134.165 173.869C134.132 173.919 134.091 173.961 134.046 173.992C134 174.024 133.951 174.044 133.901 174.053L133.895 174.054C133.797 174.068 133.701 174.037 133.626 173.967Z" fill="white"/>
<path d="M136.932 171.217C137.082 171.491 137.393 171.544 137.626 171.336C137.859 171.128 137.925 170.738 137.775 170.465C137.625 170.191 137.314 170.138 137.081 170.346C136.849 170.554 136.782 170.944 136.932 171.217Z" fill="white"/>
<path d="M118.16 396.437H107.615V413.896H118.16V396.437Z" fill="#ED9DA0"/>
<path d="M109.415 425.946H131.83C133.757 425.942 135.659 425.398 137.397 424.352L141.529 421.858C141.984 421.582 142.361 421.14 142.61 420.588C142.86 420.036 142.969 419.403 142.924 418.771C142.879 418.139 142.682 417.54 142.359 417.052C142.036 416.565 141.602 416.213 141.116 416.043L132.589 413.081L118.006 403.453L117.995 403.521C117.724 405.256 117.3 407.878 117.246 408.037C115.75 410.191 114.214 411.181 112.679 410.986C110.003 410.645 108.223 406.761 108.206 406.723L108.192 406.693L108.165 406.697C107.893 406.711 107.628 406.803 107.389 406.967C107.15 407.131 106.944 407.361 106.787 407.641C106.176 408.8 106.549 410.578 106.61 410.848C105.879 411.746 105.551 416.766 105.525 417.171C104.468 418.579 103.966 419.932 104.032 421.192C104.089 421.799 104.247 422.384 104.496 422.908C104.746 423.433 105.081 423.885 105.479 424.236C106.597 425.354 107.986 425.958 109.415 425.947V425.946Z" fill="#090814"/>
<path d="M34.1817 405.239L44.3071 408.939L48.1894 392.175L38.064 388.475L34.1817 405.239Z" fill="#ED9DA0"/>
<path d="M33.233 417.439L54.7562 425.305C56.6075 425.978 58.5552 426.123 60.4568 425.728L64.9796 424.783C65.4768 424.677 65.9366 424.384 66.2978 423.942C66.659 423.5 66.9044 422.93 67.0014 422.308C67.0984 421.687 67.0424 421.043 66.8409 420.462C66.6393 419.882 66.3017 419.392 65.873 419.058L58.3469 413.222L46.483 398.861L46.4575 398.921C45.8119 400.488 44.8192 402.859 44.734 402.994C42.8195 404.536 41.1237 404.949 39.6936 404.22C37.1981 402.954 36.3545 398.602 36.3459 398.558L36.3394 398.525L36.3128 398.519C36.0486 398.437 35.7729 398.432 35.507 398.505C35.2412 398.579 34.9923 398.728 34.7797 398.941C33.9356 399.839 33.8981 401.678 33.897 401.958C32.9949 402.564 31.5643 407.268 31.4493 407.648C30.1207 408.629 29.3378 409.752 29.1214 410.987C29.0412 411.59 29.0633 412.207 29.1865 412.798C29.3096 413.389 29.5309 413.941 29.8359 414.417C30.6605 415.882 31.8595 416.949 33.2335 417.441L33.233 417.439Z" fill="#090814"/>
<path d="M68.0951 82.6804C68.0958 78.7003 68.9747 74.7983 70.6341 71.4077C72.2935 68.0171 74.6685 65.2705 77.4955 63.4729C80.3224 61.6752 83.4906 60.8969 86.6484 61.2244C89.8062 61.5518 92.8299 62.9722 95.3839 65.3277C97.9379 67.6833 99.9223 70.8819 101.117 74.5684C102.311 78.2549 102.669 82.2851 102.15 86.2115C101.631 90.1379 100.256 93.8068 98.1775 96.811C96.0991 99.8151 93.3985 102.037 90.3756 103.23L87.0614 130.742L70.1669 113.06C72.4707 109.252 74.3573 105.073 75.7763 100.635C73.4152 98.6735 71.4781 96.0069 70.1382 92.8743C68.7984 89.7416 68.0977 86.2406 68.0989 82.6845L68.0951 82.6804Z" fill="#ED9DA0"/>
<path d="M61.3296 188.967L58.8548 145.447C58.64 141.673 59.0197 137.883 59.9723 134.293L67.308 106.658L88.9092 115.373L98.0232 141.566L102.987 152.999C104.087 155.533 104.505 158.446 104.177 161.303C103.85 164.159 102.795 166.806 101.17 168.847L98.0238 172.8L102.41 193.01L101.949 192.99L102.568 193.091C102.568 193.091 131.896 303.921 130.844 398.178H93.1993L90.9648 288.765L84.426 402.426L34.8198 398.837L61.328 188.967H61.3296Z" fill="#E6E6E6"/>
<path d="M62.5909 110.977C62.5909 110.977 63.3916 118.609 70.8087 118.856L85.8538 119.361C85.8538 119.361 73.1355 80.4813 78.3673 84.8611C83.5992 89.2408 97.5425 70.8783 97.5425 70.8783L101.657 80.572C101.657 80.572 111.486 76.1003 100.593 65.1506C100.593 65.1506 87.5936 52.5253 73.7935 60.1078C59.9934 67.6904 62.5909 110.977 62.5909 110.977Z" fill="#090814"/>
<path d="M123.433 197.547C123.631 192.688 120.008 188.505 115.335 188.201C114.117 188.093 112.894 188.292 111.738 188.784C110.581 189.277 109.514 190.053 108.599 191.069L108.491 191.062L80.7891 187.459L82.8669 152.923C83.6356 146.245 82.1426 139.51 76.9054 137.999C75.3879 137.56 73.8112 137.559 72.293 137.993C70.7749 138.428 69.3547 139.289 68.1387 140.51C66.9227 141.732 65.9424 143.283 65.271 145.048C64.5996 146.813 64.2546 148.746 64.2618 150.701L64.4202 194.202C64.4251 195.672 64.6607 197.127 65.1137 198.482C65.5666 199.837 66.228 201.067 67.0599 202.101C67.8917 203.135 68.8778 203.952 69.9616 204.507C71.0454 205.061 72.2056 205.341 73.3758 205.332L108.141 202.068C108.968 203.197 109.965 204.108 111.075 204.748C112.185 205.388 113.385 205.744 114.606 205.795C119.279 206.099 123.232 202.406 123.43 197.55L123.433 197.547Z" fill="#ED9DA0"/>
<path d="M85.5338 137.675L83.865 177.077L60.6797 175.1L64.7799 134.122" fill="#E6E6E6"/>
<path d="M171.262 426.76L0.74703 426.999C0.548908 426.999 0.358895 426.9 0.218801 426.724C0.0787074 426.548 0 426.31 0 426.061C0 425.812 0.0787074 425.573 0.218801 425.397C0.358895 425.221 0.548908 425.123 0.74703 425.123L171.262 424.883C171.46 424.883 171.65 424.982 171.79 425.158C171.93 425.334 172.009 425.573 172.009 425.822C172.009 426.071 171.93 426.31 171.79 426.486C171.65 426.662 171.46 426.761 171.262 426.761V426.76Z" fill="#E6E6E6"/>
<path d="M311 144C329.778 144 345 128.33 345 109C345 89.67 329.778 74 311 74C292.222 74 277 89.67 277 109C277 128.33 292.222 144 311 144Z" fill="#6C63FF"/>
<path d="M139.771 211.643L139.487 213.308C142.502 214.577 145.572 215.754 148.61 216.818L148.791 215.112C145.788 214.063 142.753 212.897 139.771 211.643ZM157.882 217.949L157.802 219.686C160.861 220.535 163.963 221.278 167.024 221.906L166.999 220.143C163.971 219.523 160.902 218.787 157.88 217.948L157.882 217.949ZM176.121 221.687L176.249 223.467C179.302 223.874 182.389 224.174 185.423 224.361L185.193 222.571C182.192 222.389 179.139 222.094 176.12 221.689L176.121 221.687ZM194.179 222.79L194.509 224.581C197.504 224.544 200.519 224.394 203.471 224.134L203.041 222.345C200.122 222.602 197.141 222.749 194.179 222.788L194.179 222.79ZM211.743 221.248L212.271 223.023C215.161 222.541 218.055 221.949 220.874 221.251L220.25 219.497C217.463 220.185 214.6 220.769 211.743 221.247L211.743 221.248ZM228.529 217.103L229.246 218.826C231.98 217.917 234.707 216.888 237.351 215.766L236.55 214.074C233.929 215.183 231.233 216.2 228.529 217.101L228.529 217.103ZM244.263 210.43L245.156 212.084C247.694 210.759 250.209 209.312 252.631 207.786L251.657 206.179C249.262 207.688 246.773 209.121 244.264 210.429L244.263 210.43ZM258.69 201.341L259.744 202.893C262.04 201.172 264.303 199.333 266.464 197.425L265.336 195.934C263.199 197.82 260.961 199.639 258.69 201.341ZM271.563 189.977L272.762 191.401C274.778 189.313 276.747 187.107 278.613 184.843L277.35 183.491C275.505 185.728 273.56 187.909 271.564 189.973L271.563 189.977ZM282.664 176.52L283.988 177.792C285.674 175.397 287.305 172.88 288.875 170.251L287.501 169.066C285.978 171.613 284.35 174.121 282.665 176.518L282.664 176.52ZM291.818 161.167L293.245 162.265C294.6 159.561 295.881 156.758 297.082 153.87L295.612 152.865C294.424 155.721 293.158 158.493 291.818 161.166L291.818 161.167Z" fill="#090814"/>
<path d="M133.931 202.033L134.034 203.556L128.948 206.944L129.816 214.185L128.791 214.98L127.732 206.157L133.931 202.033Z" fill="#090814"/>
<path d="M301.692 144.174L301.812 145.644L306.759 142.179L306.998 149.648L308.01 149.049L307.719 139.948L301.692 144.174Z" fill="#090814"/>
<path d="M311 134C325.912 134 338 122.807 338 109C338 95.1929 325.912 84 311 84C296.088 84 284 95.1929 284 109C284 122.807 296.088 134 311 134Z" fill="black"/>
<path d="M303.74 96.8452H299.705L318.282 121.455H322.317L303.74 96.8452ZM296.13 95.0183H305L312.684 105.381L322.317 95.0183H324.944L313.856 106.953L325.914 123.203H317.046L308.925 112.26L298.758 123.203H296.13L307.761 110.691L296.13 95.0183Z" fill="white"/>
</svg>
