<svg width="773" height="494" viewBox="0 0 773 494" fill="none" xmlns="http://www.w3.org/2000/svg">
<path d="M479.697 33.9016V378.408L478.276 392.753C475.787 417.653 463.27 441.087 442.803 459.168C439.901 461.727 436.865 464.149 433.695 466.436C429.793 469.272 425.69 471.905 421.408 474.32C418.958 475.707 416.447 477.017 413.895 478.257C399.053 485.481 382.659 490.153 365.66 492.003H243.854C234.161 492.01 224.794 489.055 217.489 483.686C213.872 481.033 210.841 477.862 208.535 474.32C205.314 469.349 203.629 463.774 203.637 458.11V33.9016C203.65 24.9139 207.893 16.2975 215.434 9.94218C222.975 3.58686 233.2 0.0114239 243.865 0H439.479C439.942 0 440.395 0.00867642 440.858 0.0173491C441.156 0.0260219 441.455 0.0346972 441.753 0.0607154C442.154 0.0693881 442.556 0.0954078 442.947 0.130099C443.451 0.156117 443.945 0.199427 444.439 0.251463C444.892 0.3035 445.345 0.355538 445.798 0.416247C445.89 0.42492 445.973 0.442273 446.065 0.450945C446.641 0.529 447.218 0.615725 447.784 0.719797C448.35 0.815197 448.926 0.927934 449.482 1.04935C449.883 1.13608 450.295 1.23148 450.696 1.32688C450.706 1.32688 450.727 1.33555 450.737 1.33555C451.921 1.63043 453.094 1.96867 454.247 2.35894C454.607 2.47169 454.967 2.60177 455.317 2.73186L455.471 2.78389C455.759 2.88797 456.037 2.99205 456.315 3.10479C457.149 3.42568 457.972 3.78126 458.785 4.15419C460.122 4.77553 461.417 5.45886 462.665 6.201C463.066 6.43516 463.457 6.68666 463.838 6.93817C464.157 7.13765 464.476 7.34579 464.785 7.57128C464.811 7.58278 464.835 7.59738 464.857 7.61464C464.898 7.64066 464.939 7.67536 464.98 7.70138C465.258 7.8835 465.526 8.0743 465.783 8.2651C466.287 8.62935 466.781 9.01095 467.265 9.40122C467.399 9.50529 467.532 9.60938 467.666 9.72212C467.8 9.82619 467.924 9.93893 468.057 10.0517C468.191 10.1557 468.315 10.2685 468.438 10.3726C468.512 10.426 468.581 10.484 468.644 10.546C469.014 10.8756 469.375 11.2138 469.724 11.5521C470.167 11.977 470.599 12.4107 471.001 12.853C471.35 13.2172 471.68 13.5815 471.999 13.9544C472.297 14.2926 472.575 14.6309 472.853 14.9778C472.927 15.0641 472.996 15.1538 473.059 15.2466C473.347 15.6022 473.614 15.9665 473.882 16.3307C474.551 17.25 475.158 18.204 475.714 19.1667C475.92 19.531 476.115 19.8865 476.301 20.2508C476.537 20.6931 476.753 21.1354 476.959 21.5777C477.041 21.7425 477.113 21.916 477.186 22.0807C477.299 22.3322 477.402 22.5838 477.505 22.8353C477.618 23.1128 477.731 23.399 477.834 23.6765L478.081 24.353C478.225 24.7606 478.348 25.1595 478.472 25.5672C478.544 25.81 478.616 26.0528 478.678 26.3043C479.161 28.0755 479.474 29.8766 479.614 31.6901C479.625 31.9156 479.645 32.1324 479.655 32.3579C479.686 32.8696 479.697 33.3813 479.697 33.9016Z" fill="#3F3D56"/>
<path d="M479.697 33.9016V176.845L454.154 200.227C453.001 199.204 451.866 198.166 450.748 197.114C449.152 195.639 447.595 194.142 446.075 192.621C445.674 192.231 445.293 191.849 444.902 191.459C443.883 190.453 442.896 189.429 441.908 188.397C432.968 179.076 424.997 169.124 418.084 158.65C417.219 157.34 416.375 156.031 415.542 154.704C408.033 142.721 401.929 130.15 397.316 117.168C396.791 115.703 396.287 114.22 395.813 112.737C392.001 101.128 389.387 89.2626 388.003 77.2739C387.807 75.5827 387.632 73.9002 387.488 72.209C387.488 72.1657 387.478 72.1136 387.478 72.0703C387.313 70.2317 387.2 68.393 387.097 66.5371C385.849 44.0964 388.879 21.6322 396.071 0H439.479C439.942 0 440.395 0.00867642 440.858 0.0173491C441.156 0.0260219 441.455 0.0346972 441.753 0.0607154C442.155 0.0693881 442.556 0.0954078 442.947 0.130099C443.451 0.156117 443.945 0.199427 444.439 0.251463C444.892 0.3035 445.345 0.355538 445.798 0.416247C445.89 0.42492 445.973 0.442273 446.065 0.450945H446.075C446.652 0.529 447.228 0.615725 447.794 0.719797C448.36 0.815197 448.936 0.927934 449.492 1.04935C449.893 1.13608 450.305 1.23148 450.706 1.32688C450.717 1.32688 450.737 1.33555 450.748 1.33555C451.931 1.63043 453.094 1.96867 454.247 2.35894C454.607 2.47169 454.967 2.60177 455.317 2.73186L455.471 2.78389C455.759 2.88797 456.037 2.99205 456.315 3.10479C457.149 3.42568 457.972 3.78126 458.785 4.15419C460.122 4.77553 461.417 5.45886 462.665 6.201C463.066 6.43516 463.457 6.68666 463.838 6.93817C464.157 7.13765 464.476 7.34579 464.785 7.57128C464.811 7.58278 464.835 7.59738 464.857 7.61464H464.867C465.052 7.74473 465.238 7.87482 465.412 8.00491C465.536 8.09164 465.67 8.17837 465.783 8.2651C465.958 8.38652 466.123 8.51661 466.298 8.63803C466.38 8.69874 466.462 8.75944 466.534 8.82015C466.781 9.01095 467.018 9.20175 467.265 9.40122C467.399 9.50529 467.532 9.60938 467.666 9.72212C467.8 9.82619 467.924 9.93893 468.057 10.0517C468.191 10.1557 468.315 10.2685 468.438 10.3726L468.448 10.3812C468.523 10.4271 468.589 10.4828 468.644 10.546C469.014 10.8756 469.375 11.2138 469.724 11.5521C470.167 11.977 470.599 12.4107 471.001 12.853C471.35 13.2172 471.68 13.5815 471.999 13.9544C472.297 14.2926 472.575 14.6309 472.853 14.9778C472.928 15.0641 472.996 15.1538 473.059 15.2466C473.347 15.6022 473.615 15.9665 473.882 16.3307C474.551 17.25 475.158 18.204 475.714 19.1667C475.92 19.531 476.115 19.8865 476.301 20.2508C476.537 20.6931 476.753 21.1354 476.959 21.5777C477.042 21.7425 477.114 21.916 477.186 22.0807C477.299 22.3322 477.402 22.5838 477.505 22.8353C477.618 23.1128 477.731 23.399 477.834 23.6765L478.081 24.353C478.225 24.7606 478.348 25.1595 478.472 25.5672C478.544 25.81 478.616 26.0528 478.678 26.3043C479.161 28.0755 479.474 29.8766 479.614 31.6901C479.625 31.9156 479.645 32.1324 479.655 32.3579C479.686 32.8696 479.697 33.3813 479.697 33.9016Z" fill="#6C63FF"/>
<path opacity="0.2" d="M479.707 77.2739V73.3192H450.748V11.5521H469.735C469.385 11.2138 469.025 10.8756 468.654 10.546H468.644C468.589 10.4828 468.523 10.4271 468.448 10.3812V10.3726H468.438C468.315 10.2685 468.191 10.1558 468.057 10.0517C467.938 9.93553 467.811 9.82549 467.676 9.72212H467.666C467.532 9.60938 467.399 9.5053 467.265 9.40122C467.018 9.20175 466.781 9.01095 466.534 8.82015C466.462 8.75945 466.38 8.69874 466.297 8.63803C466.123 8.51662 465.958 8.38652 465.783 8.2651C465.67 8.17837 465.536 8.09164 465.412 8.00492C465.237 7.87483 465.052 7.74474 464.867 7.61465H450.748V1.33561C450.737 1.33561 450.717 1.32693 450.706 1.32693C450.305 1.23153 449.893 1.13614 449.492 1.04941C448.936 0.92799 448.36 0.815241 447.794 0.719841C447.228 0.615768 446.652 0.529043 446.075 0.450989V11.5521C446.074 25.7839 440.242 39.5788 429.565 50.6054C418.888 61.632 404.022 69.2141 387.478 72.0703C387.478 72.1136 387.488 72.1657 387.488 72.209C387.632 73.9002 387.807 75.5827 388.002 77.2739H446.075V154.704H415.542C416.375 156.031 417.219 157.34 418.083 158.65H446.075V192.621C447.598 194.139 449.156 195.636 450.748 197.114V158.65H479.707V150.688H479.697C479.604 150.714 479.522 150.74 479.429 150.767C465.32 154.765 450.748 145.745 450.748 133.196V77.2739H479.707Z" fill="black"/>
<path d="M131.673 391.437L80.4826 376.365C74.847 352.84 76.1107 328.511 84.1641 305.492C103.584 344.892 164.153 355.907 197.782 387.798C208.181 397.812 215.772 409.669 219.993 422.492C224.215 435.314 224.958 448.773 222.168 461.87L231.97 493.21C206.646 490.763 182.253 483.717 160.47 472.56C138.688 461.402 120.035 446.398 105.797 428.58C97.9263 418.518 91.5908 407.661 86.9399 396.264C109.037 394.943 131.673 391.437 131.673 391.437Z" fill="#F2F2F2"/>
<path d="M200.846 154.347C199.646 154.346 198.495 153.943 197.646 153.228C196.798 152.513 196.32 151.543 196.319 150.532V124.59C196.318 124.088 196.435 123.592 196.662 123.128C196.889 122.665 197.222 122.243 197.642 121.889C198.063 121.534 198.562 121.252 199.112 121.06C199.662 120.868 200.251 120.769 200.846 120.769C201.441 120.769 202.03 120.868 202.58 121.06C203.13 121.252 203.629 121.534 204.049 121.889C204.47 122.243 204.803 122.665 205.03 123.128C205.257 123.592 205.374 124.088 205.373 124.59V150.532C205.371 151.543 204.894 152.513 204.045 153.228C203.197 153.943 202.046 154.346 200.846 154.347Z" fill="#3F3D56"/>
<path d="M359.569 133.633H323.777C316.056 133.633 309.797 138.908 309.797 145.414V145.414C309.797 151.921 316.056 157.196 323.777 157.196H359.569C367.29 157.196 373.549 151.921 373.549 145.414C373.549 138.908 367.29 133.633 359.569 133.633Z" fill="#6C63FF"/>
<path d="M425.973 180.758H257.373C249.653 180.758 243.394 186.032 243.394 192.539V192.539C243.394 199.046 249.653 204.32 257.373 204.32H425.973C433.693 204.32 439.952 199.046 439.952 192.539C439.952 186.032 433.693 180.758 425.973 180.758Z" fill="white"/>
<path d="M425.973 227.883H257.373C249.653 227.883 243.394 233.157 243.394 239.664V239.664C243.394 246.17 249.653 251.445 257.373 251.445H425.973C433.693 251.445 439.952 246.17 439.952 239.664C439.952 233.157 433.693 227.883 425.973 227.883Z" fill="white"/>
<path d="M199.941 103.989C198.74 103.988 197.59 103.585 196.741 102.87C195.892 102.155 195.415 101.185 195.414 100.174V74.2317C195.415 73.2209 195.893 72.252 196.742 71.5378C197.591 70.8236 198.741 70.4224 199.941 70.4224C201.14 70.4224 202.29 70.8236 203.139 71.5378C203.988 72.252 204.466 73.2209 204.467 74.2317V100.174C204.466 101.185 203.989 102.155 203.14 102.87C202.291 103.585 201.141 103.988 199.941 103.989Z" fill="#3F3D56"/>
<path d="M311.095 12.604C311.096 11.5925 311.574 10.6228 312.422 9.90764C313.271 9.19244 314.422 8.79012 315.622 8.78894H346.405C347.606 8.78894 348.757 9.19089 349.606 9.90634C350.455 10.6218 350.932 11.5921 350.932 12.604C350.932 13.6158 350.455 14.5861 349.606 15.3016C348.757 16.017 347.606 16.419 346.405 16.419H315.622C314.422 16.4178 313.271 16.0155 312.422 15.3003C311.574 14.5851 311.096 13.6154 311.095 12.604Z" fill="white"/>
<path d="M200.846 198.601C199.646 198.6 198.495 198.198 197.646 197.482C196.798 196.767 196.32 195.797 196.319 194.786V168.844C196.318 168.342 196.435 167.846 196.662 167.382C196.889 166.919 197.222 166.497 197.642 166.143C198.063 165.788 198.562 165.506 199.112 165.314C199.662 165.122 200.251 165.023 200.846 165.023C201.441 165.023 202.03 165.122 202.58 165.314C203.13 165.506 203.629 165.788 204.049 166.143C204.47 166.497 204.803 166.919 205.03 167.382C205.257 167.846 205.374 168.342 205.373 168.844V194.786C205.371 195.797 204.894 196.767 204.045 197.482C203.197 198.198 202.046 198.6 200.846 198.601Z" fill="#3F3D56"/>
<path d="M482.823 142.228C481.623 142.227 480.472 141.825 479.624 141.11C478.775 140.395 478.298 139.425 478.296 138.413V112.471C478.295 111.97 478.412 111.473 478.639 111.01C478.866 110.546 479.199 110.125 479.62 109.77C480.04 109.415 480.54 109.134 481.089 108.941C481.639 108.749 482.228 108.651 482.823 108.651C483.418 108.651 484.008 108.749 484.557 108.941C485.107 109.134 485.606 109.415 486.027 109.77C486.447 110.125 486.78 110.546 487.008 111.01C487.235 111.473 487.351 111.97 487.35 112.471V138.413C487.349 139.425 486.871 140.394 486.023 141.11C485.174 141.825 484.023 142.227 482.823 142.228Z" fill="#3F3D56"/>
<path d="M363.607 16.419C366.108 16.419 368.134 14.7109 368.134 12.6039C368.134 10.497 366.108 8.78894 363.607 8.78894C361.107 8.78894 359.08 10.497 359.08 12.6039C359.08 14.7109 361.107 16.419 363.607 16.419Z" fill="white"/>
<path d="M433.702 466.434C429.8 469.269 425.697 471.902 421.415 474.317C418.965 475.705 416.454 477.014 413.902 478.255C399.06 485.478 382.666 490.15 365.667 492.001H243.861C234.168 492.008 224.801 489.053 217.496 483.684C213.879 481.031 210.848 477.86 208.542 474.317C205.321 469.346 203.636 463.772 203.644 458.108V271.089C208.295 271.367 212.913 271.757 217.496 272.26C219.06 272.425 220.614 272.607 222.168 272.807C253.978 276.764 284.566 285.918 312.215 299.753C313.779 300.533 315.344 301.331 316.887 302.155C330.729 309.421 343.689 317.816 355.582 327.219C357.218 328.511 358.834 329.827 360.429 331.165C386.624 352.984 406.747 379.43 419.346 408.595C419.912 409.905 420.461 411.223 420.993 412.55C428.029 429.96 432.303 448.079 433.702 466.434Z" fill="#6C63FF"/>
<path opacity="0.2" d="M316.887 474.317C316.887 466.205 318.784 458.172 322.468 450.678C326.152 443.183 331.551 436.374 338.358 430.638C345.165 424.903 353.246 420.353 362.14 417.249C371.033 414.146 380.565 412.549 390.191 412.55H420.993C420.457 411.223 419.909 409.905 419.346 408.595H316.887V331.165H360.429C358.834 329.83 357.218 328.514 355.582 327.219H316.887V302.155C315.344 301.331 313.779 300.533 312.215 299.753V327.219H222.168V272.807C220.614 272.607 219.06 272.425 217.496 272.26V327.219H203.644V331.165H217.496V408.595H203.644V412.55H217.496V474.317H208.542C209.434 475.685 210.434 477.001 211.537 478.255H217.496V483.684C218.966 484.764 220.527 485.752 222.168 486.641V478.255H312.215V492.001H316.887V478.255H413.902C416.454 477.014 418.965 475.705 421.415 474.317L316.887 474.317ZM312.215 474.317H222.168V412.55H312.215V474.317ZM312.215 408.595H222.168V407.06C222.167 386.933 231.654 367.63 248.541 353.397C265.428 339.164 288.332 331.167 312.215 331.165V408.595Z" fill="black"/>
<path d="M296.274 369.941C296.275 373.209 294.988 376.386 292.615 378.971C290.241 381.555 286.916 383.403 283.161 384.222C279.407 385.042 275.436 384.787 271.872 383.497C268.308 382.208 265.353 379.958 263.472 377.1C261.59 374.242 260.888 370.938 261.477 367.707C262.065 364.477 263.911 361.502 266.723 359.252C269.535 357.001 273.155 355.601 277.014 355.272C280.872 354.943 284.751 355.704 288.041 357.435C284.619 360.807 281.782 364.571 279.613 368.614C283.469 365.363 288.402 363.171 293.763 362.326C295.413 364.623 296.281 367.257 296.274 369.941Z" fill="#2F2E41"/>
<path d="M355.942 454.084C353.198 451.774 351.444 448.761 350.953 445.519C350.462 442.277 351.264 438.989 353.231 436.172C355.198 433.355 358.22 431.169 361.822 429.957C365.424 428.745 369.401 428.575 373.13 429.475C376.858 430.375 380.127 432.293 382.421 434.928C384.716 437.563 385.906 440.766 385.806 444.033C385.706 447.301 384.321 450.447 381.869 452.979C379.416 455.511 376.035 457.285 372.256 458.022C371.847 453.598 370.695 449.246 368.836 445.094C368.837 449.691 367.188 454.18 364.106 457.972C361.013 457.332 358.189 455.987 355.942 454.084Z" fill="#2F2E41"/>
<path d="M459.674 46.141H223.674C223.401 46.1359 223.141 46.0409 222.95 45.8763C222.759 45.7117 222.652 45.4906 222.652 45.2604C222.652 45.0302 222.759 44.8091 222.95 44.6445C223.141 44.4799 223.401 44.3849 223.674 44.3798H459.674C459.947 44.3849 460.207 44.4799 460.398 44.6445C460.589 44.8091 460.696 45.0302 460.696 45.2604C460.696 45.4906 460.589 45.7117 460.398 45.8763C460.207 46.0409 459.947 46.1359 459.674 46.141Z" fill="white"/>
<path d="M241.56 39.8838C244.942 39.8838 247.684 37.5218 247.684 34.6081C247.684 31.6944 244.942 29.3325 241.56 29.3325C238.178 29.3325 235.436 31.6944 235.436 34.6081C235.436 37.5218 238.178 39.8838 241.56 39.8838Z" fill="white"/>
<path d="M262.714 39.8838C266.096 39.8838 268.838 37.5218 268.838 34.6081C268.838 31.6944 266.096 29.3325 262.714 29.3325C259.332 29.3325 256.591 31.6944 256.591 34.6081C256.591 37.5218 259.332 39.8838 262.714 39.8838Z" fill="white"/>
<path d="M283.869 39.8838C287.251 39.8838 289.993 37.5218 289.993 34.6081C289.993 31.6944 287.251 29.3325 283.869 29.3325C280.487 29.3325 277.745 31.6944 277.745 34.6081C277.745 37.5218 280.487 39.8838 283.869 39.8838Z" fill="white"/>
<path d="M446.937 30.6401H431.91C431.612 30.6451 431.328 30.7483 431.12 30.9276C430.911 31.1069 430.794 31.3479 430.794 31.5989C430.794 31.85 430.911 32.091 431.12 32.2703C431.328 32.4496 431.612 32.5528 431.91 32.5578H446.937C447.235 32.5528 447.518 32.4496 447.727 32.2703C447.935 32.091 448.052 31.85 448.052 31.5989C448.052 31.3479 447.935 31.1069 447.727 30.9276C447.518 30.7483 447.235 30.6451 446.937 30.6401Z" fill="white"/>
<path d="M446.937 34.2394H431.91C431.612 34.2444 431.328 34.3477 431.12 34.527C430.911 34.7062 430.794 34.9473 430.794 35.1983C430.794 35.4494 430.911 35.6904 431.12 35.8697C431.328 36.049 431.612 36.1522 431.91 36.1572H446.937C447.235 36.1522 447.518 36.049 447.727 35.8697C447.935 35.6904 448.052 35.4494 448.052 35.1983C448.052 34.9473 447.935 34.7062 447.727 34.527C447.518 34.3477 447.235 34.2444 446.937 34.2394Z" fill="white"/>
<path d="M446.937 37.834H431.91C431.612 37.8391 431.328 37.9423 431.12 38.1216C430.911 38.3008 430.794 38.5419 430.794 38.7929C430.794 39.044 430.911 39.285 431.12 39.4643C431.328 39.6436 431.612 39.7468 431.91 39.7518H446.937C447.235 39.7468 447.518 39.6436 447.727 39.4643C447.935 39.285 448.052 39.044 448.052 38.7929C448.052 38.5419 447.935 38.3008 447.727 38.1216C447.518 37.9423 447.235 37.8391 446.937 37.834Z" fill="white"/>
</svg>
